<?xml version="1.0" encoding="UTF-8"?> <svg xmlns="http://www.w3.org/2000/svg" width="60" height="60" viewBox="0 0 60 60" fill="none"><rect x="0.525" y="0.525" width="58.95" height="58.95" rx="11.475" fill="url(#paint0_linear_569_5065)" stroke="url(#paint1_radial_569_5065)" stroke-width="1.05"></rect><g clip-path="url(#clip0_569_5065)"><path d="M38.197 30V37C38.197 37.644 37.6743 38.1667 37.0303 38.1667C36.3863 38.1667 35.8637 37.644 35.8637 37V30C35.8637 29.356 36.3863 28.8333 37.0303 28.8333C37.6743 28.8333 38.197 29.356 38.197 30ZM29.5403 23.8365L33.1232 36.7037C33.3273 37.4387 32.7755 38.1667 32.0113 38.1667C31.4945 38.1667 31.0418 37.8237 30.9007 37.3267L30.1505 34.6667H24.0768L23.3267 37.3267C23.1867 37.8237 22.7328 38.1667 22.216 38.1667C21.453 38.1667 20.9 37.4387 21.1042 36.7037L24.7103 23.7443C24.8748 23.035 25.3415 22.4377 25.9913 22.1052C26.654 21.7645 27.4147 21.7435 28.1368 22.0468C28.8217 22.3338 29.3467 23 29.5415 23.8377L29.5403 23.8365ZM29.4925 32.3333L27.242 24.3592C27.2082 24.2262 27.0192 24.2262 26.9865 24.3592L24.736 32.3333H29.4925ZM42.8648 27.6667C42.2208 27.6667 41.6982 28.1893 41.6982 28.8333V38.1667C41.6982 40.0963 40.1278 41.6667 38.1982 41.6667H21.8637C19.934 41.6667 18.3637 40.0963 18.3637 38.1667V21.8333C18.3637 19.9037 19.934 18.3333 21.8637 18.3333H31.197C31.841 18.3333 32.3637 17.8107 32.3637 17.1667C32.3637 16.5227 31.841 16 31.197 16H21.8637C18.6472 16 16.0303 18.6168 16.0303 21.8333V38.1667C16.0303 41.3832 18.6472 44 21.8637 44H38.197C41.4135 44 44.0303 41.3832 44.0303 38.1667V28.8333C44.0303 28.1893 43.5077 27.6667 42.8637 27.6667H42.8648ZM34.8732 22.0433L37.0525 22.9615L37.9217 25.1373C38.1095 25.6087 38.5657 25.9167 39.0732 25.9167C39.5807 25.9167 40.0357 25.6075 40.2247 25.1373L41.0892 22.9743L43.2522 22.1098C43.7235 21.922 44.0315 21.4658 44.0315 20.9583C44.0315 20.4508 43.7223 19.9958 43.2522 19.8068L41.0892 18.9423L40.2247 16.7793C40.0345 16.3092 39.5783 16 39.072 16C38.5657 16 38.1095 16.3092 37.9205 16.7793L37.0607 18.9295L34.914 19.7427C34.4403 19.9223 34.123 20.3727 34.1137 20.879C34.1043 21.3865 34.4053 21.8473 34.872 22.0445L34.8732 22.0433Z" fill="white"></path></g><defs><linearGradient id="paint0_linear_569_5065" x1="-4.46989" y1="-2.97199" x2="63.364" y2="19.6923" gradientUnits="userSpaceOnUse"><stop stop-color="#171135"></stop><stop offset="1" stop-color="#140C39"></stop></linearGradient><radialGradient id="paint1_radial_569_5065" cx="0" cy="0" r="1" gradientUnits="userSpaceOnUse" gradientTransform="translate(22.2115 19.0405) rotate(42.5967) scale(46.1706 32.8816)"><stop offset="0.09" stop-color="white" stop-opacity="0.25"></stop><stop offset="0.34" stop-color="white" stop-opacity="0.0938"></stop><stop offset="0.6" stop-color="white" stop-opacity="0.35"></stop><stop offset="0.9" stop-color="white" stop-opacity="0.07"></stop></radialGradient><clipPath id="clip0_569_5065"><rect width="28" height="28" fill="white" transform="translate(16 16)"></rect></clipPath></defs></svg> 