<svg xmlns="http://www.w3.org/2000/svg" viewBox="0 0 60 60" fill="none"> <path d="M0 12C0 5.372575 5.372575 0 12 0H48C54.6275 0 60 5.372575 60 12V48C60 54.6275 54.6275 60 48 60H12C5.372575 60 0 54.6275 0 48V12Z" fill="url(#paint0_linear_567_3562)"></path> <path d="M43.92775 36.18925L41.627 23.152825C41.13475 20.359825 38.7185 18.333325 35.88225 18.333325H24.117675C20.083325 18.333325 18.676325 21.430825 18.373 23.152825L16.072325 36.18925C15.832 37.55075 16.204175 38.939 17.093175 40.00075C17.982175 41.06 19.285325 41.66775 20.667825 41.66775H21.833325C22.477325 41.66775 23 41.14625 23 40.50125C23 39.856 22.477325 39.3345 21.833325 39.3345H20.667825C19.976 39.3345 19.325 39.03 18.8805 38.50025C18.436 37.97075 18.249325 37.2765 18.3695 36.59525L20.670175 23.558825C20.7425 23.145825 20.886 22.760825 21.084325 22.416675L23.813175 36.91375C24.332325 39.66825 26.74275 41.66775 29.54625 41.66775H39.331C40.71475 41.66775 42.01775 41.06 42.90575 40.00075C43.79475 38.94025 44.168 37.55075 43.92775 36.18925ZM41.1195 38.49925C40.675 39.02875 40.024 39.33325 39.33225 39.33325H29.54725C27.86625 39.33325 26.4195 38.134 26.108 36.482L23.155175 20.800825C23.462 20.713325 23.785175 20.667825 24.1165 20.667825H35.88225C37.58325 20.667825 39.0335 21.8835 39.32875 23.56L41.62925 36.59625C41.7495 37.27775 41.564 37.97175 41.11825 38.5015L41.1195 38.49925ZM27.66675 26.5C27.02275 26.5 26.5 25.97725 26.5 25.33325C26.5 24.689325 27.02275 24.166675 27.66675 24.166675H35.83325C36.47725 24.166675 37 24.689325 37 25.33325C37 25.97725 36.47725 26.5 35.83325 26.5H27.66675ZM28.5195 31.16675C27.8755 31.16675 27.35275 30.644 27.35275 30C27.35275 29.356 27.8755 28.83325 28.5195 28.83325H36.68625C37.33025 28.83325 37.85275 29.356 37.85275 30C37.85275 30.644 37.33025 31.16675 36.68625 31.16675H28.5195ZM38.75 34.66675C38.75 35.31175 38.22725 35.83325 37.58325 35.83325H29.41675C28.77275 35.83325 28.25 35.31175 28.25 34.66675C28.25 34.0215 28.77275 33.5 29.41675 33.5H37.58325C38.22725 33.5 38.75 34.0215 38.75 34.66675Z" fill="white"></path> <defs> <linearGradient id="paint0_linear_567_3562" x1="-17.8796" y1="-11.888" x2="253.456" y2="78.769" gradientUnits="userSpaceOnUse"> <stop stop-color="#171135"></stop> <stop offset="1" stop-color="#140C39"></stop> </linearGradient> </defs> </svg>