<svg xmlns="http://www.w3.org/2000/svg" viewBox="0 0 60 60" fill="none"> <path d="M0 12C0 5.372575 5.372575 0 12 0H48C54.6275 0 60 5.372575 60 12V48C60 54.6275 54.6275 60 48 60H12C5.372575 60 0 54.6275 0 48V12Z" fill="url(#paint0_linear_567_3560)"></path> <path d="M26.5 43H17.166675C16.85725 43 16.5605 42.877 16.3417 42.65825C16.122925 42.4395 16 42.14275 16 41.83325C16 41.524 16.122925 41.22725 16.3417 41.0085C16.5605 40.7895 16.85725 40.66675 17.166675 40.66675H26.5C26.8095 40.66675 27.10625 40.7895 27.325 41.0085C27.54375 41.22725 27.66675 41.524 27.66675 41.83325C27.66675 42.14275 27.54375 42.4395 27.325 42.65825C27.10625 42.877 26.8095 43 26.5 43Z" fill="white"></path> <path d="M24.166675 38.33325H17.166675C16.85725 38.33325 16.5605 38.2105 16.3417 37.99175C16.122925 37.77275 16 37.476 16 37.16675C16 36.85725 16.122925 36.5605 16.3417 36.34175C16.5605 36.123 16.85725 36 17.166675 36H24.166675C24.476075 36 24.772825 36.123 24.991625 36.34175C25.2105 36.5605 25.33325 36.85725 25.33325 37.16675C25.33325 37.476 25.2105 37.77275 24.991625 37.99175C24.772825 38.2105 24.476075 38.33325 24.166675 38.33325Z" fill="white"></path> <path d="M21.833325 33.66675H17.166675C16.85725 33.66675 16.5605 33.54375 16.3417 33.325C16.122925 33.10625 16 32.8095 16 32.5C16 32.1905 16.122925 31.89375 16.3417 31.675C16.5605 31.45625 16.85725 31.33325 17.166675 31.33325H21.833325C22.14275 31.33325 22.4395 31.45625 22.6583 31.675C22.877075 31.89375 23 32.1905 23 32.5C23 32.8095 22.877075 33.10625 22.6583 33.325C22.4395 33.54375 22.14275 33.66675 21.833325 33.66675Z" fill="white"></path> <path d="M31.167 42.9475C30.8575 42.96125 30.55525 42.8515 30.32675 42.6425C30.09825 42.4335 29.96225 42.14225 29.9485 41.83275C29.9345 41.52325 30.04425 41.221 30.2535 40.9925C30.4625 40.764 30.75375 40.628 31.06325 40.61425C33.271 40.41225 35.3755 39.58525 37.1305 38.23025C38.88525 36.87525 40.21775 35.04825 40.9715 32.96325C41.7255 30.87825 41.86975 28.6215 41.38725 26.4575C40.90475 24.29365 39.81575 22.311925 38.24775 20.744575C36.67975 19.1772 34.6975 18.0891 32.53325 17.6077C30.369 17.126325 28.1125 17.27155 26.028 18.026425C23.94325 18.781275 22.116875 20.1145 20.762675 21.86995C19.40845 23.6254 18.582475 25.7305 18.381475 27.93825C18.353625 28.2465 18.2045 28.531 17.966875 28.72925C17.729275 28.9275 17.42265 29.02325 17.114475 28.99525C16.8063 28.9675 16.5218 28.81825 16.323575 28.58075C16.12535 28.34325 16.029625 28.0365 16.057475 27.72825C16.38285 24.138875 18.08 20.81315 20.7957 18.4435C23.511375 16.07385 27.03625 14.842825 30.63675 15.006675C34.23725 15.170525 37.63575 16.71665 40.125 19.323175C42.61425 21.9297 44.00225 25.39575 44.00025 29C44.01825 32.498 42.71875 35.87475 40.36025 38.45825C38.00175 41.04175 34.75725 42.64275 31.272 42.94275C31.237 42.94625 31.20075 42.9475 31.167 42.9475Z" fill="white"></path> <path d="M29.99975 22C29.69025 22 29.3935 22.122925 29.17475 22.3417C28.956 22.5605 28.833 22.85725 28.833 23.166675V29C28.833 29.3095 28.956 29.606 29.17475 29.82475L32.67475 33.32475C32.895 33.53725 33.1895 33.655 33.4955 33.65225C33.80125 33.64975 34.094 33.527 34.31025 33.3105C34.5265 33.09425 34.64925 32.80175 34.652 32.49575C34.6545 32.19 34.537 31.89525 34.3245 31.67525L31.16625 28.517V23.166675C31.16625 22.85725 31.0435 22.5605 30.82475 22.3417C30.60575 22.122925 30.309 22 29.99975 22Z" fill="white"></path> <defs> <linearGradient id="paint0_linear_567_3560" x1="-17.8796" y1="-11.888" x2="253.456" y2="78.769" gradientUnits="userSpaceOnUse"> <stop stop-color="#171135"></stop> <stop offset="1" stop-color="#140C39"></stop> </linearGradient> </defs> </svg>