<?xml version="1.0" encoding="UTF-8"?> <svg xmlns="http://www.w3.org/2000/svg" width="159" height="138" viewBox="0 0 159 138" fill="none"><path d="M20.79 104.5H26.565V129H21.56V111.43L14.735 121.755H14.28L7.49 111.43V129H2.485V104.5H8.225L14.525 113.915L20.79 104.5ZM104.312 104.5C109.562 104.5 113.027 107.58 113.027 112.725C113.027 117.87 109.562 121.09 104.312 121.09H99.0273V129H94.0223V104.5H104.312ZM104.102 116.33C106.692 116.33 107.952 114.93 107.952 112.795C107.952 110.625 106.692 109.26 104.102 109.26H99.0273V116.33H104.102Z" fill="#00FFF8"></path><path d="M45.5695 109.75H50.5745L50.5395 129H45.5345V126.41C44.2045 128.23 42.2095 129.42 39.5145 129.42C34.4745 129.42 30.7295 125.29 30.7295 119.375C30.7295 113.425 34.5445 109.33 39.4795 109.33C42.2095 109.33 44.2395 110.59 45.5695 112.445V109.75ZM40.6345 124.66C43.4345 124.66 45.5695 122.56 45.5695 119.375C45.5695 116.225 43.4345 114.09 40.6345 114.09C37.8345 114.09 35.7695 116.225 35.7695 119.375C35.7695 122.56 37.8695 124.66 40.6345 124.66ZM68.2134 109.75H73.5684L61.0384 137.75H55.7184L60.7584 126.445L53.3384 109.75H58.6584L63.4184 121.02L68.2134 109.75ZM86.9066 106.005C84.6316 106.005 83.5116 107.195 83.5116 109.68V109.75H89.9166V114.475H83.5116V129H78.5066V114.475H75.0766V109.75H78.5066V109.435C78.5066 103.94 82.3566 101.63 86.3466 101.63C87.8516 101.63 89.6716 101.945 90.8966 102.505L89.9866 106.565L89.3216 106.39C88.4816 106.145 87.6416 106.005 86.9066 106.005ZM130.198 109.75H135.203L135.168 129H130.163V126.41C128.833 128.23 126.838 129.42 124.143 129.42C119.103 129.42 115.358 125.29 115.358 119.375C115.358 113.425 119.173 109.33 124.108 109.33C126.838 109.33 128.868 110.59 130.198 112.445V109.75ZM125.263 124.66C128.063 124.66 130.198 122.56 130.198 119.375C130.198 116.225 128.063 114.09 125.263 114.09C122.463 114.09 120.398 116.225 120.398 119.375C120.398 122.56 122.498 124.66 125.263 124.66ZM152.842 109.75H158.197L145.667 137.75H140.347L145.387 126.445L137.967 109.75H143.287L148.047 121.02L152.842 109.75Z" fill="white"></path><g clip-path="url(#clip0_567_2752)"><mask id="mask0_567_2752" style="mask-type:luminance" maskUnits="userSpaceOnUse" x="38" y="-1" width="79" height="74"><path d="M116.487 -0.00219727H38.9961V72.2383H116.487V-0.00219727Z" fill="white"></path></mask><g mask="url(#mask0_567_2752)"><path d="M67.7327 55.1849C66.1774 58.0707 67.4354 61.1577 65.659 62.2192C59.3452 65.992 57.3465 54.9495 59.5868 51.2915C61.827 47.6335 72.8141 45.3761 73.0426 49.6208C73.496 58.0371 69.4984 52.3646 67.7327 55.1849Z" fill="#00FFF8"></path><path d="M90.478 47.6805C89.0601 44.5104 85.5175 43.3156 85.8311 41.2443C86.9453 33.8819 97.8829 40.0358 99.4938 44.2563C101.105 48.4767 95.4393 58.3015 91.6091 55.5301C84.0148 50.0354 91.6932 50.9633 90.478 47.6805Z" fill="#00FFF8"></path><path d="M89.6235 23.0467C88.2056 19.8766 84.663 18.6818 84.9766 16.6105C86.0908 9.24811 97.0284 15.402 98.6393 19.6225C100.25 23.8429 94.5848 33.6677 90.7546 30.8964C83.1603 25.4017 90.8387 26.3295 89.6235 23.0467Z" fill="#00FFF8"></path><path d="M75.0823 11.9162C72.8504 14.6489 74.1347 18.6777 72.0549 19.463C64.6625 22.2543 64.8924 10.3466 68.0025 6.93178C71.1126 3.51691 83.2764 1.75685 82.4191 7.64152C81.2663 15.5535 77.5203 9.29048 75.0823 11.9162Z" fill="#00FFF8"></path><path d="M66.8981 32.3162C65.3969 35.1016 66.6112 38.0813 64.8966 39.1058C58.8023 42.7475 56.8731 32.089 59.0354 28.5581C61.1978 25.0273 71.8028 22.8484 72.0234 26.9456C72.461 35.0692 68.6025 29.5939 66.8981 32.3162Z" fill="#00FFF8"></path><path d="M89.0193 67.3984H66.4695C65.4637 67.3984 64.6484 68.1585 64.6484 69.0961C64.6484 70.0337 65.4637 70.7937 66.4695 70.7937H89.0193C90.025 70.7937 90.8403 70.0337 90.8403 69.0961C90.8403 68.1585 90.025 67.3984 89.0193 67.3984Z" fill="white"></path><path d="M78.7296 63.0921L71.741 56.577C71.0055 55.8913 69.8129 55.8913 69.0774 56.577L69.0774 56.577C68.3418 57.2627 68.3418 58.3745 69.0774 59.0602L76.0659 65.5753C76.8015 66.261 77.994 66.261 78.7296 65.5753L78.7296 65.5753C79.4651 64.8896 79.4651 63.7778 78.7296 63.0921Z" fill="white"></path><path d="M78.5254 40.0765L71.741 33.7518C71.0055 33.0661 69.8129 33.0661 69.0774 33.7518L69.0774 33.7518C68.3418 34.4375 68.3418 35.5493 69.0774 36.235L75.8617 42.5597C76.5973 43.2454 77.7898 43.2454 78.5254 42.5597L78.5254 42.5597C79.2609 41.874 79.2609 40.7622 78.5254 40.0765Z" fill="white"></path><path d="M80.6562 55.9135L87.9777 49.088C88.7133 48.4023 88.7133 47.2906 87.9778 46.6049L87.9777 46.6049C87.2422 45.9191 86.0497 45.9191 85.3141 46.6049L77.9925 53.4304C77.257 54.1161 77.257 55.2278 77.9925 55.9135C78.7281 56.5992 79.9206 56.5992 80.6562 55.9135Z" fill="white"></path><path d="M79.6972 31.4512L87.1985 24.4581C87.934 23.7724 87.934 22.6607 87.1985 21.975L87.1984 21.975C86.4629 21.2893 85.2704 21.2893 84.5348 21.975L77.0335 28.968C76.298 29.6537 76.298 30.7655 77.0335 31.4512C77.7691 32.1369 78.9616 32.1369 79.6972 31.4512Z" fill="white"></path><path d="M77.7444 12.9987C78.8999 12.9987 79.8366 13.8719 79.8366 14.9491V68.8405C79.8366 69.9178 78.8999 70.791 77.7444 70.791C76.5888 70.791 75.6521 69.9178 75.6521 68.8405V14.9491C75.6521 13.8719 76.5888 12.9987 77.7444 12.9987Z" fill="white"></path><path d="M87.6671 68.8467C89.4683 67.0587 83.0475 68.6364 81.1289 66.9567C79.2103 65.2769 80.4086 61.1818 78.6074 62.9698C76.8062 64.7578 76.9014 67.5689 78.82 69.2486C80.7386 70.9284 85.8659 70.6347 87.6671 68.8467Z" fill="white"></path><path d="M68.7209 69.003C66.8742 67.2814 73.0646 68.2149 74.912 66.4927C77.043 64.5061 68.4415 58.9075 78.1279 62.1583C79.9746 63.8799 79.3591 67.4227 77.5117 69.1449C75.6644 70.8672 70.5676 70.7246 68.7209 69.003Z" fill="white"></path><path d="M78.7448 47.2444C76.9983 47.2444 75.6385 45.1804 75.6385 43.562C75.6385 41.9436 72.5815 40.1648 74.328 40.1648C76.0745 40.1648 77.4904 41.4768 77.4904 43.0952C77.4904 44.7136 80.4913 47.2444 78.7448 47.2444Z" fill="white"></path><path d="M75.7099 63.2082C78.1205 63.2082 79.3343 62.3775 79.9975 58.098C80.342 55.8751 84.2169 53.3835 81.8062 53.3835C79.3956 53.3835 77.4413 55.2042 77.4413 57.4502C77.4413 59.6961 73.2992 63.2082 75.7099 63.2082Z" fill="white"></path><path d="M75.3678 37.9221C77.4341 37.9221 79.0429 35.4579 79.0429 33.5258C79.0429 31.5936 82.6595 29.47 80.5932 29.47C78.527 29.47 76.8519 31.0363 76.8519 32.9685C76.8519 34.9006 73.3015 37.9221 75.3678 37.9221Z" fill="white"></path><path d="M70.9622 33.3704C72.8226 33.71 78.6344 42.1078 78.9986 40.3734C79.3629 38.6391 80.1067 32.3893 78.2463 32.0497C76.3859 31.7101 76.8396 33.9239 76.4753 35.6583C76.111 37.3926 69.1018 33.0308 70.9622 33.3704Z" fill="white"></path><path d="M70.9972 56.2764C72.8576 56.616 78.6694 65.0138 79.0337 63.2795C79.398 61.5451 80.1417 55.2953 78.2813 54.9557C76.4209 54.6161 76.8746 56.8301 76.5104 58.5644C76.1461 60.2987 69.1368 55.9369 70.9972 56.2764Z" fill="white"></path><path d="M84.4738 47.604C82.9053 48.1543 79.1587 56.2699 78.5684 54.8076C77.9781 53.3453 76.3471 47.9982 77.9155 47.4479C79.4841 46.8976 79.4367 48.8898 80.0269 50.352C80.6172 51.8143 86.0423 47.0537 84.4738 47.604Z" fill="white"></path><path d="M83.3888 23.5484C81.8203 24.0986 78.0737 32.2142 77.4834 30.752C76.8931 29.2897 75.2621 23.9425 76.8306 23.3922C78.3992 22.842 78.3517 24.8341 78.942 26.2964C79.5322 27.7587 84.9574 22.998 83.3888 23.5484Z" fill="white"></path></g></g><defs><clipPath id="clip0_567_2752"><rect width="46.9565" height="72" fill="white" transform="translate(56)"></rect></clipPath></defs></svg> 