<?xml version="1.0" encoding="UTF-8"?> <svg xmlns="http://www.w3.org/2000/svg" viewBox="0 0 140.01611328125 135.749755859375" fill="none"><g opacity="0.1"><path d="M133.61355828302555 96.80204922762785C133.75457272866532 118.16935669685132 103.93463476301386 135.49840977589542 67.02953204900567 135.52361766794786C48.56437674597537 135.52361766794786 31.850545982864023 131.1778769113469 19.714069083528297 124.19054873412432C7.5776171425015315 117.1777630817597 0.04754308274321802 107.4984316998106 0.0005026703258341689 96.80204922762785C-0.04653776205819685 89.74234195441316 3.2101127404850436 83.15684255149148 8.876672165705772 77.46485060943766C20.37626293692903 65.91813855089265 41.83761331432431 58.12765199124749 66.58078165385471 58.12765199124749C85.04593695688503 58.12765199124749 101.78522519513842 62.44818485579601 113.92170209447414 69.46072092507103C126.03272151866784 76.44804910229361 133.5663870790859 86.13112423058712 133.61355828302555 96.80204922762785Z" fill="black"></path></g><path d="M139.07718169806986 56.50286607776989V39.39095028670204L72.27252401281889 39.40542610590045L72.1821749343736 56.517341896968304L139.07718169806986 56.50286607776989Z" fill="white"></path><path d="M72.18192535128397 57.222913291346366C71.99373970170454 57.222913291346366 71.81653570806873 57.14704003209948 71.68250958893856 57.016757659313726C71.548733052898 56.88273154018354 71.47635395690591 56.70178380020332 71.47635395690591 56.517341896968304L71.56670303535121 39.40542610590045C71.57044678169562 39.01832273388759 71.8851710577164 38.703348874777184 72.27227442972928 38.703348874777184L139.07693211498022 38.68887305557877C139.26511776455965 38.68887305557877 139.4425713412851 38.76499589791527 139.57634787732565 38.895278270701034C139.71037399645581 39.02905480674159 139.78275309244793 39.20650838346702 139.78275309244793 39.394694033046456V56.50636024102467C139.78275309244793 56.89720735938196 139.46428507008272 57.21218121849237 139.07693211498022 57.21218121849237L72.18192535128397 57.222913291346366ZM72.97435166085255 40.10750333702373L72.88749674566203 55.81177050259024L138.36786655734736 55.797294683391826V40.093027517825305L72.97435166085255 40.10750333702373Z" fill="#040112"></path><path d="M130.72163902350712 57.20843747214795C130.33453565149424 57.20843747214795 130.01606762912905 56.89371319612717 130.01606762912905 56.50286607776989L130.01232388278464 39.39095028670204C130.01232388278464 39.00035275143438 130.33079190514982 38.685378892323975 130.7178952771627 38.685378892323975C131.1052482322652 38.685378892323975 131.4237162546304 39.00035275143438 131.4237162546304 39.39095028670204L131.4272104178852 56.50286607776989C131.4272104178852 56.89021903287238 131.10874239552 57.20843747214795 130.72163902350712 57.20843747214795Z" fill="#040112"></path><path d="M122.36584676585477 57.20843747214795C121.97874339384191 57.20843747214795 121.66027537147671 56.89371319612717 121.66027537147671 56.50286607776989V39.39095028670204C121.66027537147671 39.00035275143438 121.97874339384191 38.685378892323975 122.36584676585477 38.685378892323975C122.75319972095728 38.685378892323975 123.07141816023284 39.00035275143438 123.07141816023284 39.39095028670204V56.50286607776989C123.07141816023284 56.89371319612717 122.75319972095728 57.20843747214795 122.36584676585477 57.20843747214795Z" fill="#040112"></path><path d="M114.00780826039578 57.20843747214795C113.62070488838292 57.20843747214795 113.30223686601771 56.89371319612717 113.30223686601771 56.50286607776989V39.39095028670204C113.30223686601771 39.00035275143438 113.62070488838292 38.685378892323975 114.00780826039578 38.685378892323975C114.39516121549828 38.685378892323975 114.71337965477383 39.00035275143438 114.71337965477383 39.39095028670204V56.50286607776989C114.71337965477383 56.89371319612717 114.39865537875305 57.20843747214795 114.00780826039578 57.20843747214795Z" fill="#040112"></path><path d="M105.6527647520123 57.20843747214795C105.2654117969098 57.20843747214795 104.94719335763425 56.89371319612717 104.94719335763425 56.50286607776989V39.39095028670204C104.94719335763425 39.00035275143438 105.2654117969098 38.685378892323975 105.6527647520123 38.685378892323975C106.03986812402518 38.685378892323975 106.35833614639037 39.00035275143438 106.35833614639037 39.39095028670204V56.50286607776989C106.35833614639037 56.89371319612717 106.03986812402518 57.20843747214795 105.6527647520123 57.20843747214795Z" fill="#040112"></path><path d="M97.29347833110516 57.20843747214795C96.9063749590923 57.20843747214795 96.58790693672711 56.89371319612717 96.58790693672711 56.50286607776989V39.39095028670204C96.58790693672711 39.00035275143438 96.9063749590923 38.685378892323975 97.29347833110516 38.685378892323975C97.68058170311804 38.685378892323975 97.99904972548323 39.00035275143438 97.99904972548323 39.39095028670204V56.50286607776989C97.99904972548323 56.89371319612717 97.68432544946245 57.20843747214795 97.29347833110516 57.20843747214795Z" fill="#040112"></path><path d="M88.93918357199058 57.20843747214795C88.55208019997772 57.20843747214795 88.23361217761251 56.89371319612717 88.23361217761251 56.50286607776989V39.39095028670204C88.23361217761251 39.00035275143438 88.55208019997772 38.685378892323975 88.93918357199058 38.685378892323975C89.32653652709308 38.685378892323975 89.64475496636865 39.00035275143438 89.64475496636865 39.39095028670204V56.50286607776989C89.64475496636865 56.89371319612717 89.32653652709308 57.20843747214795 88.93918357199058 57.20843747214795Z" fill="#040112"></path><path d="M80.58014673417307 57.20843747214795C80.1930433621602 57.20843747214795 79.874575339795 56.89371319612717 79.874575339795 56.50286607776989V39.39095028670204C79.874575339795 39.00035275143438 80.1930433621602 38.685378892323975 80.58014673417307 38.685378892323975C80.96725010618594 38.685378892323975 81.28571812855112 39.00035275143438 81.28571812855112 39.39095028670204V56.50286607776989C81.28571812855112 56.89371319612717 80.97099385253036 57.20843747214795 80.58014673417307 57.20843747214795Z" fill="#040112"></path><path d="M72.27227442972928 39.40168235955604L72.09132668974904 86.51098969300078L71.84898150972036 64.44909248534285L72.02967966661096 0.7056088318415079L72.27227442972928 39.40168235955604Z" fill="white"></path><path d="M72.09107710665943 87.21656108737885C71.70397373464655 87.21656108737885 71.39274362188057 86.90558055770248 71.38550571228136 86.51822760259999L71.14291094916305 64.45633039494206L71.32385868914326 0.7056462693049521C71.32385868914326 0.31846552653429977 71.64232671150846 0.0036560178884142433 72.02967966661096 0.0036560178884142433C72.41678303862383 0.0036560178884142433 72.7315073146446 0.31484657173469527 72.73525106098903 0.7056462693049521L72.97759624101772 39.40193194264567C72.97759624101772 39.40542610590045 72.97759624101772 39.40542610590045 72.97759624101772 39.40916985224487L72.79664850103748 86.51473343934519C72.7931543377827 86.90183681135807 72.4819242250167 87.21306692412405 72.09107710665943 87.21656108737885Z" fill="#040112"></path><path d="M72.02992924970059 9.26335124646627L72.27227442972928 47.95963691980698L14.340195747514205 28.61869455527239C25.818122706557762 17.06120050725546 47.29749298302417 9.26335124646627 72.02992924970059 9.26335124646627Z" fill="white"></path><path d="M72.27277359590853 48.665208314185044C72.19665075357203 48.665208314185044 72.12077749432514 48.65422665824142 72.04839839833305 48.629018766189006L14.11621988288213 29.28807640165441C13.884656692325366 29.212203142407528 13.707327907144748 29.020273746483678 13.65304358515068 28.78142272970978C13.595165266665969 28.542571712935885 13.667519404349097 28.292988623307988 13.837585321621546 28.119278792926973C25.82211603599181 16.051611951401654 48.11937009716884 8.557704977161318 72.03017883279021 8.554086022361714C72.41753178789271 8.554086022361714 72.7322560639135 8.86888517330938 72.73575022716827 9.256063420249136L72.9783449902866 47.952149427118144C72.98183915354139 48.180268371038046 72.86977634629847 48.39366191266989 72.68508485997381 48.527688031800075C72.56578414313168 48.618037110245375 72.41753178789271 48.665208314185044 72.27277359590853 48.665208314185044ZM15.657719919350908 28.314702352105613L71.56345845518605 46.978775377569356L71.33184534801136 9.97254159564394C48.58609047477301 10.113655874519552 27.44665236637979 17.09012718734333 15.657719919350908 28.314702352105613Z" fill="#040112"></path><path d="M72.27302317899816 47.95963691980698L72.09207543901793 86.51098969300078L14.159971798493899 83.80451066907587L14.340894580165163 28.61869455527239L72.27302317899816 47.95963691980698Z" fill="#040112"></path><path d="M119.3671059439756 12.045878237800803C131.49285077045732 19.044063279422208 139.01553467493176 28.71278738006211 139.07718169806986 39.39095028670204L72.27252401281889 39.40542610590045L72.03017883279021 0.7091454242215351C90.49882829907531 0.7055264694219308 107.23437279098428 5.040480244889149 119.3671059439756 12.045878237800803Z" fill="#33D1FF"></path><path d="M72.27227442972928 40.10750333702373C71.8851710577164 40.10750333702373 71.57019719860601 39.79627322425774 71.56670303535121 39.40542610590045L71.3241082722329 0.7092227949793198C71.3241082722329 0.5210596078779524 71.39673695131462 0.3401293387140012 71.52676974101074 0.2062459811110879C71.66079586014094 0.07236162517581607 71.84174360012115 0 72.02992924970059 0C90.0138883559283 0 106.94835057027072 4.059943160668031 119.7215139312472 11.43444958483038C132.59975177295703 18.870453282277044 139.7246002325646 28.795898548908198 139.78250350935826 39.38371237710283C139.78250350935826 39.57189802668226 139.7101244133662 39.75284576666248 139.57984204058042 39.88662230270304C139.4460655045399 40.02064842183322 139.26511776455965 40.093027517825305 139.07693211498022 40.093027517825305L72.27227442972928 40.10750333702373ZM72.73899480733344 1.414834122651724L72.97060791450814 38.69985471152239L138.35688490140373 38.685378892323975C137.9914952581885 28.88275346409871 131.14892527295007 19.66652350495418 119.01594253686915 12.657481598933963C106.62638838465074 5.503731417547487 90.21280607836174 1.5197688368548767 72.73899480733344 1.414834122651724Z" fill="#040112"></path><path d="M139.07393711790468 56.633148450555645L138.9074651971229 86.50025762014678C139.026765913965 106.45267855426971 113.10032414650874 122.83730922216188 79.69063260273926 124.96126131489527C77.25894456049465 125.1494469644747 74.80204862619765 125.2218260604668 72.30172523430537 125.2218260604668C69.70356527127896 125.2218260604668 67.15632025853665 125.12773323567707 64.65225312029996 124.96126131489527C49.2337585923574 123.94445980775122 35.422079995439226 119.90994916391627 24.986262268827982 113.88875712664326C12.849860244419146 106.87597147427863 5.319738763873802 97.19664009232953 5.272692351478944 86.50025762014678L5.439189230569713 56.51384773371351C5.51154336825284 67.21023020589628 13.041614932180257 76.88956158784536 25.17794208166221 83.90234724021C35.54512445862578 89.87636807354333 49.3098814346939 93.93633619252033 64.65599686664437 94.974851428462C67.22869935452873 95.14132334924382 69.85206720960757 95.23541617403352 72.4934050471396 95.23541617403352C74.92509308938419 95.23541617403352 77.33506740283117 95.16653124129624 79.69437634908367 95.00005932051442C113.10032414650874 92.9232784317207 139.04847964276266 76.56036149262616 139.07393711790468 56.633148450555645Z" fill="#BEC4CD"></path><path d="M79.69038301964962 95.00005932051442V124.96126131489527C77.25894456049465 125.1494469644747 74.801799043108 125.22157647737717 72.30147565121574 125.22157647737717C69.70331568818933 125.22157647737717 67.15607067544701 125.12773323567707 64.65200353721035 124.96126131489527V94.97460184537238C67.2247060250947 95.14107376615418 69.84807388017352 95.2351665909439 72.48966130079516 95.2351665909439C74.92134934303976 95.2351665909439 77.33107407339712 95.16653124129624 79.69038301964962 95.00005932051442Z" fill="#DBDEE4"></path><path d="M72.30871356081495 125.92739745484485C54.32849820093165 125.92739745484485 37.39753014984403 121.86742933586787 24.631405031995044 114.49649194988719C11.742310325886391 107.05691921425885 4.613892828097148 97.11677350364862 4.555989551303476 86.51473343934519L4.733293378175134 56.51384773371351C4.736912332974738 56.12649477861102 5.05176140054033 55.81177050259024 5.438939647480086 55.81177050259024C5.826117894419841 55.81177050259024 6.140892087058545 56.12649477861102 6.1445110418581494 56.51384773371351C6.202414318651821 66.5985020532183 13.081198810195241 76.10437318787599 25.517874249735407 83.28338117793281C38.07414990582525 90.53127410072695 54.75528528419535 94.52235728696662 72.48966130079516 94.52235728696662C96.07126994119736 94.51511937736743 118.00313435915913 87.18037153938279 129.72705041133995 75.38782013755431C135.27403457831997 69.80814058583306 138.25230958684963 63.46848052619485 138.36786655734736 57.016757659313726L138.37161030369177 56.499371914515095C138.37510446694657 56.1120189594126 138.69007832605698 55.797294683391826 139.07718169806986 55.797294683391826C139.46428507008272 55.797294683391826 139.77925892919313 56.1120189594126 139.78275309244793 56.499371914515095C139.78275309244793 56.68007007140569 139.78275309244793 56.85752364813113 139.77925892919313 57.03847138811135L139.6018053524677 86.50025762014678C139.64173864680814 93.49831787022337 136.5117171197847 100.37358324020305 130.54842835930538 106.37306154867841C118.57118547115223 118.42268353282364 96.255961427522 125.91641579890123 72.30871356081495 125.92739745484485ZM6.097489587772254 64.36223757015236L5.963588260186888 86.51473343934519C6.017872582180955 96.58865568599599 12.896632115415413 106.09427723756406 25.333432346500388 113.2735348107105C37.88596425624582 120.52142773350462 54.57084338096033 124.51251091974432 72.30496981447052 124.51251091974432C95.88682803796233 124.5052730101451 117.82218661917892 117.17052517216047 129.54610267135973 105.37423002398758C135.23809461341355 99.64629811702734 138.22685211170761 93.11845240780971 138.19066256371156 86.49651387380236L138.3209449364973 64.81822587490252C136.8553930342023 68.8816881571343 134.29716636551638 72.78616601127311 130.72563235294115 76.3791641695563C118.74838946478803 88.43252990004596 96.43316542115781 95.92276800286875 72.48591755445075 95.93374965881237C54.509445940911874 95.93374965881237 37.57847788982425 91.87378153983539 24.808758775484627 84.50633831710951C15.165467191677806 78.93389667498745 8.742596129957663 71.9647880633077 6.097489587772254 64.36223757015236Z" fill="#040112"></path><path d="M139.07668253189058 56.50286607776989C139.19598324873274 77.891887275791 109.38677735593527 95.21345286214628 72.48891255152628 95.2279286813447C54.02750099484041 95.2279286813447 37.29545066618622 90.89666374394218 25.16271751319491 83.89485974752117C13.02990948527671 76.88956158784536 5.49981296304033 67.21372436915107 5.438315689756016 56.517341896968304C5.398507186960366 49.45414046049883 8.669618034550469 42.86839147448752 14.336177459771195 37.17639953243371L72.26828110029523 56.517341896968304L139.07668253189058 56.50286607776989Z" fill="white"></path><path d="M72.48916213461591 95.93350007572276C54.51244093798741 95.93350007572276 37.58147288689979 91.87353195674577 24.811728814251197 84.50633831710951C11.926278021251113 77.06676558148116 4.794216610353303 67.13036361721535 4.732719337068989 56.52457980656751C4.69291083427334 49.566203267741756 7.8446211317854555 42.701919553705714 13.84048048546123 36.680727516432704C14.028641176731702 36.48904770359848 14.318107644082135 36.4239065172056 14.560552657346674 36.51076143239611L72.38408765388257 55.81526466584503L139.07293878554617 55.80078884664661C139.46004215755906 55.80078884664661 139.77501601666944 56.115762705757014 139.77851017992424 56.50286607776989C139.81844347426468 63.51190798379011 136.68842194724127 70.38692377068014 130.72513318676192 76.38640207915552C118.7516340449532 88.43252990004596 96.43616041823334 95.92276800286875 72.48916213461591 95.93350007572276ZM14.5316259772588 37.983301661200706C9.006180830913685 43.65707403771167 6.1077474527559605 50.054637374143546 6.143937000752006 56.51010398736909C6.201840277545677 66.59475830687389 13.080599810780134 76.10062944153158 25.517375083556146 83.2796374315884C38.073650739646 90.5275303543825 54.75478611801609 94.51886312371184 72.48916213461591 94.51886312371184C96.0707707750181 94.51162521411263 118.00238560989025 87.176877376128 129.72655124516072 75.3840763912099C135.21937588169143 69.85880595302751 138.1936575607871 63.587781243036986 138.3601294815689 57.20494330889316L72.26828110029523 57.21941912809157C72.19240784104835 57.21941912809157 72.11628499871185 57.20843747214795 72.04390590271974 57.183229580095535L14.5316259772588 37.983301661200706Z" fill="#040112"></path></svg> 