<?xml version="1.0" encoding="UTF-8"?> <svg xmlns="http://www.w3.org/2000/svg" width="125" height="65" viewBox="0 0 125 65" fill="none"><path d="M59.688 48.5693H62.433V60.3452H60.054V51.9002L56.8099 56.8629H56.5937L53.3663 51.9002V60.3452H50.9873V48.5693H53.7156L56.7101 53.0946L59.688 48.5693Z" fill="#00FFF8"></path><path d="M71.4661 51.0927H73.8451L73.8284 60.3452H71.4495V59.1003C70.8173 59.9751 69.869 60.547 68.5881 60.547C66.1925 60.547 64.4124 58.562 64.4124 55.7189C64.4124 52.8591 66.2257 50.8908 68.5714 50.8908C69.869 50.8908 70.8339 51.4964 71.4661 52.388V51.0927ZM69.1204 58.2592C70.4513 58.2592 71.4661 57.2498 71.4661 55.7189C71.4661 54.2049 70.4513 53.1787 69.1204 53.1787C67.7895 53.1787 66.808 54.2049 66.808 55.7189C66.808 57.2498 67.8062 58.2592 69.1204 58.2592Z" fill="white"></path><path d="M82.2292 51.0927H84.7745L78.8188 64.5508H76.2901L78.6857 59.1171L75.1588 51.0927H77.6875L79.95 56.5096L82.2292 51.0927Z" fill="white"></path><path d="M91.1144 49.2927C90.0331 49.2927 89.5007 49.8646 89.5007 51.059V51.0927H92.5451V53.3638H89.5007V60.3452H87.1217V53.3638H85.4914V51.0927H87.1217V50.9413C87.1217 48.3001 88.9517 47.1898 90.8482 47.1898C91.5636 47.1898 92.4287 47.3412 93.0109 47.6104L92.5784 49.5618L92.2623 49.4777C91.863 49.3599 91.4638 49.2927 91.1144 49.2927Z" fill="white"></path><path d="M99.3876 48.5693C101.883 48.5693 103.53 50.0497 103.53 52.5226C103.53 54.9956 101.883 56.5432 99.3876 56.5432H96.8756V60.3452H94.4966V48.5693H99.3876ZM99.2878 54.2554C100.519 54.2554 101.118 53.5824 101.118 52.5563C101.118 51.5133 100.519 50.8572 99.2878 50.8572H96.8756V54.2554H99.2878Z" fill="#00FFF8"></path><path d="M111.692 51.0927H114.071L114.054 60.3452H111.675V59.1003C111.043 59.9751 110.095 60.547 108.814 60.547C106.418 60.547 104.638 58.562 104.638 55.7189C104.638 52.8591 106.451 50.8908 108.797 50.8908C110.095 50.8908 111.06 51.4964 111.692 52.388V51.0927ZM109.346 58.2592C110.677 58.2592 111.692 57.2498 111.692 55.7189C111.692 54.2049 110.677 53.1787 109.346 53.1787C108.015 53.1787 107.034 54.2049 107.034 55.7189C107.034 57.2498 108.032 58.2592 109.346 58.2592Z" fill="white"></path><path d="M122.455 51.0927H125L119.044 64.5508H116.516L118.911 59.1171L115.384 51.0927H117.913L120.176 56.5096L122.455 51.0927Z" fill="white"></path><g clip-path="url(#clip0_579_866)"><mask id="mask0_579_866" style="mask-type:luminance" maskUnits="userSpaceOnUse" x="22" y="38" width="28" height="27"><path d="M49.3289 38.9655H22.1865V64.6356H49.3289V38.9655Z" fill="white"></path></mask><g mask="url(#mask0_579_866)"><path d="M32.2526 58.5761C31.7079 59.6015 32.1485 60.6985 31.5263 61.0757C29.3148 62.4163 28.6147 58.4924 29.3994 57.1926C30.1841 55.8927 34.0325 55.0906 34.1125 56.5989C34.2713 59.5896 32.8711 57.5739 32.2526 58.5761Z" fill="#00FFF8"></path><path d="M40.2204 55.9094C39.7238 54.7829 38.483 54.3584 38.5928 53.6224C38.9831 51.0062 42.8141 53.1929 43.3784 54.6927C43.9426 56.1924 41.9582 59.6835 40.6166 58.6987C37.9566 56.7462 40.6461 57.0759 40.2204 55.9094Z" fill="#00FFF8"></path><path d="M39.9206 47.156C39.424 46.0295 38.1832 45.605 38.293 44.8689C38.6833 42.2528 42.5143 44.4395 43.0786 45.9392C43.6428 47.4389 41.6584 50.9301 40.3168 49.9453C37.6568 47.9928 40.3463 48.3225 39.9206 47.156Z" fill="#00FFF8"></path><path d="M34.8265 43.2008C34.0448 44.1719 34.4946 45.6034 33.7661 45.8825C31.1768 46.8744 31.2573 42.6431 32.3467 41.4296C33.4361 40.2162 37.6966 39.5907 37.3963 41.6818C36.9926 44.4933 35.6805 42.2678 34.8265 43.2008Z" fill="#00FFF8"></path><path d="M31.96 50.4498C31.4342 51.4396 31.8595 52.4984 31.259 52.8625C29.1243 54.1565 28.4486 50.3691 29.206 49.1144C29.9634 47.8598 33.678 47.0855 33.7553 48.5414C33.9085 51.4281 32.557 49.4825 31.96 50.4498Z" fill="#00FFF8"></path><path d="M39.7082 62.9159H31.8097C31.4574 62.9159 31.1719 63.186 31.1719 63.5191C31.1719 63.8523 31.4574 64.1224 31.8097 64.1224H39.7082C40.0604 64.1224 40.346 63.8523 40.346 63.5191C40.346 63.186 40.0604 62.9159 39.7082 62.9159Z" fill="white"></path><path d="M36.1038 61.3859L33.6559 59.0708C33.3983 58.8272 32.9806 58.8272 32.723 59.0708L32.723 59.0708C32.4653 59.3145 32.4653 59.7095 32.723 59.9532L35.1708 62.2683C35.4285 62.512 35.8462 62.512 36.1038 62.2683C36.3614 62.0246 36.3614 61.6296 36.1038 61.3859Z" fill="white"></path><path d="M36.0323 53.2074L33.6559 50.96C33.3983 50.7163 32.9806 50.7163 32.723 50.96L32.723 50.96C32.4653 51.2036 32.4653 51.5987 32.723 51.8424L35.0993 54.0898C35.3569 54.3335 35.7746 54.3335 36.0323 54.0898C36.2899 53.8461 36.2899 53.4511 36.0323 53.2074Z" fill="white"></path><path d="M36.7796 58.835L39.3441 56.4096C39.6017 56.1659 39.6017 55.7709 39.3441 55.5272L39.3441 55.5272C39.0864 55.2835 38.6687 55.2835 38.4111 55.5272L35.8466 57.9526C35.5889 58.1963 35.5889 58.5913 35.8466 58.835C36.1042 59.0786 36.5219 59.0786 36.7796 58.835Z" fill="white"></path><path d="M36.4432 50.1424L39.0706 47.6575C39.3283 47.4138 39.3283 47.0188 39.0706 46.7751L39.0706 46.7751C38.813 46.5315 38.3953 46.5315 38.1376 46.7751L35.5102 49.2601C35.2525 49.5037 35.2525 49.8988 35.5102 50.1424C35.7678 50.3861 36.1855 50.3861 36.4432 50.1424Z" fill="white"></path><path d="M35.7592 43.5856C36.164 43.5856 36.4921 43.8959 36.4921 44.2787V63.4286C36.4921 63.8114 36.164 64.1217 35.7592 64.1217C35.3545 64.1217 35.0264 63.8114 35.0264 63.4286V44.2787C35.0264 43.8959 35.3545 43.5856 35.7592 43.5856Z" fill="white"></path><path d="M39.2349 63.4307C39.8658 62.7953 37.6168 63.356 36.9448 62.7591C36.2727 62.1622 36.6925 60.707 36.0616 61.3424C35.4307 61.9777 35.464 62.9766 36.136 63.5735C36.808 64.1704 38.604 64.066 39.2349 63.4307Z" fill="white"></path><path d="M32.5986 63.4862C31.9518 62.8744 34.1201 63.2061 34.7671 62.5942C35.5135 61.8882 32.5007 59.8988 35.8935 61.054C36.5404 61.6657 36.3248 62.9246 35.6777 63.5366C35.0307 64.1486 33.2454 64.0979 32.5986 63.4862Z" fill="white"></path><path d="M36.1098 55.7544C35.4981 55.7544 35.0218 55.021 35.0218 54.4459C35.0218 53.8708 33.9511 53.2388 34.5628 53.2388C35.1745 53.2388 35.6705 53.705 35.6705 54.2801C35.6705 54.8551 36.7216 55.7544 36.1098 55.7544Z" fill="white"></path><path d="M35.0463 61.427C35.8906 61.427 36.3158 61.1318 36.5481 59.6111C36.6687 58.8213 38.026 57.9359 37.1816 57.9359C36.3372 57.9359 35.6527 58.5829 35.6527 59.381C35.6527 60.179 34.2019 61.427 35.0463 61.427Z" fill="white"></path><path d="M34.9265 52.4419C35.6503 52.4419 36.2138 51.5662 36.2138 50.8797C36.2138 50.1931 37.4806 49.4385 36.7568 49.4385C36.0331 49.4385 35.4463 49.9951 35.4463 50.6817C35.4463 51.3682 34.2028 52.4419 34.9265 52.4419Z" fill="white"></path><path d="M33.3833 50.8244C34.0349 50.9451 36.0706 53.9292 36.1982 53.3129C36.3258 52.6966 36.5863 50.4758 35.9347 50.3551C35.283 50.2345 35.442 51.0212 35.3144 51.6374C35.1868 52.2537 32.7316 50.7038 33.3833 50.8244Z" fill="white"></path><path d="M33.396 58.964C34.0476 59.0846 36.0833 62.0688 36.2109 61.4525C36.3385 60.8362 36.599 58.6153 35.9474 58.4947C35.2957 58.374 35.4546 59.1607 35.327 59.777C35.1995 60.3933 32.7443 58.8433 33.396 58.964Z" fill="white"></path><path d="M38.1161 55.8822C37.5667 56.0777 36.2544 58.9616 36.0477 58.442C35.8409 57.9223 35.2696 56.0223 35.819 55.8267C36.3684 55.6312 36.3518 56.3391 36.5586 56.8587C36.7653 57.3783 38.6655 55.6867 38.1161 55.8822Z" fill="white"></path><path d="M37.7353 47.3342C37.1859 47.5298 35.8736 50.4136 35.6668 49.894C35.4601 49.3744 34.8888 47.4743 35.4381 47.2788C35.9876 47.0832 35.971 47.7911 36.1777 48.3107C36.3844 48.8303 38.2847 47.1387 37.7353 47.3342Z" fill="white"></path></g></g><path d="M17.1234 51.5796H19.6678L13.7143 64.8836H11.1865L13.5812 59.5121L10.0557 51.5796H12.5834L14.8451 56.9345L17.1234 51.5796Z" fill="white"></path><path d="M5.27172 51.3801C6.458 51.3801 7.45026 51.8291 8.2485 52.7271C9.04674 53.614 9.44586 54.756 9.44586 56.1529C9.44586 57.5498 9.04674 58.6973 8.2485 59.5953C7.46134 60.4822 6.46909 60.9257 5.27172 60.9257C4.05219 60.9257 3.08764 60.449 2.3781 59.4955V60.7261H0V47.921H2.3781V52.8601C3.08764 51.8734 4.05219 51.3801 5.27172 51.3801ZM4.72293 58.664C5.38813 58.664 5.93692 58.4312 6.36931 57.9656C6.81277 57.4999 7.03451 56.8957 7.03451 56.1529C7.03451 55.4101 6.81832 54.8059 6.38594 54.3402C5.95355 53.8746 5.39922 53.6418 4.72293 53.6418C4.04664 53.6418 3.48677 53.8746 3.0433 54.3402C2.59983 54.8059 2.3781 55.4101 2.3781 56.1529C2.3781 56.8957 2.59983 57.4999 3.0433 57.9656C3.48677 58.4312 4.04664 58.664 4.72293 58.664Z" fill="white"></path><path d="M3.35928 33.3225C2.90464 33.3225 2.46684 33.2384 2.04588 33.0703C1.64175 32.9021 1.28814 32.6667 0.985051 32.364C0.681959 32.0613 0.437801 31.7081 0.252577 31.3045C0.0841924 30.9009 0 30.4721 0 30.018V3.3045C0 2.85045 0.0841924 2.42162 0.252577 2.01802C0.437801 1.61441 0.681959 1.26126 0.985051 0.958558C1.28814 0.655856 1.64175 0.42042 2.04588 0.252252C2.46684 0.0840841 2.90464 0 3.35928 0C4.30223 0 5.09364 0.31952 5.7335 0.958558C6.0366 1.26126 6.27234 1.61441 6.44072 2.01802C6.62594 2.42162 6.71856 2.85045 6.71856 3.3045V11.7045L18.716 0.933333C19.44 0.311111 20.2062 0 21.0144 0C21.4354 0 21.8479 0.0924925 22.2521 0.277477C22.673 0.445646 23.0435 0.681081 23.3634 0.983784C23.6833 1.3033 23.9359 1.67327 24.1211 2.09369C24.3232 2.51411 24.4242 2.95976 24.4242 3.43063C24.4242 4.35556 24.079 5.15435 23.3887 5.82703L11.6943 16.245L23.8686 27.5964C24.5084 28.2354 24.8283 29.009 24.8283 29.9171C24.8283 30.3712 24.7357 30.8084 24.5505 31.2288C24.3821 31.6324 24.1464 31.9856 23.8433 32.2883C23.5234 32.6078 23.1529 32.8601 22.732 33.045C22.311 33.23 21.8816 33.3225 21.4438 33.3225C20.5514 33.3225 19.7684 32.9862 19.0948 32.3135L6.71856 20.836V30.018C6.71856 30.4721 6.62594 30.9009 6.44072 31.3045C6.27234 31.7081 6.0366 32.0613 5.7335 32.364C5.09364 33.003 4.30223 33.3225 3.35928 33.3225Z" fill="white"></path><path d="M31.3196 33.3225C30.8649 33.3225 30.4271 33.2384 30.0062 33.0703C29.5852 32.9021 29.2232 32.6667 28.9201 32.364C28.6002 32.0613 28.3476 31.7081 28.1624 31.3045C27.9771 30.9009 27.8845 30.4721 27.8845 30.018V21.5423C27.935 19.8607 28.2971 18.2631 28.9706 16.7495C29.661 15.2192 30.5955 13.8739 31.7742 12.7135C32.9361 11.57 34.2747 10.6703 35.7902 10.0144C37.3225 9.35856 38.939 9.01381 40.6397 8.98018H40.8417C41.9362 8.98018 42.7866 9.29129 43.3928 9.91351C44.0158 10.5189 44.3273 11.3177 44.3273 12.3099C44.3273 13.2348 43.9905 14.0336 43.317 14.7063C42.9971 15.009 42.6182 15.2444 42.1804 15.4126C41.7594 15.5808 41.3132 15.6649 40.8417 15.6649H40.6902C39.8651 15.6817 39.0905 15.8498 38.3665 16.1694C37.6424 16.4889 37.0026 16.9345 36.4469 17.5063C35.8744 18.0781 35.4282 18.7339 35.1082 19.4739C34.7883 20.2138 34.6199 20.9958 34.6031 21.8198V30.018C34.6031 30.4889 34.5189 30.9261 34.3505 31.3297C34.1821 31.7333 33.9464 32.0781 33.6433 32.364C33.0034 33.003 32.2289 33.3225 31.3196 33.3225Z" fill="white"></path><path d="M57.6129 33.6C55.9459 33.6 54.3546 33.2805 52.8392 32.6414C51.3237 32.0024 49.9935 31.1195 48.8484 29.9928C47.7034 28.8492 46.8026 27.5375 46.1459 26.0577C45.506 24.561 45.1861 22.9802 45.1861 21.3153C45.1861 19.6336 45.506 18.0444 46.1459 16.5477C46.8026 15.0342 47.7034 13.7057 48.8484 12.5622C49.9935 11.4354 51.3153 10.561 52.8139 9.93874C54.3294 9.2997 55.929 8.98018 57.6129 8.98018C59.2631 8.98018 60.8374 9.29129 62.3361 9.91351C63.8347 10.5357 65.1565 11.4018 66.3015 12.5117C67.4297 13.6384 68.3222 14.9501 68.9789 16.4468C69.6356 17.9267 69.9807 19.4907 70.0144 21.1387C70.0144 22.0973 69.7029 22.8709 69.0799 23.4595C68.4737 24.0312 67.6823 24.3171 66.7057 24.3171H52.6876C53.2433 25.1916 53.9505 25.8811 54.8093 26.3856C55.668 26.8901 56.6026 27.1423 57.6129 27.1423C58.2359 27.1423 58.7495 27.0919 59.1536 26.991C59.5577 26.8901 59.9282 26.7387 60.2649 26.5369C60.9048 26.1333 61.5531 25.9315 62.2098 25.9315C63.1191 25.9315 63.9021 26.2763 64.5588 26.9658C64.845 27.2853 65.0723 27.6553 65.2407 28.0757C65.4091 28.4961 65.4933 28.9333 65.4933 29.3874C65.4933 29.976 65.3249 30.5225 64.9881 31.027C64.6682 31.5315 64.1883 31.9688 63.5484 32.3387C62.0835 33.1796 60.105 33.6 57.6129 33.6ZM63.1191 18.7171C62.6476 17.6913 61.932 16.8841 60.9722 16.2955C60.0292 15.6901 58.9515 15.3874 57.7392 15.3874C56.5268 15.3874 55.466 15.6901 54.5567 16.2955C53.6474 16.9009 52.957 17.7081 52.4856 18.7171H63.1191Z" fill="white"></path><path d="M84.5881 33.6C82.9211 33.6 81.3383 33.2889 79.8397 32.6667C78.3579 32.0276 77.0445 31.1363 75.8995 29.9928C74.7545 28.8661 73.862 27.5544 73.2222 26.0577C72.5823 24.561 72.2624 22.9802 72.2624 21.3153C72.2624 19.6504 72.5823 18.0697 73.2222 16.573C73.862 15.0595 74.7545 13.7309 75.8995 12.5874C77.0445 11.4438 78.3579 10.561 79.8397 9.93874C81.3383 9.2997 82.9211 8.98018 84.5881 8.98018C86.0026 8.98018 87.1476 9.15676 88.0232 9.50991C88.9156 9.86306 89.6397 10.4012 90.1954 11.1243V3.50631C90.1954 2.51411 90.5153 1.68168 91.1551 1.00901C91.7782 0.353153 92.5696 0.0252252 93.5294 0.0252252C93.984 0.0252252 94.4218 0.117718 94.8428 0.302703C95.2637 0.470871 95.6258 0.706306 95.9289 1.00901C96.232 1.32853 96.4677 1.70691 96.6361 2.14414C96.8213 2.56456 96.9139 3.01862 96.9139 3.50631V21.3153C96.9139 22.9802 96.594 24.561 95.9541 26.0577C95.3311 27.5375 94.4471 28.8492 93.3021 29.9928C92.1739 31.1195 90.8521 32.0024 89.3366 32.6414C87.838 33.2805 86.2551 33.6 84.5881 33.6ZM84.5881 26.8649C85.3459 26.8649 86.0699 26.7219 86.7603 26.436C87.4507 26.1501 88.0484 25.755 88.5536 25.2504C89.0756 24.7291 89.4797 24.1321 89.766 23.4595C90.0522 22.7868 90.1954 22.0721 90.1954 21.3153C90.1954 20.5586 90.0522 19.8438 89.766 19.1712C89.4797 18.4985 89.0756 17.9015 88.5536 17.3802C88.0484 16.8757 87.4507 16.4805 86.7603 16.1946C86.0699 15.9087 85.3459 15.7658 84.5881 15.7658C83.8472 15.7658 83.1316 15.9087 82.4412 16.1946C81.7677 16.4805 81.1783 16.8757 80.6732 17.3802C80.1512 17.9015 79.7387 18.4985 79.4356 19.1712C79.1493 19.8438 79.0062 20.5586 79.0062 21.3153C79.0062 22.0721 79.1493 22.7868 79.4356 23.4595C79.7387 24.1321 80.1512 24.7291 80.6732 25.2504C81.1783 25.755 81.7677 26.1501 82.4412 26.436C83.1316 26.7219 83.8472 26.8649 84.5881 26.8649Z" fill="white"></path><path d="M112.624 33.6C110.957 33.6 109.374 33.2889 107.876 32.6667C106.394 32.0276 105.081 31.1363 103.936 29.9928C102.791 28.8661 101.898 27.5544 101.258 26.0577C100.618 24.561 100.298 22.9802 100.298 21.3153C100.298 19.6504 100.618 18.0697 101.258 16.573C101.898 15.0595 102.791 13.7309 103.936 12.5874C105.081 11.4438 106.394 10.561 107.876 9.93874C109.374 9.2997 110.957 8.98018 112.624 8.98018C114.291 8.98018 115.874 9.2997 117.373 9.93874C118.888 10.5778 120.21 11.4607 121.338 12.5874C122.466 13.7309 123.35 15.0595 123.99 16.573C124.63 18.0697 124.95 19.6504 124.95 21.3153C124.95 22.9802 124.63 24.561 123.99 26.0577C123.367 27.5375 122.483 28.8492 121.338 29.9928C120.21 31.1195 118.888 32.0024 117.373 32.6414C115.874 33.2805 114.291 33.6 112.624 33.6ZM112.624 26.8649C113.382 26.8649 114.106 26.7219 114.796 26.436C115.487 26.1501 116.085 25.755 116.59 25.2504C117.112 24.7291 117.516 24.1321 117.802 23.4595C118.088 22.7868 118.231 22.0721 118.231 21.3153C118.231 20.5586 118.088 19.8438 117.802 19.1712C117.516 18.4985 117.112 17.9015 116.59 17.3802C116.085 16.8757 115.487 16.4805 114.796 16.1946C114.106 15.9087 113.382 15.7658 112.624 15.7658C111.883 15.7658 111.168 15.9087 110.477 16.1946C109.804 16.4805 109.214 16.8757 108.709 17.3802C108.187 17.9015 107.775 18.4985 107.472 19.1712C107.185 19.8438 107.042 20.5586 107.042 21.3153C107.042 22.0721 107.185 22.7868 107.472 23.4595C107.775 24.1321 108.187 24.7291 108.709 25.2504C109.214 25.755 109.804 26.1501 110.477 26.436C111.168 26.7219 111.883 26.8649 112.624 26.8649Z" fill="white"></path><defs><clipPath id="clip0_579_866"><rect width="16.4473" height="25.5847" fill="white" transform="translate(28.1436 38.9663)"></rect></clipPath></defs></svg> 