<?xml version="1.0" encoding="UTF-8"?> <svg xmlns="http://www.w3.org/2000/svg" width="265" height="41" viewBox="0 0 265 41" fill="none"><rect width="265" height="41" rx="8" fill="#122442"></rect><path d="M27.2871 18.3984L25.0941 19.3443C23.8645 19.877 22.9118 20.807 22.432 21.9432L21.1772 24.8747C21.1477 24.9496 21.092 25.0143 21.0182 25.0592C20.9443 25.104 20.8562 25.1268 20.7667 25.1242C20.6779 25.1241 20.5912 25.1002 20.518 25.0557C20.4448 25.0112 20.3884 24.9481 20.3563 24.8747L19.1132 21.9432C18.6334 20.807 17.6807 19.877 16.4511 19.3443L14.2581 18.3984C14.1814 18.369 14.1162 18.3203 14.0703 18.2584C14.0244 18.1966 14 18.1241 14 18.0501C14 17.9761 14.0244 17.9037 14.0703 17.8418C14.1162 17.7799 14.1814 17.7313 14.2581 17.7019L16.4511 16.7569C17.6807 16.2243 18.6334 15.2942 19.1132 14.1581L20.3563 11.2266C20.394 11.1586 20.4524 11.1013 20.525 11.0613C20.5975 11.0212 20.6813 11 20.7667 11C20.8522 11 20.936 11.0212 21.0085 11.0613C21.081 11.1013 21.1395 11.1586 21.1772 11.2266L22.432 14.1581C22.9118 15.2942 23.8645 16.2243 25.0941 16.7569L27.2871 17.7029C27.3608 17.7333 27.4232 17.7817 27.4668 17.8425C27.5105 17.9033 27.5336 17.9739 27.5334 18.046C27.535 18.1195 27.5126 18.1919 27.4689 18.2544C27.4252 18.3169 27.3621 18.3669 27.2871 18.3984ZM35.7425 24.8955L34.3117 24.2821C33.5436 23.9497 32.9479 23.3695 32.6465 22.6605L31.8373 20.7477C31.7996 20.6797 31.7411 20.6225 31.6686 20.5824C31.596 20.5424 31.5123 20.5211 31.4268 20.5211C31.3414 20.5211 31.2576 20.5424 31.1851 20.5824C31.1125 20.6225 31.0541 20.6797 31.0164 20.7477L30.2072 22.6605C29.9058 23.3695 29.3101 23.9497 28.5419 24.2821L27.1112 24.8955C27.0371 24.9283 26.9748 24.9787 26.9312 25.0411C26.8876 25.1036 26.8646 25.1755 26.8646 25.2489C26.8646 25.3223 26.8876 25.3943 26.9312 25.4567C26.9748 25.5191 27.0371 25.5696 27.1112 25.6024L28.5419 26.2157C29.3101 26.5482 29.9058 27.1283 30.2072 27.8374L31.0164 29.7501C31.0483 29.8237 31.1046 29.8869 31.1779 29.9315C31.2511 29.9761 31.3379 30 31.4268 30C31.5157 30 31.6025 29.9761 31.6758 29.9315C31.7491 29.8869 31.8054 29.8237 31.8373 29.7501L32.6465 27.8374C32.9481 27.1287 33.5438 26.5489 34.3117 26.2167L35.7425 25.6034C35.8192 25.5727 35.8843 25.523 35.93 25.4603C35.9757 25.3976 36 25.3246 36 25.25C36 25.1753 35.9757 25.1023 35.93 25.0396C35.8843 24.9769 35.8192 24.9262 35.7425 24.8955Z" fill="#33D1FF"></path><path d="M53.5527 15.0703H56.4922C57.6315 15.0703 58.6406 15.3177 59.5195 15.8125C60.3984 16.3008 61.0885 16.9844 61.5898 17.8633C62.0977 18.7422 62.3516 19.7741 62.3516 20.959C62.3516 22.1113 62.0977 23.1237 61.5898 23.9961C61.0885 24.862 60.3984 25.5358 59.5195 26.0176C58.6406 26.4993 57.6315 26.7402 56.4922 26.7402H53.5527C52.4134 26.7402 51.401 26.5026 50.5156 26.0273C49.6367 25.5456 48.9466 24.8717 48.4453 24.0059C47.944 23.14 47.6934 22.1276 47.6934 20.9688C47.6934 19.7773 47.944 18.7422 48.4453 17.8633C48.9531 16.9844 49.6465 16.3008 50.5254 15.8125C51.4108 15.3177 52.4199 15.0703 53.5527 15.0703ZM53.5527 17.3066C52.8691 17.3066 52.2734 17.4499 51.7656 17.7363C51.2578 18.0163 50.8672 18.4264 50.5938 18.9668C50.3203 19.5072 50.1803 20.1745 50.1738 20.9688C50.1803 21.724 50.3203 22.3652 50.5938 22.8926C50.8737 23.4199 51.2676 23.8203 51.7754 24.0938C52.2832 24.3672 52.8757 24.5039 53.5527 24.5039H56.5117C57.1953 24.5039 57.7845 24.3672 58.2793 24.0938C58.7806 23.8138 59.168 23.4102 59.4414 22.8828C59.7148 22.349 59.8516 21.7077 59.8516 20.959C59.8516 20.1777 59.7148 19.5169 59.4414 18.9766C59.168 18.4297 58.7806 18.0163 58.2793 17.7363C57.7845 17.4499 57.1953 17.3066 56.5117 17.3066H53.5527ZM56.2969 13.1953V28.6055H53.7578V13.1953H56.2969ZM66.4531 24.5137L70.8281 17.082H73.4648V28H70.9941V20.5586L66.6289 28H63.9824V17.082H66.4531V24.5137ZM82.8496 21.4766V23.5859H77.0586V21.4766H82.8496ZM77.8398 17.082V28H75.3691V17.082H77.8398ZM84.5488 17.082V28H82.0781V17.082H84.5488ZM89.5879 28.2246C88.8913 28.2246 88.2663 28.1009 87.7129 27.8535C87.1595 27.5996 86.7233 27.2285 86.4043 26.7402C86.0853 26.252 85.9258 25.6497 85.9258 24.9336C85.9258 24.3216 86.0397 23.8138 86.2676 23.4102C86.4954 23.0065 86.8047 22.6842 87.1953 22.4434C87.5924 22.2025 88.0384 22.0202 88.5332 21.8965C89.028 21.7663 89.5391 21.6751 90.0664 21.623C90.7109 21.5514 91.2318 21.4896 91.6289 21.4375C92.026 21.3854 92.3125 21.3008 92.4883 21.1836C92.6706 21.0664 92.7617 20.8841 92.7617 20.6367V20.5879C92.7617 20.0605 92.6055 19.6504 92.293 19.3574C91.9805 19.0645 91.5247 18.918 90.9258 18.918C90.2943 18.918 89.793 19.0547 89.4219 19.3281C89.0573 19.6016 88.8099 19.9238 88.6797 20.2949L86.2871 19.9531C86.4759 19.2891 86.7884 18.7357 87.2246 18.293C87.6608 17.8438 88.1914 17.5085 88.8164 17.2871C89.4479 17.0592 90.1445 16.9453 90.9062 16.9453C91.4271 16.9453 91.9479 17.0072 92.4688 17.1309C92.9896 17.248 93.4681 17.4499 93.9043 17.7363C94.3405 18.0228 94.6888 18.4069 94.9492 18.8887C95.2096 19.3704 95.3398 19.9727 95.3398 20.6953V28H92.8691V26.4961H92.791C92.6348 26.7956 92.4134 27.0788 92.127 27.3457C91.847 27.6061 91.4954 27.8177 91.0723 27.9805C90.6556 28.1432 90.1608 28.2246 89.5879 28.2246ZM90.2422 26.3301C90.763 26.3301 91.2122 26.2292 91.5898 26.0273C91.9674 25.819 92.2604 25.5456 92.4688 25.207C92.6771 24.862 92.7812 24.4876 92.7812 24.084V22.8047C92.6966 22.8698 92.5599 22.9316 92.3711 22.9902C92.1823 23.0423 91.9674 23.0911 91.7266 23.1367C91.4857 23.1823 91.248 23.2214 91.0137 23.2539C90.7858 23.2865 90.5872 23.3125 90.418 23.332C90.0339 23.3841 89.6888 23.472 89.3828 23.5957C89.0833 23.7129 88.8457 23.8757 88.6699 24.084C88.4941 24.2923 88.4062 24.5625 88.4062 24.8945C88.4062 25.3698 88.5788 25.7279 88.9238 25.9688C89.2689 26.2096 89.7083 26.3301 90.2422 26.3301ZM104.725 21.4766V23.5859H98.9336V21.4766H104.725ZM99.7148 17.082V28H97.2441V17.082H99.7148ZM106.424 17.082V28H103.953V17.082H106.424ZM113.074 28.2148C111.987 28.2148 111.053 27.9772 110.271 27.502C109.49 27.0202 108.891 26.3561 108.475 25.5098C108.058 24.6634 107.85 23.6901 107.85 22.5898C107.85 21.4766 108.061 20.4967 108.484 19.6504C108.908 18.804 109.51 18.1432 110.291 17.668C111.072 17.1862 111.993 16.9453 113.055 16.9453C113.947 16.9453 114.734 17.1081 115.418 17.4336C116.102 17.7591 116.645 18.2181 117.049 18.8105C117.459 19.3965 117.693 20.0833 117.752 20.8711H115.291C115.226 20.5195 115.099 20.2038 114.91 19.9238C114.721 19.6439 114.474 19.4225 114.168 19.2598C113.868 19.097 113.51 19.0156 113.094 19.0156C112.566 19.0156 112.104 19.1589 111.707 19.4453C111.316 19.7253 111.01 20.1289 110.789 20.6562C110.568 21.1836 110.457 21.8151 110.457 22.5508C110.457 23.293 110.564 23.9342 110.779 24.4746C110.994 25.0085 111.3 25.4219 111.697 25.7148C112.094 26.0013 112.56 26.1445 113.094 26.1445C113.66 26.1445 114.139 25.9785 114.529 25.6465C114.926 25.3145 115.18 24.8555 115.291 24.2695H117.752C117.693 25.0443 117.465 25.7279 117.068 26.3203C116.671 26.9128 116.134 27.3783 115.457 27.7168C114.78 28.0488 113.986 28.2148 113.074 28.2148ZM120.887 20.6465H124.1C125.486 20.64 126.561 20.9785 127.322 21.6621C128.09 22.3392 128.475 23.2246 128.475 24.3184C128.475 25.0345 128.302 25.6693 127.957 26.2227C127.612 26.776 127.114 27.2122 126.463 27.5312C125.812 27.8438 125.024 28 124.1 28H119.139V17.082H121.609V25.8906H124.1C124.653 25.8906 125.109 25.7507 125.467 25.4707C125.831 25.1842 126.014 24.8132 126.014 24.3574C126.014 23.8822 125.831 23.4948 125.467 23.1953C125.109 22.8958 124.653 22.7493 124.1 22.7559H120.887V20.6465ZM129.842 28V17.082H132.41V28H129.842ZM146.014 21.4766V23.5859H140.223V21.4766H146.014ZM141.004 17.082V28H138.533V17.082H141.004ZM147.713 17.082V28H145.242V17.082H147.713ZM152.752 28.2246C152.055 28.2246 151.43 28.1009 150.877 27.8535C150.324 27.5996 149.887 27.2285 149.568 26.7402C149.249 26.252 149.09 25.6497 149.09 24.9336C149.09 24.3216 149.204 23.8138 149.432 23.4102C149.66 23.0065 149.969 22.6842 150.359 22.4434C150.757 22.2025 151.202 22.0202 151.697 21.8965C152.192 21.7663 152.703 21.6751 153.23 21.623C153.875 21.5514 154.396 21.4896 154.793 21.4375C155.19 21.3854 155.477 21.3008 155.652 21.1836C155.835 21.0664 155.926 20.8841 155.926 20.6367V20.5879C155.926 20.0605 155.77 19.6504 155.457 19.3574C155.145 19.0645 154.689 18.918 154.09 18.918C153.458 18.918 152.957 19.0547 152.586 19.3281C152.221 19.6016 151.974 19.9238 151.844 20.2949L149.451 19.9531C149.64 19.2891 149.952 18.7357 150.389 18.293C150.825 17.8438 151.355 17.5085 151.98 17.2871C152.612 17.0592 153.309 16.9453 154.07 16.9453C154.591 16.9453 155.112 17.0072 155.633 17.1309C156.154 17.248 156.632 17.4499 157.068 17.7363C157.505 18.0228 157.853 18.4069 158.113 18.8887C158.374 19.3704 158.504 19.9727 158.504 20.6953V28H156.033V26.4961H155.955C155.799 26.7956 155.577 27.0788 155.291 27.3457C155.011 27.6061 154.66 27.8177 154.236 27.9805C153.82 28.1432 153.325 28.2246 152.752 28.2246ZM153.406 26.3301C153.927 26.3301 154.376 26.2292 154.754 26.0273C155.132 25.819 155.424 25.5456 155.633 25.207C155.841 24.862 155.945 24.4876 155.945 24.084V22.8047C155.861 22.8698 155.724 22.9316 155.535 22.9902C155.346 23.0423 155.132 23.0911 154.891 23.1367C154.65 23.1823 154.412 23.2214 154.178 23.2539C153.95 23.2865 153.751 23.3125 153.582 23.332C153.198 23.3841 152.853 23.472 152.547 23.5957C152.247 23.7129 152.01 23.8757 151.834 24.084C151.658 24.2923 151.57 24.5625 151.57 24.8945C151.57 25.3698 151.743 25.7279 152.088 25.9688C152.433 26.2096 152.872 26.3301 153.406 26.3301ZM160.408 17.082H162.879V25.8809H166.307V17.082H168.797V25.8809H172.215V17.082H174.715V28H160.408V17.082ZM181.453 28.2148C180.359 28.2148 179.415 27.987 178.621 27.5312C177.827 27.069 177.215 26.418 176.785 25.5781C176.362 24.7383 176.15 23.7487 176.15 22.6094C176.15 21.4831 176.362 20.4967 176.785 19.6504C177.208 18.7975 177.804 18.1335 178.572 17.6582C179.34 17.1829 180.245 16.9453 181.287 16.9453C181.958 16.9453 182.592 17.0527 183.191 17.2676C183.797 17.4824 184.331 17.8145 184.793 18.2637C185.262 18.7129 185.63 19.2858 185.896 19.9824C186.163 20.6725 186.297 21.4961 186.297 22.4531V23.2539H177.352V21.5254H185.018L183.816 22.0332C183.816 21.4147 183.722 20.8776 183.533 20.4219C183.344 19.9596 183.064 19.5983 182.693 19.3379C182.322 19.0775 181.86 18.9473 181.307 18.9473C180.753 18.9473 180.281 19.0775 179.891 19.3379C179.5 19.5983 179.204 19.9499 179.002 20.3926C178.8 20.8288 178.699 21.3171 178.699 21.8574V23.0586C178.699 23.7227 178.813 24.2923 179.041 24.7676C179.275 25.2363 179.601 25.5944 180.018 25.8418C180.441 26.0892 180.932 26.2129 181.492 26.2129C181.857 26.2129 182.189 26.1608 182.488 26.0566C182.794 25.9525 183.055 25.7962 183.27 25.5879C183.491 25.373 183.66 25.1094 183.777 24.7969L186.18 25.0801C186.023 25.7116 185.734 26.265 185.311 26.7402C184.894 27.209 184.357 27.5736 183.699 27.834C183.048 28.0879 182.299 28.2148 181.453 28.2148ZM192.02 28V13.4492H194.656V20.1387H194.832L200.516 13.4492H203.729L198.104 19.9824L203.777 28H200.604L196.268 21.7695L194.656 23.6738V28H192.02ZM204.705 28V17.082H207.195V18.918H207.312C207.508 18.2799 207.85 17.7917 208.338 17.4531C208.826 17.1081 209.383 16.9355 210.008 16.9355C210.145 16.9355 210.301 16.9421 210.477 16.9551C210.659 16.9681 210.809 16.9844 210.926 17.0039V19.3672C210.815 19.3281 210.643 19.2956 210.408 19.2695C210.174 19.2435 209.949 19.2305 209.734 19.2305C209.259 19.2305 208.836 19.3314 208.465 19.5332C208.094 19.735 207.801 20.0117 207.586 20.3633C207.378 20.7148 207.273 21.125 207.273 21.5938V28H204.705ZM216.277 28.2148C215.184 28.2148 214.24 27.987 213.445 27.5312C212.651 27.069 212.039 26.418 211.609 25.5781C211.186 24.7383 210.975 23.7487 210.975 22.6094C210.975 21.4831 211.186 20.4967 211.609 19.6504C212.033 18.7975 212.628 18.1335 213.396 17.6582C214.165 17.1829 215.07 16.9453 216.111 16.9453C216.782 16.9453 217.417 17.0527 218.016 17.2676C218.621 17.4824 219.155 17.8145 219.617 18.2637C220.086 18.7129 220.454 19.2858 220.721 19.9824C220.988 20.6725 221.121 21.4961 221.121 22.4531V23.2539H212.176V21.5254H219.842L218.641 22.0332C218.641 21.4147 218.546 20.8776 218.357 20.4219C218.169 19.9596 217.889 19.5983 217.518 19.3379C217.146 19.0775 216.684 18.9473 216.131 18.9473C215.577 18.9473 215.105 19.0775 214.715 19.3379C214.324 19.5983 214.028 19.9499 213.826 20.3926C213.624 20.8288 213.523 21.3171 213.523 21.8574V23.0586C213.523 23.7227 213.637 24.2923 213.865 24.7676C214.1 25.2363 214.425 25.5944 214.842 25.8418C215.265 26.0892 215.757 26.2129 216.316 26.2129C216.681 26.2129 217.013 26.1608 217.312 26.0566C217.618 25.9525 217.879 25.7962 218.094 25.5879C218.315 25.373 218.484 25.1094 218.602 24.7969L221.004 25.0801C220.848 25.7116 220.558 26.265 220.135 26.7402C219.718 27.209 219.181 27.5736 218.523 27.834C217.872 28.0879 217.124 28.2148 216.277 28.2148ZM226.541 28.1953C225.688 28.1953 224.92 27.9772 224.236 27.541C223.559 27.0983 223.025 26.457 222.635 25.6172C222.244 24.7773 222.049 23.7585 222.049 22.5605C222.049 21.3431 222.247 20.3177 222.645 19.4844C223.048 18.651 223.589 18.0195 224.266 17.5898C224.943 17.1602 225.701 16.9453 226.541 16.9453C227.186 16.9453 227.713 17.0527 228.123 17.2676C228.533 17.4824 228.859 17.7428 229.1 18.0488C229.347 18.3483 229.536 18.6283 229.666 18.8887H229.773V13.4492H232.332V28H229.822V26.2715H229.666C229.529 26.5384 229.337 26.8216 229.09 27.1211C228.842 27.4141 228.514 27.668 228.104 27.8828C227.693 28.0911 227.173 28.1953 226.541 28.1953ZM227.254 26.0859C227.801 26.0859 228.263 25.9395 228.641 25.6465C229.025 25.347 229.318 24.9336 229.52 24.4062C229.721 23.8724 229.822 23.2539 229.822 22.5508C229.822 21.8411 229.721 21.2259 229.52 20.7051C229.324 20.1777 229.035 19.7708 228.65 19.4844C228.273 19.1979 227.807 19.0547 227.254 19.0547C226.688 19.0547 226.212 19.2044 225.828 19.5039C225.444 19.8034 225.154 20.2168 224.959 20.7441C224.77 21.2715 224.676 21.8737 224.676 22.5508C224.676 23.2279 224.773 23.8333 224.969 24.3672C225.164 24.901 225.451 25.321 225.828 25.627C226.212 25.9329 226.688 26.0859 227.254 26.0859ZM238.992 28.2148C237.924 28.2148 237 27.9805 236.219 27.5117C235.438 27.043 234.832 26.3854 234.402 25.5391C233.979 24.6927 233.768 23.7096 233.768 22.5898C233.768 21.4635 233.979 20.4772 234.402 19.6309C234.832 18.778 235.438 18.1172 236.219 17.6484C237 17.1797 237.924 16.9453 238.992 16.9453C240.06 16.9453 240.984 17.1797 241.766 17.6484C242.547 18.1172 243.152 18.778 243.582 19.6309C244.012 20.4772 244.227 21.4635 244.227 22.5898C244.227 23.7096 244.012 24.6927 243.582 25.5391C243.152 26.3854 242.547 27.043 241.766 27.5117C240.984 27.9805 240.06 28.2148 238.992 28.2148ZM238.992 26.1445C239.585 26.1445 240.073 25.9883 240.457 25.6758C240.841 25.3568 241.128 24.9271 241.316 24.3867C241.512 23.8464 241.609 23.2474 241.609 22.5898C241.609 21.9193 241.512 21.3138 241.316 20.7734C241.128 20.2331 240.841 19.8066 240.457 19.4941C240.073 19.1751 239.585 19.0156 238.992 19.0156C238.413 19.0156 237.928 19.1751 237.537 19.4941C237.146 19.8066 236.854 20.2331 236.658 20.7734C236.469 21.3138 236.375 21.9193 236.375 22.5898C236.375 23.2474 236.469 23.8464 236.658 24.3867C236.854 24.9271 237.146 25.3568 237.537 25.6758C237.928 25.9883 238.413 26.1445 238.992 26.1445Z" fill="#33D2FF"></path></svg> 