<svg xmlns="http://www.w3.org/2000/svg" viewBox="0 0 60 60" fill="none"> <path d="M0 12C0 5.372575 5.372575 0 12 0H48C54.6275 0 60 5.372575 60 12V48C60 54.6275 54.6275 60 48 60H12C5.372575 60 0 54.6275 0 48V12Z" fill="url(#paint0_linear_567_3563)"></path> <path d="M42.83325 17.166675C42.18925 17.166675 41.66675 17.688175 41.66675 18.333325V26.02275L34.452 20.366825C33.10225 19.374 31.33575 19.2305 29.84375 19.987675C28.34575 20.746 27.445 22.195 27.42525 23.868L23.025675 20.366825C21.654825 19.36 19.932825 19.218825 18.4185 19.987675C16.904175 20.755325 16 22.227675 16 23.925175V36.083C16 37.7805 16.904175 39.25275 18.4185 40.0205C19.9095 40.77775 21.6735 40.633 23.061825 39.6145L27.42525 36.13425C27.44375 37.81075 28.3445 39.261 29.8425 40.0205C30.45975 40.33425 31.15025 40.5 31.83975 40.5C32.78025 40.5 33.68325 40.20375 34.48 39.61925L41.66675 33.97475V41.66675C41.66675 42.31175 42.18925 42.83325 42.83325 42.83325C43.47725 42.83325 44 42.31175 44 41.66675V18.333325C44 17.688175 43.47725 17.166675 42.83325 17.166675ZM40.78575 31.701L33.07075 37.76075C32.43825 38.22375 31.596 38.29275 30.8995 37.93925C30.175 37.57175 29.7585 36.89375 29.7585 36.08075L29.75625 33.71C29.75625 33.262 29.49825 32.85475 29.09575 32.66C28.93475 32.583 28.76225 32.5445 28.5895 32.5445C28.3305 32.5445 28.07275 32.63075 27.8615 32.8L21.643175 37.76075C21.006175 38.22975 20.176675 38.29725 19.473175 37.93925C18.748675 37.57175 18.332175 36.89375 18.332175 36.08175V23.925175C18.332175 23.113175 18.7475 22.4365 19.474325 22.067825C20.1965 21.700325 20.988675 21.765675 21.608175 22.2195L27.86375 27.20125C28.215 27.48 28.69575 27.536 29.097 27.33875C29.50075 27.14525 29.75725 26.73575 29.75725 26.28875V23.926325C29.75725 23.114325 30.17275 22.437675 30.89825 22.069C31.60175 21.712 32.4325 21.780825 33.03925 22.2265L40.81375 28.32225C41.354 28.72025 41.66425 29.3315 41.66425 30.00125C41.66425 30.67075 41.354 31.28325 40.7835 31.70225L40.78575 31.701Z" fill="white"></path> <defs> <linearGradient id="paint0_linear_567_3563" x1="-17.8796" y1="-11.888" x2="253.456" y2="78.769" gradientUnits="userSpaceOnUse"> <stop stop-color="#171135"></stop> <stop offset="1" stop-color="#140C39"></stop> </linearGradient> </defs> </svg>