<?xml version="1.0" encoding="UTF-8"?> <svg xmlns="http://www.w3.org/2000/svg" width="150" height="171" viewBox="0 0 150 171" fill="none"><g opacity="0.1"><path d="M42.8103 125.627C25.0089 135.903 24.9362 152.561 42.6212 162.84C60.3062 173.119 89.0437 173.119 106.845 162.84C124.646 152.564 124.777 135.894 107.092 125.618C89.4071 115.336 60.6087 115.348 42.8103 125.627Z" fill="black"></path></g><path d="M29.415 124.394L29.4703 138.127C29.5052 144.824 33.9046 151.5 42.7006 156.615C50.095 160.904 59.4115 163.399 69.0507 164.1C72.9268 164.387 76.8581 164.387 80.7196 164.082C90.2861 163.364 99.5328 160.869 106.91 156.615C115.886 151.427 120.373 144.641 120.355 137.84L120.283 124.144C120.283 130.928 115.796 137.714 106.837 142.884C99.4775 147.121 90.2512 149.616 80.7196 150.352C76.861 150.657 72.9297 150.657 69.0507 150.369C59.3766 149.689 50.0427 147.191 42.6279 142.884C33.8319 137.767 29.4325 131.091 29.415 124.394Z" fill="#BEC4CD"></path><path d="M69.0505 150.369V164.102C72.9266 164.39 76.8579 164.39 80.7194 164.085V150.352C76.8579 150.657 72.9266 150.657 69.0505 150.369Z" fill="#DBDEE4"></path><path d="M74.7611 164.861C63.0254 164.861 51.31 162.273 42.4035 157.101C33.7239 152.056 28.9319 145.315 28.9087 138.124L28.8389 124.464C28.8389 124.441 28.8389 124.417 28.8389 124.394C28.8389 124.394 28.8389 124.394 28.8389 124.391C28.8389 124.08 29.0918 123.824 29.403 123.824H29.4059C29.717 123.824 29.97 124.077 29.9729 124.388V124.464C30.0252 131.207 34.6137 137.572 42.9008 142.387C60.391 152.553 88.951 152.553 106.558 142.387C115.054 137.479 119.724 130.992 119.703 124.118C119.703 124.118 119.703 124.118 119.703 124.115C119.703 123.804 119.956 123.548 120.268 123.548H120.27C120.582 123.548 120.835 123.801 120.837 124.112C120.837 124.115 120.837 124.118 120.837 124.118L120.907 137.842C120.931 145.144 116.057 151.983 107.191 157.101C98.2384 162.273 86.491 164.861 74.7611 164.861ZM30.0048 130.416L30.0426 138.122C30.063 144.894 34.6573 151.288 42.9735 156.121C60.4637 166.286 89.0208 166.286 106.627 156.121C115.127 151.215 119.797 144.725 119.776 137.848L119.735 130.082C117.834 135.092 113.519 139.677 107.125 143.367C89.204 153.716 60.138 153.713 42.3279 143.367C36.1315 139.764 31.9152 135.295 30.0048 130.416Z" fill="#373B42"></path><path d="M42.8103 105.665C25.0089 115.941 24.9362 132.6 42.6212 142.879C60.3062 153.158 89.0437 153.158 106.845 142.879C124.646 132.603 124.777 115.932 107.092 105.656C89.4071 95.3775 60.6087 95.3862 42.8103 105.665Z" fill="white"></path><path d="M74.6884 151.128C62.9527 151.128 51.2373 148.54 42.3308 143.367C33.6192 138.305 28.8272 131.541 28.8359 124.321C28.8476 117.061 33.7093 110.262 42.5228 105.174C60.4666 94.8133 89.5558 94.8104 107.375 105.162C116.066 110.216 120.849 116.968 120.837 124.179C120.829 131.451 115.958 138.267 107.125 143.367C98.1686 148.54 86.4212 151.128 74.6884 151.128ZM75.0141 98.5178C63.4703 98.5178 51.9119 101.065 43.0927 106.154C34.6427 111.033 29.9845 117.485 29.9729 124.324C29.9641 131.12 34.5555 137.534 42.9037 142.384C60.3939 152.55 88.9539 152.55 106.56 142.384C115.028 137.493 119.698 131.027 119.706 124.176C119.718 117.389 115.135 110.983 106.808 106.142C98.061 101.062 86.5434 98.5178 75.0141 98.5178Z" fill="#373B42"></path><path d="M106.638 124.226C106.638 128.052 104.573 131.89 100.459 135.141C99.5052 135.892 98.438 136.613 97.2546 137.293C84.8384 144.469 64.7138 144.469 52.3558 137.279C51.2596 136.645 50.2622 135.979 49.3666 135.272C45.2085 132.053 43.1295 128.198 43.1149 124.356C43.0859 119.62 46.2175 114.871 52.4692 111.263C64.9144 104.072 85.0391 104.072 97.397 111.263C99.3162 112.374 100.947 113.601 102.276 114.915C102.797 115.421 103.274 115.953 103.707 116.488C105.007 118.105 105.873 119.823 106.306 121.571C106.379 121.859 106.437 122.149 106.481 122.437C106.583 123.001 106.641 123.577 106.641 124.141C106.638 124.167 106.638 124.197 106.638 124.226Z" fill="white"></path><path d="M74.7956 143.225C66.5579 143.225 58.3231 141.404 52.0685 137.764C50.9171 137.098 49.9168 136.426 49.0125 135.711C44.8631 132.495 42.5631 128.459 42.5456 124.353C42.5136 119.201 45.939 114.374 52.1849 110.765C64.7726 103.493 85.1851 103.493 97.6826 110.765C99.625 111.891 101.306 113.15 102.675 114.505C103.17 114.985 103.667 115.531 104.147 116.124C105.481 117.788 106.394 119.57 106.854 121.425C106.932 121.733 106.993 122.039 107.037 122.347C107.144 122.946 107.203 123.554 107.203 124.132V124.22C107.203 128.349 104.993 132.274 100.808 135.577C99.814 136.359 98.712 137.101 97.5343 137.776C91.2565 141.41 83.0217 143.225 74.7956 143.225ZM74.9672 106.433C66.933 106.433 58.8931 108.207 52.7548 111.751C46.8753 115.144 43.6535 119.619 43.6826 124.35C43.6971 128.101 45.8372 131.82 49.7133 134.821C50.5769 135.505 51.5335 136.144 52.6385 136.787C64.8278 143.876 84.7169 143.885 96.9702 136.801C98.1014 136.153 99.1568 135.444 100.108 134.696C104.007 131.617 106.071 127.997 106.071 124.228V124.141C106.071 123.629 106.019 123.088 105.92 122.539C105.88 122.248 105.821 121.978 105.755 121.707C105.333 120.012 104.495 118.378 103.263 116.846C102.812 116.287 102.347 115.775 101.881 115.322C100.576 114.031 98.9708 112.83 97.1127 111.754C91.021 108.207 82.9984 106.433 74.9672 106.433Z" fill="#373B42"></path><path d="M43.1149 124.353C43.1295 128.194 45.2085 132.047 49.3666 135.269C50.3204 134.519 51.373 133.812 52.5419 133.132C64.9871 125.941 85.1118 125.941 97.4697 133.132C98.566 133.766 99.5633 134.446 100.459 135.138C104.573 131.89 106.638 128.049 106.638 124.223V124.135C106.638 123.571 106.58 122.995 106.478 122.431C106.434 122.143 106.376 121.853 106.303 121.565C105.87 119.817 105.004 118.099 103.704 116.482C103.271 115.947 102.794 115.415 102.273 114.909C100.945 113.595 99.3133 112.368 97.3941 111.257C85.0361 104.066 64.9115 104.066 52.4663 111.257C46.2175 114.868 43.0859 119.62 43.1149 124.353Z" fill="#373B42"></path><path d="M49.3644 135.836C49.2422 135.836 49.1172 135.795 49.0154 135.717C44.8602 132.498 42.5602 128.462 42.5456 124.356C42.5136 119.201 45.939 114.377 52.1849 110.768C64.7726 103.496 85.1851 103.496 97.6826 110.768C99.625 111.894 101.306 113.153 102.675 114.508C103.17 114.987 103.667 115.534 104.147 116.127C105.481 117.791 106.394 119.573 106.854 121.428C106.932 121.736 106.993 122.042 107.037 122.35C107.144 122.949 107.203 123.557 107.203 124.135C107.203 128.349 104.993 132.277 100.808 135.58C100.599 135.74 100.317 135.743 100.108 135.583C99.1859 134.871 98.2031 134.211 97.1825 133.617C84.9903 126.525 65.0924 126.528 52.8217 133.617C51.6615 134.292 50.6438 134.975 49.7104 135.708C49.6144 135.795 49.4894 135.836 49.3644 135.836ZM74.9672 106.433C66.933 106.433 58.8931 108.207 52.7548 111.751C46.8753 115.145 43.6535 119.619 43.6826 124.35C43.6971 127.988 45.7122 131.597 49.3702 134.548C50.2454 133.882 51.1962 133.257 52.2605 132.64C64.8453 125.368 85.2549 125.368 97.7553 132.64C98.6858 133.181 99.593 133.777 100.451 134.417C104.129 131.396 106.071 127.88 106.071 124.222C106.071 123.623 106.019 123.086 105.92 122.533C105.88 122.245 105.824 121.975 105.757 121.704C105.333 120.006 104.496 118.369 103.266 116.84C102.815 116.281 102.35 115.77 101.884 115.316C100.579 114.025 98.9737 112.824 97.1156 111.748C91.021 108.207 82.9984 106.433 74.9672 106.433Z" fill="#373B42"></path><path d="M23.1279 64.6773L43.7614 125.005C43.7527 129.433 46.8349 133.667 52.4381 136.918C58.3583 140.363 66.2762 142.251 74.7378 142.251C83.2052 142.251 91.155 140.355 97.113 136.918C102.777 133.644 105.912 129.401 105.944 124.961H105.958L126.615 64.5406C128.403 57.908 124.743 51.1184 115.824 45.5704C105.886 39.3856 91.2335 35.8178 75.0431 35.8178C58.8498 35.8178 44.1539 39.3711 34.1309 45.5704C25.079 51.1562 21.3397 57.9982 23.1279 64.6773Z" fill="url(#paint0_linear_567_3028)"></path><path d="M1.11035 46.7189L1.1598 63.7264C1.1598 64.9215 2.57297 65.9363 4.58224 66.2184L20.8104 68.4283C21.7903 70.6556 23.1686 72.8132 24.9976 74.8893L18.4203 71.0685C17.5741 70.5713 17.1234 69.9229 17.1234 69.257L17.1728 86.2819C17.1728 86.9478 17.6206 87.5933 18.4697 88.0934L26.7248 92.8942C27.1581 93.1442 27.6553 93.3274 28.202 93.4583C29.4988 93.7723 30.9934 93.7229 32.2554 93.2576L46.4569 88.1749C50.9581 89.7189 55.7588 90.882 60.6904 91.5973L64.4443 100.998C64.7089 101.647 65.3922 102.193 66.2878 102.542C67.0031 102.842 67.8667 102.99 68.7798 102.99H80.5242C81.6205 103.007 82.6498 102.792 83.432 102.376C83.5309 102.344 83.6326 102.292 83.714 102.243C84.2956 101.911 84.7114 101.495 84.8946 101.013L88.7648 91.5944C93.7138 90.8646 98.5145 89.7334 103.033 88.172L117.185 93.2722C117.386 93.3391 117.584 93.4059 117.799 93.4554C118.098 93.5223 118.398 93.5542 118.712 93.5891C120.125 93.7374 121.634 93.5048 122.698 92.8913L131.02 88.0731C131.901 87.5759 132.367 86.8926 132.367 86.2121L132.317 69.2046C132.317 69.8851 131.852 70.5509 130.971 71.0656L124.975 74.52C126.67 72.5602 127.964 70.5161 128.895 68.4225L145.172 66.2125C146.004 66.0962 146.734 65.8636 147.315 65.5321C148.112 65.0669 148.612 64.4185 148.612 63.7206V63.6712L148.644 56.8786L148.595 39.8712L148.563 46.6637V46.6957C148.563 47.3935 148.066 48.042 147.266 48.5072C146.685 48.8387 145.955 49.0713 145.123 49.1876L128.845 51.3975C127.566 54.2704 125.606 57.0444 122.916 59.6527L122.966 75.6802L122.652 75.8634C121.788 76.3607 120.625 76.6282 119.462 76.6282V76.5962C119.064 76.5962 118.665 76.5787 118.267 76.5293C117.886 76.4624 117.485 76.381 117.139 76.2472L102.987 71.1645C98.468 72.7085 93.6673 73.8396 88.7183 74.5695L84.8481 83.9877C84.6649 84.4704 84.2491 84.8833 83.6675 85.2177C83.5832 85.2671 83.5192 85.302 83.4349 85.334C82.6381 85.7498 81.5914 85.9824 80.4777 85.965H68.7507C67.8551 85.965 67.006 85.8167 66.2936 85.5317C65.3632 85.2002 64.6828 84.6361 64.4181 83.9877L60.6468 74.5869C55.7123 73.8571 50.9145 72.694 46.4133 71.1645L32.2292 76.2298C31.4645 76.5119 30.6183 76.6456 29.7722 76.6282V76.5962C29.2081 76.5962 28.6439 76.5293 28.1264 76.413C27.5942 76.2967 27.097 76.1135 26.6812 75.8634L26.6638 75.846L26.6143 59.6527C23.9741 57.0444 22.0288 54.2704 20.7668 51.3975L4.53861 49.1876C2.77942 48.955 1.48254 48.1408 1.18305 47.1435V47.126C1.1278 47.0039 1.11035 46.8701 1.11035 46.7189Z" fill="#0F0726"></path><path d="M17.3877 17.3216L17.4371 34.3465C17.4371 34.8118 17.6523 35.277 18.103 35.7074L26.8408 43.8956L26.7914 26.8707L18.0535 18.6824C17.6058 18.2666 17.3877 17.7868 17.3877 17.3216Z" fill="#0F0726"></path><path d="M26.8405 44.4626C26.698 44.4626 26.5584 44.4102 26.4537 44.3085L17.7159 36.1202C17.1606 35.5852 16.8727 34.9716 16.8727 34.3436L16.8232 17.3273C16.8232 17.3244 16.8232 17.3216 16.8232 17.3216C16.8232 17.0104 17.0762 16.7545 17.3902 16.7545C17.7014 16.7545 17.9573 17.0075 17.9573 17.3216V17.3302C17.9602 17.6559 18.1259 17.9787 18.4371 18.2666L27.1778 26.4606C27.2941 26.5682 27.3581 26.7165 27.3581 26.8735L27.4075 43.8985C27.4075 44.1253 27.2737 44.3288 27.0673 44.419C26.9917 44.448 26.9161 44.4626 26.8405 44.4626ZM17.9631 19.3744L18.0038 34.3465C18.0038 34.6663 18.1695 34.9862 18.4952 35.3031L26.2647 42.5871L26.2211 27.1207L17.9631 19.3744Z" fill="#373B42"></path><path d="M123.094 26.8881L123.143 43.913L131.962 35.7074C132.428 35.2741 132.643 34.7943 132.643 34.3116L132.593 17.3012C132.593 17.7665 132.378 18.2491 131.913 18.6795L123.094 26.8881Z" fill="#0F0726"></path><path d="M123.147 44.48C123.071 44.48 122.993 44.4655 122.92 44.4335C122.713 44.3434 122.58 44.1399 122.58 43.916L122.527 26.891C122.527 26.734 122.591 26.5799 122.708 26.4723L131.53 18.2666C131.855 17.9642 132.027 17.6298 132.027 17.3041C132.027 16.993 132.28 16.7371 132.594 16.7371C132.905 16.7371 133.161 16.9901 133.161 17.3041L133.21 34.3145C133.21 34.9775 132.914 35.6027 132.35 36.1261L123.531 44.3317C123.426 44.4277 123.286 44.48 123.147 44.48ZM123.661 27.1353L123.708 42.6162L131.579 35.2944C131.911 34.9862 132.076 34.6576 132.076 34.3145L132.036 19.3483L123.661 27.1353Z" fill="#0F0726"></path><path d="M50.1446 43.3315L50.1998 60.3419C50.1882 56.6577 52.6191 52.9707 57.478 50.1647C67.1637 44.5731 82.8133 44.5731 92.4351 50.1647C97.2154 52.9416 99.6085 56.5792 99.6201 60.2197L99.5649 43.2122C99.5533 39.5717 97.1602 35.937 92.3798 33.1572C82.7551 27.5656 67.1085 27.5656 57.4227 33.1572C52.5638 35.9603 50.1329 39.6473 50.1446 43.3315Z" fill="#0F0726"></path><path d="M50.1994 60.9089C49.8883 60.9089 49.6324 60.6559 49.6324 60.3448L49.5772 43.3344C49.5684 39.2751 52.2552 35.4863 57.1432 32.6658C66.9714 26.9869 82.903 26.9927 92.6673 32.6658C97.4709 35.4572 100.12 39.2024 100.134 43.2093L100.19 60.2168C100.19 60.5308 99.9367 60.7838 99.6256 60.7868H99.6226C99.3115 60.7868 99.0556 60.5338 99.0556 60.2226C99.044 56.6345 96.5928 53.2382 92.1526 50.659C82.7053 45.1662 67.2767 45.1662 57.7654 50.659C53.2439 53.2702 50.7606 56.7072 50.7693 60.3448C50.7664 60.653 50.5135 60.9089 50.1994 60.9089ZM50.7112 43.3315L50.7519 55.8901C51.9703 53.5551 54.1598 51.4267 57.1984 49.6733C67.0266 43.9974 82.9583 44.0003 92.7225 49.6733C95.6855 51.3947 97.8286 53.4795 99.0411 55.765L99.0004 43.2122C98.9888 39.6241 96.5375 36.2278 92.0974 33.6457C82.6472 28.1529 67.2244 28.1558 57.7102 33.6457C53.1886 36.2569 50.7025 39.6939 50.7112 43.3315Z" fill="#373B42"></path><path d="M26.6118 59.6615C23.9686 57.0445 22.0291 54.285 20.7555 51.4034L4.53893 49.1935C2.50932 48.9173 1.09323 47.8734 1.11649 46.6754L1.1543 39.88C1.13685 39.1705 1.62537 38.5133 2.44536 38.0423C3.024 37.7079 3.76256 37.4665 4.60581 37.3618L20.8311 35.1403C22.1396 32.282 24.1285 29.4876 26.8008 26.8707L18.0571 18.6795C16.9609 17.6472 17.2546 16.3155 18.7201 15.4693L27.0421 10.6628C28.5076 9.81663 30.8047 9.65088 32.5872 10.2877L46.7015 15.3792C51.2289 13.841 56.0383 12.7069 60.996 11.948L64.8837 2.55886C65.0669 2.07327 65.4885 1.64291 66.0642 1.31142C66.8842 0.837458 68.0183 0.558299 69.2424 0.56993H80.9752C83.0456 0.558299 84.8426 1.3841 85.2933 2.57047L89.0763 11.9596C94.0282 12.7186 98.8027 13.841 103.313 15.3792L117.523 10.3109C119.291 9.6625 121.568 9.81661 123.045 10.6744L131.294 15.4693C132.771 16.3271 133.03 17.6472 131.922 18.6795L123.106 26.8823C125.749 29.4993 127.706 32.2907 128.962 35.1403L145.161 37.3618C147.211 37.6264 148.627 38.6703 148.601 39.8683L148.563 46.6638C148.581 47.3762 148.086 48.0362 147.261 48.5131C146.688 48.8446 145.958 49.086 145.129 49.1935L128.849 51.4034C127.56 54.2734 125.609 57.0445 122.917 59.6498L131.66 67.8643C132.757 68.8965 132.443 70.2166 130.977 71.0628L122.655 75.8693C121.19 76.7155 118.91 76.8928 117.13 76.2531L102.978 71.1617C98.4713 72.7115 93.6618 73.8455 88.7215 74.5696L84.8513 83.9936C84.6623 84.4705 84.2436 84.895 83.6707 85.2236C82.8479 85.7004 81.708 85.9854 80.4751 85.9709H68.7423C66.672 85.9825 64.875 85.1567 64.4068 83.982L60.6442 74.5812C55.7126 73.8542 50.9177 72.6999 46.4078 71.1617L32.2179 76.2415C30.4297 76.8783 28.1529 76.7242 26.6757 75.8664L18.4264 71.0715C16.9493 70.2137 16.6905 68.8936 17.8187 67.873L26.6118 59.6615ZM92.2661 53.404C101.952 47.8123 102.004 38.7488 92.3795 33.1543C82.7548 27.5627 67.1081 27.5627 57.4224 33.1543C47.757 38.7343 47.7076 47.7978 57.3294 53.3894C66.954 58.9839 82.6036 58.984 92.2661 53.404Z" fill="white"></path><path d="M80.5562 86.5408C80.5242 86.5408 80.4951 86.5408 80.4661 86.5408H68.7391C68.7245 86.5408 68.71 86.5408 68.6955 86.5408C66.407 86.5408 64.4269 85.5783 63.8773 84.1942L60.2368 75.0958C55.4593 74.3747 50.8098 73.2523 46.4104 71.7636L32.4066 76.7765C30.4758 77.4657 27.9984 77.2941 26.3875 76.3578L18.1382 71.5629C17.2077 71.0221 16.6465 70.2777 16.5593 69.4693C16.4837 68.7511 16.7948 68.0358 17.4316 67.4542L25.7973 59.644C23.4332 57.2218 21.6072 54.6252 20.3656 51.921L4.45719 49.7518C2.12517 49.4348 0.514278 48.1641 0.543356 46.6608L0.584069 39.8741C0.560807 38.9931 1.13655 38.1382 2.15718 37.5479C2.82015 37.167 3.64011 36.9053 4.5328 36.7948L20.4412 34.6169C21.7264 31.904 23.5844 29.3044 25.9775 26.8794L17.6613 19.0895C17.042 18.505 16.7512 17.7897 16.8355 17.0744C16.9315 16.2602 17.4985 15.5129 18.4319 14.975L26.7539 10.1713C28.3735 9.23504 30.848 9.06641 32.773 9.75555L46.7041 14.7802C51.0017 13.3321 55.6687 12.2068 60.5915 11.4362L64.3571 2.34076C64.5751 1.76212 65.0695 1.22709 65.779 0.817098C66.7153 0.276254 67.9278 0.0145388 69.2479 0H80.972C80.9866 0 81.0011 0 81.0156 0C83.3215 0 85.293 0.971196 85.8193 2.36692L89.4743 11.4479C94.3942 12.2184 99.0437 13.3379 103.301 14.7773L117.325 9.77589C119.229 9.07221 121.701 9.24087 123.324 10.183L131.573 14.9779C132.5 15.5158 133.062 16.2573 133.152 17.0657C133.233 17.7868 132.934 18.505 132.303 19.0953L123.914 26.8997C126.284 29.3277 128.107 31.9214 129.343 34.6198L145.231 36.7977C147.571 37.1001 149.191 38.3679 149.162 39.877L149.124 46.6637C149.147 47.5477 148.569 48.4055 147.536 49.0016C146.885 49.3796 146.077 49.6384 145.196 49.7518L129.226 51.9181C127.956 54.6543 126.106 57.248 123.728 59.6353L132.041 67.4455C132.655 68.0242 132.945 68.7308 132.864 69.4403C132.768 70.2573 132.198 71.0046 131.256 71.5484L122.934 76.352C121.308 77.2912 118.843 77.4657 116.932 76.7794L102.966 71.7548C98.657 73.2232 93.9988 74.3398 89.1167 75.0755L85.3685 84.2001C85.1359 84.7816 84.6445 85.305 83.9466 85.7063C83.0278 86.25 81.824 86.5408 80.5562 86.5408ZM80.4719 85.4067C81.5623 85.4067 82.6265 85.1741 83.3826 84.7351C83.8565 84.4617 84.1822 84.1332 84.3188 83.7842L88.1891 74.3573C88.2676 74.1712 88.4333 74.0403 88.631 74.0113C93.6324 73.2756 98.3925 72.1386 102.786 70.6266C102.911 70.5859 103.042 70.5859 103.164 70.6295L117.316 75.721C118.91 76.2938 121.035 76.1484 122.367 75.3779L130.689 70.5743C131.311 70.2137 131.683 69.7688 131.736 69.3181C131.788 68.8761 131.509 68.5098 131.265 68.2801L122.524 60.0656C122.411 59.9581 122.347 59.8127 122.344 59.6556C122.341 59.4986 122.405 59.3503 122.515 59.2427C125.08 56.7595 127.037 54.0436 128.322 51.1708C128.403 50.9934 128.569 50.8684 128.764 50.8422L145.045 48.6323C145.777 48.5363 146.443 48.3241 146.967 48.0217C147.627 47.6408 147.996 47.1523 147.987 46.6783L148.025 39.8654C148.042 38.9756 146.775 38.144 145.077 37.923L128.872 35.7015C128.677 35.6753 128.511 35.5474 128.43 35.37C127.179 32.5408 125.251 29.822 122.693 27.2864C122.582 27.1788 122.521 27.0277 122.524 26.8735C122.527 26.7194 122.594 26.5711 122.704 26.4664L131.521 18.2637C131.773 18.0252 132.067 17.6472 132.015 17.1936C131.965 16.7516 131.602 16.3125 130.994 15.9607L122.742 11.1658C121.416 10.3923 119.299 10.2615 117.7 10.846L103.487 15.9142C103.362 15.9549 103.231 15.9578 103.112 15.9171C98.7762 14.437 94.0191 13.2943 88.9742 12.5208C88.7764 12.4918 88.6078 12.358 88.5351 12.1719L84.7521 2.78275C84.3944 1.83772 82.7864 1.13694 81.0011 1.13694C80.9865 1.13694 80.9778 1.13694 80.9633 1.13694H69.2305C68.143 1.14567 67.0875 1.36667 66.3373 1.80283C65.8575 2.07907 65.5347 2.41053 65.4039 2.75946L61.5075 12.169C61.429 12.3522 61.2632 12.483 61.0684 12.5121C56.0263 13.2856 51.2489 14.4312 46.8698 15.92C46.7535 15.9607 46.6168 15.9607 46.4947 15.9171L32.3804 10.8256C30.7753 10.2469 28.6411 10.3894 27.3122 11.1571L18.9902 15.9607C18.3737 16.3155 18.0074 16.7604 17.9521 17.2111C17.8998 17.6618 18.1818 18.034 18.4319 18.2666L27.1726 26.4548C27.286 26.5624 27.35 26.7078 27.3529 26.8619C27.3558 27.016 27.2918 27.1643 27.1813 27.2748C24.5993 29.8017 22.6336 32.5291 21.3309 35.3758C21.2495 35.5532 21.0838 35.6753 20.8919 35.7015L4.66945 37.923C3.91925 38.0161 3.24756 38.2254 2.71544 38.5337C2.06411 38.9088 1.69774 39.3943 1.70937 39.8654L1.66866 46.6783C1.65121 47.5681 2.91317 48.4026 4.59967 48.6323L20.8192 50.8422C21.014 50.8684 21.1797 50.9934 21.2612 51.1737C22.5144 54.0117 24.4481 56.7304 27.0011 59.2573C27.1116 59.3649 27.1726 59.5131 27.1697 59.6702C27.1668 59.8243 27.1028 59.9697 26.9894 60.0743L18.1905 68.2888C17.9259 68.5272 17.6294 68.9023 17.6759 69.3501C17.7224 69.7892 18.0859 70.2282 18.6965 70.583L26.9458 75.3779C28.2892 76.1601 30.377 76.2938 32.0111 75.7094L46.201 70.6295C46.3231 70.5859 46.454 70.5859 46.5761 70.6266C51.0657 72.1619 55.8228 73.3047 60.7108 74.0229C60.9114 74.052 61.08 74.1857 61.1556 74.3747L64.9183 83.7755C65.2876 84.7118 66.9072 85.4097 68.6867 85.4097C68.7013 85.4097 68.71 85.4097 68.7245 85.4097H80.4719V85.4067ZM74.7959 58.1407C68.3611 58.1407 61.932 56.7217 57.0441 53.8808C52.223 51.0777 49.5711 47.318 49.5769 43.2937C49.5827 39.249 52.2666 35.4747 57.14 32.6629C66.9682 26.984 82.8999 26.9899 92.6641 32.6629C97.4852 35.466 100.137 39.2228 100.131 43.2442C100.125 47.2918 97.4328 51.0748 92.5478 53.8924C87.6482 56.7246 81.2192 58.1407 74.7959 58.1407ZM74.9268 29.5283C68.6984 29.5283 62.4641 30.9008 57.707 33.6486C53.2 36.251 50.7168 39.6764 50.711 43.2995C50.7051 46.9022 53.1564 50.3101 57.614 52.9009C67.0584 58.3937 82.4782 58.3966 91.9808 52.9154C96.4995 50.3072 98.9914 46.8731 98.9973 43.2471C99.0031 39.6473 96.5518 36.2394 92.0942 33.6486C87.3691 30.9008 81.1494 29.5283 74.9268 29.5283Z" fill="#373B42"></path><defs><linearGradient id="paint0_linear_567_3028" x1="74.8759" y1="142.251" x2="74.8759" y2="35.8164" gradientUnits="userSpaceOnUse"><stop offset="0.033" stop-color="#33D1FF" stop-opacity="0.9"></stop><stop offset="0.121" stop-color="#33D1FF" stop-opacity="0.819"></stop><stop offset="0.361" stop-color="#33D1FF" stop-opacity="0.595"></stop><stop offset="0.577" stop-color="#B6E7FF" stop-opacity="0.394"></stop><stop offset="0.763" stop-color="#DEF4FF" stop-opacity="0.221"></stop><stop offset="0.91" stop-color="#F6FCFF" stop-opacity="0.084"></stop><stop offset="1" stop-color="white" stop-opacity="0"></stop></linearGradient></defs></svg> 