<?xml version="1.0" encoding="UTF-8"?> <svg xmlns="http://www.w3.org/2000/svg" width="446" height="446" viewBox="0 0 446 446" fill="none"><path d="M387.65 261.293C387.574 261.293 387.5 261.276 387.431 261.235L347.375 237.954C345.986 237.146 344.256 237.142 342.864 237.948L302.532 261.235C302.327 261.356 302.06 261.284 301.938 261.077C301.82 260.87 301.891 260.603 302.098 260.485L342.43 237.197C344.089 236.236 346.151 236.24 347.814 237.204L387.87 260.485C388.077 260.605 388.146 260.873 388.026 261.08C387.946 261.218 387.799 261.293 387.65 261.293Z" fill="#DBDEE4"></path><path d="M248.51 292.341C248.361 292.341 248.214 292.263 248.136 292.125C248.016 291.918 248.085 291.651 248.292 291.531L311.153 254.999C311.362 254.879 311.627 254.948 311.747 255.157C311.867 255.365 311.798 255.632 311.591 255.752L248.731 292.283C248.659 292.323 248.584 292.341 248.51 292.341Z" fill="#DBDEE4"></path><path d="M273.825 279.634C273.825 280.106 273.418 280.616 272.705 281.03C271.808 281.551 270.541 281.849 269.227 281.849C267.914 281.849 266.642 281.551 265.738 281.028C265.012 280.609 264.594 280.093 264.594 279.614C264.594 279.142 265.001 278.632 265.714 278.218C266.609 277.697 267.878 277.398 269.192 277.398C270.508 277.398 271.779 277.697 272.683 278.22C273.409 278.641 273.825 279.155 273.825 279.634Z" fill="#373B42"></path><path d="M279.617 408.68C279.541 408.68 279.468 408.662 279.399 408.622L197.432 361.298C197.225 361.178 197.154 360.913 197.272 360.706C197.392 360.497 197.661 360.427 197.866 360.548L279.833 407.871C280.04 407.992 280.111 408.256 279.993 408.464C279.911 408.602 279.766 408.68 279.617 408.68Z" fill="#DBDEE4"></path><path d="M270.872 409.523C267.73 407.709 267.712 404.767 270.834 402.955C273.955 401.14 279.034 401.142 282.176 402.955C285.318 404.767 285.333 407.709 282.211 409.523C279.09 411.338 274.011 411.336 270.872 409.523Z" fill="white"></path><path d="M276.545 411.309C274.414 411.309 272.279 410.839 270.653 409.9C268.988 408.938 268.071 407.635 268.068 406.228C268.066 404.83 268.97 403.534 270.613 402.579C273.851 400.699 279.132 400.697 282.39 402.579C284.055 403.538 284.97 404.843 284.972 406.25C284.975 407.649 284.071 408.944 282.428 409.9C280.809 410.839 278.678 411.309 276.545 411.309ZM276.496 402.024C274.521 402.024 272.55 402.458 271.052 403.329C269.687 404.122 268.937 405.15 268.939 406.226C268.941 407.31 269.705 408.348 271.088 409.147C274.107 410.888 278.996 410.888 281.991 409.147C283.356 408.354 284.106 407.326 284.104 406.25C284.102 405.166 283.34 404.131 281.956 403.331C280.448 402.461 278.471 402.024 276.496 402.024Z" fill="#DBDEE4"></path><path d="M276.502 404.166C277.727 404.166 278.912 404.444 279.753 404.932C280.43 405.322 280.818 405.803 280.818 406.248C280.818 406.689 280.437 407.163 279.773 407.548C278.938 408.034 277.758 408.312 276.536 408.312C275.313 408.312 274.129 408.034 273.287 407.548C272.61 407.159 272.223 406.678 272.221 406.232C272.221 405.791 272.599 405.319 273.263 404.932C274.1 404.444 275.28 404.166 276.502 404.166Z" fill="#1FB6FF"></path><path d="M244.253 390.642C244.253 390.17 244.66 389.66 245.373 389.246C246.268 388.725 247.537 388.427 248.851 388.427C250.167 388.427 251.438 388.725 252.342 389.248C253.068 389.667 253.484 390.184 253.487 390.66C253.487 391.132 253.079 391.642 252.367 392.056C251.469 392.577 250.202 392.875 248.889 392.875C247.575 392.875 246.304 392.577 245.4 392.054C244.672 391.637 244.255 391.121 244.253 390.642Z" fill="#373B42"></path><path d="M159.423 431.68C159.274 431.68 159.129 431.604 159.049 431.466C158.928 431.259 158.995 430.994 159.202 430.871L199.795 407.032C200.1 406.853 200.283 406.535 200.28 406.181C200.278 405.827 200.098 405.511 199.791 405.333L134.176 367.185C133.969 367.065 133.9 366.797 134.02 366.59C134.138 366.381 134.403 366.312 134.614 366.432L200.229 404.58C200.804 404.914 201.149 405.511 201.151 406.177C201.153 406.842 200.813 407.441 200.238 407.777L159.645 431.617C159.574 431.662 159.498 431.68 159.423 431.68Z" fill="#DBDEE4"></path><path d="M164.279 434.227C167.414 432.414 167.432 429.473 164.317 427.658C161.202 425.846 156.132 425.846 152.997 427.658C149.862 429.471 149.847 432.412 152.962 434.225C156.077 436.039 161.144 436.039 164.279 434.227Z" fill="white"></path><path d="M158.612 436.013C156.484 436.013 154.359 435.543 152.741 434.603C151.1 433.648 150.198 432.352 150.198 430.954C150.2 429.549 151.115 428.244 152.776 427.285C156.027 425.403 161.304 425.403 164.535 427.285C166.176 428.24 167.075 429.536 167.075 430.934C167.073 432.341 166.158 433.644 164.495 434.606C162.872 435.543 160.741 436.013 158.612 436.013ZM158.668 426.73C156.697 426.73 154.722 427.167 153.215 428.037C151.835 428.837 151.073 429.874 151.071 430.956C151.069 432.032 151.819 433.06 153.182 433.853C156.172 435.592 161.057 435.592 164.065 433.853C165.448 433.054 166.209 432.016 166.212 430.932C166.214 429.856 165.466 428.828 164.103 428.035C162.604 427.164 160.636 426.73 158.668 426.73Z" fill="#DBDEE4"></path><path d="M158.657 428.872C157.434 428.872 156.252 429.15 155.41 429.635C154.736 430.025 154.348 430.506 154.348 430.951C154.348 431.392 154.727 431.864 155.39 432.252C156.223 432.737 157.401 433.015 158.623 433.015C159.844 433.015 161.026 432.737 161.868 432.252C162.542 431.862 162.93 431.381 162.932 430.936C162.932 430.495 162.553 430.023 161.89 429.638C161.055 429.15 159.877 428.872 158.657 428.872Z" fill="#1FB6FF"></path><path d="M186.26 413.135C184.946 413.135 183.677 413.433 182.773 413.956C182.047 414.375 181.633 414.889 181.631 415.368C181.631 415.84 182.038 416.35 182.751 416.764C183.646 417.285 184.91 417.583 186.222 417.583C187.533 417.583 188.802 417.285 189.704 416.762C190.43 416.343 190.846 415.827 190.846 415.348C190.846 414.876 190.439 414.366 189.729 413.952C188.836 413.433 187.571 413.135 186.26 413.135Z" fill="#373B42"></path><path d="M426.567 161.292L434.256 156.825L434.291 144.221L426.605 148.687L426.567 161.292Z" fill="#373B42"></path><path d="M426.569 161.726C426.494 161.726 426.42 161.706 426.351 161.668C426.217 161.59 426.133 161.447 426.133 161.291L426.168 148.689C426.168 148.535 426.251 148.393 426.384 148.315L434.073 143.848C434.209 143.771 434.373 143.771 434.509 143.848C434.643 143.926 434.727 144.069 434.727 144.227L434.69 156.832C434.69 156.985 434.607 157.128 434.474 157.206L426.787 161.672C426.718 161.706 426.643 161.726 426.569 161.726ZM427.039 148.938L427.006 160.534L433.821 156.573L433.857 144.975L427.039 148.938Z" fill="#373B42"></path><path d="M326.638 5.3868C327.907 4.6409 329.679 4.7411 331.612 5.86997L430.098 62.7254C433.985 64.9609 437.107 70.3982 437.087 74.8291L436.887 146.547C436.887 148.762 436.101 150.314 434.831 151.058L442.522 146.585C443.791 145.839 444.577 144.289 444.577 142.074L444.778 70.3759C444.798 65.925 441.656 60.4877 437.788 58.2523L339.303 1.39678C337.37 0.267912 335.598 0.16772 334.328 0.913621L326.638 5.3868Z" fill="#F0F2F5"></path><path d="M434.831 151.494C434.682 151.494 434.537 151.416 434.457 151.278C434.337 151.071 434.406 150.806 434.611 150.684C434.613 150.684 434.613 150.684 434.613 150.684H434.615C435.8 149.987 436.452 148.517 436.452 146.549L436.653 74.8291C436.673 70.5207 433.633 65.2616 429.882 63.1018L331.396 6.24629C329.695 5.25547 328.052 5.07289 326.88 5.74754L326.86 5.75868H326.858L326.856 5.7609C326.647 5.87891 326.384 5.80989 326.261 5.60505C326.141 5.39797 326.21 5.13301 326.415 5.01055C326.426 5.00387 326.435 4.99942 326.446 4.99274L334.108 0.537369C335.56 -0.313181 337.528 -0.139509 339.521 1.02053L438.004 57.876C441.999 60.185 445.229 65.7937 445.209 70.3782L445.007 142.076C445.007 144.367 444.201 146.102 442.738 146.961L435.047 151.434C434.98 151.477 434.905 151.494 434.831 151.494ZM329.014 4.50512C329.911 4.60086 330.87 4.93262 331.832 5.49372L430.314 62.347C434.308 64.6448 437.539 70.2446 437.519 74.8291L437.318 146.547C437.318 147.645 437.134 148.613 436.78 149.419L442.299 146.209C443.486 145.514 444.138 144.044 444.138 142.074L444.341 70.3738C444.361 66.0654 441.322 60.7951 437.57 58.6264L339.084 1.77089C337.374 0.775614 335.722 0.597487 334.547 1.2855L329.014 4.50512Z" fill="#373B42"></path><path d="M331.618 5.86331C327.748 3.62783 324.6 5.43804 324.586 9.8845L324.384 81.5912C324.37 86.0377 327.499 91.4705 331.369 93.706L413.934 141.377L426.563 161.294L426.599 148.689L429.852 150.568C433.722 152.804 436.87 150.993 436.884 146.547L437.086 74.8402C437.1 70.3938 433.971 64.9609 430.101 62.7255L331.618 5.86331Z" fill="white"></path><path d="M426.568 161.726C426.421 161.726 426.283 161.652 426.201 161.523L413.628 141.698L331.153 94.0801C327.17 91.7801 323.939 86.178 323.95 81.5891L324.153 9.88233C324.16 7.57115 324.97 5.83443 326.435 4.99278C327.905 4.14891 329.824 4.32258 331.837 5.48485L430.322 62.3448C434.306 64.6448 437.536 70.2469 437.525 74.8359L437.323 146.543C437.316 148.852 436.506 150.588 435.043 151.432C433.573 152.278 431.654 152.102 429.641 150.94L427.038 149.437L427.005 161.289C427.005 161.483 426.876 161.652 426.691 161.706C426.649 161.719 426.608 161.726 426.568 161.726ZM328.486 5.3379C327.891 5.3379 327.348 5.47372 326.869 5.74759C325.685 6.42892 325.03 7.89845 325.023 9.88678L324.821 81.5935C324.81 85.9041 327.847 91.1678 331.59 93.3298L414.158 141.001C414.218 141.036 414.269 141.085 414.307 141.143L426.139 159.802L426.17 148.687C426.17 148.531 426.252 148.388 426.388 148.31C426.524 148.235 426.686 148.233 426.822 148.31L430.075 150.19C431.812 151.192 433.422 151.365 434.611 150.68C435.795 149.998 436.45 148.529 436.454 146.543L436.657 74.8359C436.668 70.5252 433.631 65.2616 429.888 63.0996L331.403 6.23966C330.365 5.64071 329.372 5.3379 328.486 5.3379Z" fill="#373B42"></path><path d="M373.142 62.8992C371.548 61.9796 370.257 62.7144 370.252 64.5468C370.248 66.3793 371.528 68.6125 373.122 69.5343L414.71 93.5457C416.304 94.4653 417.607 93.7238 417.614 91.8913C417.618 90.0589 416.324 87.8323 414.73 86.9105L373.142 62.8992Z" fill="#DBDEE4"></path><path d="M397.594 94.463C396 93.5434 394.709 94.2782 394.704 96.1107C394.7 97.9431 395.98 100.176 397.574 101.098L414.71 110.991C416.304 111.91 417.607 111.169 417.613 109.337C417.618 107.504 416.324 105.277 414.73 104.356L397.594 94.463Z" fill="white"></path><path d="M416.008 111.824C415.534 111.824 415.022 111.67 414.497 111.367L397.361 101.472C395.624 100.47 394.268 98.1146 394.273 96.1085C394.277 95.0642 394.653 94.2738 395.332 93.8797C396.018 93.4834 396.898 93.5569 397.813 94.0868L414.949 103.979C416.694 104.986 418.055 107.342 418.048 109.337C418.043 110.381 417.667 111.173 416.979 111.568C416.687 111.739 416.36 111.824 416.008 111.824ZM396.301 94.5009C396.103 94.5009 395.922 94.5454 395.767 94.6345C395.364 94.8661 395.143 95.3893 395.141 96.1107C395.136 97.8051 396.328 99.8736 397.795 100.722L414.931 110.617C415.563 110.982 416.14 111.051 416.547 110.819C416.952 110.586 417.177 110.06 417.18 109.339C417.186 107.651 415.991 105.587 414.514 104.734L397.379 94.8416C396.989 94.6145 396.619 94.5009 396.301 94.5009Z" fill="#373B42"></path><path d="M270.059 34.9159C271.328 34.17 273.1 34.2702 275.053 35.3991L373.518 92.2546C377.386 94.49 380.528 99.9073 380.528 104.358L380.327 176.076C380.307 178.291 379.541 179.843 378.272 180.567L385.963 176.096C387.212 175.37 387.998 173.821 388.018 171.605L388.218 99.8872C388.218 95.4363 385.077 90.0191 381.209 87.7814L282.743 30.9259C280.791 29.7992 279.018 29.6968 277.749 30.4427L270.059 34.9159Z" fill="#F0F2F5"></path><path d="M378.275 181.004C378.126 181.004 377.979 180.926 377.899 180.785C377.781 180.578 377.85 180.313 378.057 180.193L378.097 180.171C379.237 179.496 379.876 178.042 379.894 176.074L380.096 104.358C380.096 100.057 377.048 94.7952 373.305 92.631L274.84 35.7755C273.098 34.7713 271.491 34.5977 270.304 35.279L270.282 35.2923L270.28 35.2946C270.07 35.4126 269.805 35.3436 269.685 35.1387C269.565 34.9316 269.634 34.6667 269.839 34.5464C269.85 34.5398 269.859 34.5353 269.87 34.5286L277.532 30.0733C279.001 29.2138 280.929 29.3808 282.962 30.5564L381.428 87.4119C385.411 89.7164 388.653 95.314 388.653 99.8918L388.45 171.612C388.433 173.912 387.627 175.64 386.179 176.477L378.535 180.921C378.52 180.93 378.504 180.939 378.489 180.95C378.422 180.984 378.346 181.004 378.275 181.004ZM272.451 34.0277C273.339 34.1234 274.294 34.4574 275.272 35.0229L373.737 91.8784C377.721 94.1807 380.962 99.7805 380.962 104.358L380.76 176.078C380.749 177.174 380.564 178.136 380.219 178.935L385.743 175.722C386.912 175.045 387.564 173.582 387.58 171.603L387.782 99.8874C387.782 95.5879 384.734 90.3243 380.991 88.16L282.526 31.3046C280.773 30.2937 279.157 30.1245 277.968 30.8214L272.451 34.0277Z" fill="#373B42"></path><path d="M275.053 35.399C271.183 33.1635 268.022 34.9515 268.011 39.3979L267.806 111.12C267.792 115.567 270.934 120.993 274.804 123.226L278.044 125.096L278.008 137.701L290.722 132.417L373.276 180.079C377.146 182.315 380.308 180.527 380.321 176.08L380.524 104.358C380.537 99.9117 377.395 94.4855 373.526 92.2523L275.053 35.399Z" fill="white"></path><path d="M376.429 181.48C375.384 181.48 374.238 181.137 373.06 180.455L290.69 132.9L278.174 138.102C278.043 138.157 277.885 138.144 277.767 138.062C277.645 137.981 277.573 137.846 277.573 137.699L277.611 125.348L274.587 123.602C270.597 121.3 267.36 115.7 267.371 111.12L267.574 39.3977C267.58 37.0977 268.389 35.3677 269.847 34.526C271.319 33.6799 273.243 33.8514 275.269 35.0225L373.743 91.8758C377.736 94.1803 380.971 99.7801 380.957 104.36L380.755 176.08C380.748 178.38 379.94 180.11 378.479 180.95C377.867 181.306 377.174 181.48 376.429 181.48ZM290.723 131.983C290.799 131.983 290.875 132.003 290.942 132.041L373.496 179.703C375.24 180.709 376.856 180.883 378.049 180.199C379.23 179.52 379.882 178.057 379.889 176.078L380.091 104.358C380.105 100.056 377.063 94.7948 373.311 92.6284L274.835 35.7751C273.091 34.7687 271.472 34.5928 270.283 35.2808C269.103 35.9599 268.449 37.4228 268.444 39.4L268.242 111.122C268.231 115.424 271.272 120.685 275.024 122.852L278.263 124.724C278.397 124.802 278.482 124.945 278.482 125.103L278.446 137.053L290.559 132.019C290.61 131.994 290.668 131.983 290.723 131.983Z" fill="#373B42"></path><path d="M353.665 107.193L353.564 142.275C353.544 145.541 351.24 146.846 348.392 145.22L299.799 117.157C296.952 115.513 294.647 111.523 294.667 108.257L294.767 73.1952C294.767 69.9466 297.072 68.6241 299.92 70.2673L348.532 98.331C351.378 99.9764 353.665 103.946 353.665 107.193Z" fill="#1FB6FF"></path><path d="M324.454 118.535C324.046 118.535 323.648 118.343 323.394 117.991L313.027 103.53L301.525 110.617C300.908 110.993 300.109 110.802 299.732 110.192C299.356 109.579 299.545 108.775 300.158 108.399L312.695 100.675C313.281 100.317 314.04 100.47 314.439 101.025L324.844 115.535L340.227 107.123C340.857 106.778 341.65 107.012 341.995 107.642C342.34 108.272 342.108 109.065 341.476 109.41L325.082 118.374C324.881 118.483 324.668 118.535 324.454 118.535Z" fill="white"></path><path d="M345.802 106.05L342.732 113.832C342.364 114.763 341.095 114.881 340.563 114.032L335.117 105.331C334.576 104.467 335.268 103.363 336.281 103.472L344.798 104.391C345.599 104.476 346.098 105.302 345.802 106.05Z" fill="white"></path><g opacity="0.1"><path d="M258.102 311.641C261.586 313.654 261.586 316.922 258.124 318.933L43.4224 443.703C39.9601 445.716 34.3358 445.716 30.8512 443.703L2.62496 427.407C-0.859625 425.396 -0.877437 422.137 2.58488 420.126L217.286 295.356C220.749 293.343 226.391 293.334 229.875 295.345L258.102 311.641Z" fill="black"></path></g><path d="M262.296 292.989L262.232 305.656C262.232 306.967 261.372 308.259 259.651 309.269L44.9449 434.062C44.4083 434.385 43.8049 434.643 43.1815 434.857C40.3849 435.803 36.8803 435.803 34.106 434.835C33.4825 434.641 32.9014 434.363 32.3648 434.06L4.12964 417.759C2.38847 416.748 1.50674 415.415 1.50674 414.081L1.54905 401.436C1.54905 402.748 2.40851 404.081 4.19422 405.092L32.3871 421.371C32.9237 421.671 33.4848 421.929 34.1082 422.145C36.8825 423.114 40.3871 423.134 43.1837 422.188C43.8294 421.972 44.4306 421.693 44.9694 421.371L259.675 296.598C261.392 295.634 262.254 294.3 262.296 292.989Z" fill="#BEC4CD"></path><path d="M43.181 422.192V434.859C40.3844 435.805 36.8798 435.805 34.1055 434.836V422.149C36.8798 423.116 40.3844 423.138 43.181 422.192Z" fill="#DBDEE4"></path><path d="M38.6504 435.99C36.2947 435.99 33.939 435.469 32.1444 434.427L3.91815 418.131C2.07455 417.071 1.06146 415.63 1.06146 414.078L1.12158 401.438C1.12381 401.2 1.31752 401.006 1.55576 401.006C1.55576 401.006 1.55576 401.006 1.55799 401.006C1.79623 401.006 1.98995 401.202 1.98995 401.44C1.98995 402.665 2.8494 403.827 4.41023 404.711L32.612 421.008C35.9875 422.954 41.4336 422.956 44.7512 421.008L259.457 296.228C260.951 295.378 261.824 294.193 261.853 292.975C261.857 292.739 262.051 292.55 262.287 292.55C262.289 292.55 262.292 292.55 262.294 292.55C262.532 292.555 262.724 292.748 262.721 292.986L262.661 305.656C262.661 307.172 261.668 308.59 259.865 309.648L45.1587 434.427C43.3641 435.469 41.0084 435.99 38.6504 435.99ZM1.97658 403.803L1.92982 414.081C1.92982 415.308 2.78928 416.481 4.35233 417.381L32.5808 433.677C35.9318 435.621 41.3757 435.621 44.7201 433.677L259.426 308.898C260.951 308.005 261.791 306.851 261.791 305.653L261.837 295.338C261.363 295.959 260.702 296.518 259.887 296.981L45.1854 421.758C41.6251 423.842 35.7915 423.844 32.1733 421.758L3.97381 405.462C3.12994 404.983 2.45752 404.422 1.97658 403.803Z" fill="#373B42"></path><path d="M259.656 289.324C263.141 291.334 263.141 294.605 259.679 296.616L44.9772 421.386C41.5148 423.399 35.8905 423.399 32.4059 421.386L4.17971 405.09C0.695126 403.079 0.677309 399.82 4.13963 397.809L218.841 273.039C222.303 271.026 227.946 271.017 231.43 273.028L259.656 289.324Z" fill="white"></path><path d="M38.7013 423.321C36.3456 423.321 33.9876 422.802 32.1886 421.762L3.96232 405.466C2.13208 404.409 1.12122 402.977 1.11899 401.438C1.11677 399.906 2.11204 398.484 3.91779 397.433L218.619 272.662C222.204 270.578 228.047 270.574 231.645 272.651L259.873 288.947C261.697 290.001 262.703 291.43 262.705 292.971C262.71 294.509 261.71 295.937 259.898 296.992L45.1962 421.762C43.4082 422.802 41.057 423.321 38.7013 423.321ZM225.145 271.954C222.939 271.954 220.737 272.442 219.06 273.415L4.35642 398.185C2.82677 399.074 1.98513 400.229 1.98736 401.436C1.98958 402.654 2.84681 403.818 4.39651 404.716L32.6227 421.012C35.9826 422.949 41.4244 422.951 44.7575 421.012L259.459 296.242C260.995 295.351 261.837 294.189 261.837 292.973C261.835 291.755 260.984 290.593 259.439 289.7L231.211 273.404C229.538 272.437 227.341 271.954 225.145 271.954Z" fill="#373B42"></path><path d="M240.373 10.1187C237.915 8.67587 234.511 8.88961 230.752 11.0405L45.0253 118.29C43.2997 119.283 41.6676 120.606 40.1558 122.166C36.3506 126.067 33.3714 131.433 32.1669 136.657C31.7638 138.336 31.5523 140.015 31.5523 141.62L31.9776 397.834C31.9776 402.113 33.5139 405.09 35.9253 406.508L20.8202 397.762C18.4089 396.344 16.897 393.343 16.8725 389.063L16.4473 132.827C16.4473 131.244 16.6365 129.59 17.0373 127.911C18.2419 122.687 21.1988 117.344 25.0285 113.42C26.518 111.86 28.1946 110.513 29.9202 109.519L215.647 2.29451C219.406 0.119153 222.81 -0.0701034 225.268 1.32596L240.373 10.1187Z" fill="#BEC4CD"></path><path d="M40.1566 122.166C36.3514 126.067 33.3722 131.433 32.1676 136.657L17.0381 127.911C18.2427 122.687 21.1995 117.344 25.0293 113.42L40.1566 122.166Z" fill="#F0F2F5"></path><path d="M35.9259 406.945C35.8502 406.945 35.7767 406.927 35.7077 406.887L20.6049 398.141C17.9419 396.576 16.4634 393.354 16.4389 389.07L16.0137 132.832C16.0137 131.175 16.2163 129.487 16.6171 127.813C17.8461 122.494 20.7986 117.137 24.7196 113.12C26.2448 111.519 27.9704 110.145 29.7049 109.148L215.432 1.92487C219.188 -0.250486 222.764 -0.593382 225.485 0.954085L240.552 9.72455C240.566 9.73346 240.581 9.74236 240.597 9.74904C240.802 9.86927 240.871 10.1365 240.75 10.3435C240.626 10.5506 240.365 10.6196 240.156 10.4994L240.109 10.4727C237.704 9.08997 234.46 9.42396 230.969 11.4234L45.2441 118.664C43.612 119.604 42.0067 120.884 40.4703 122.467C36.7119 126.317 33.7683 131.656 32.5905 136.753C32.1897 138.425 31.9871 140.059 31.9871 141.618L32.4124 397.831C32.4124 401.77 33.7372 404.718 36.1441 406.134C36.3489 406.255 36.418 406.519 36.2977 406.727C36.2198 406.867 36.0751 406.945 35.9259 406.945ZM221.733 0.862795C219.941 0.862795 217.941 1.46842 215.866 2.67077L30.1368 109.896C28.4713 110.853 26.8148 112.176 25.343 113.719C21.5823 117.571 18.6388 122.912 17.4609 128.007C17.078 129.619 16.882 131.24 16.882 132.827L17.3073 389.063C17.3296 393.029 18.6566 395.986 21.0413 397.388L33.1939 404.426C32.114 402.728 31.544 400.483 31.544 397.834L31.1187 141.62C31.1187 139.992 31.328 138.287 31.7444 136.554C32.9534 131.315 35.9838 125.82 39.8469 121.861C41.4389 120.22 43.1088 118.891 44.8099 117.911L230.537 10.6642C232.893 9.31486 235.188 8.67806 237.188 8.7649L225.051 1.69999C224.064 1.14112 222.947 0.862795 221.733 0.862795Z" fill="#373B42"></path><path d="M31.624 168.904C31.5483 168.904 31.4749 168.887 31.4058 168.846L16.3008 160.1C16.0915 159.98 16.0225 159.715 16.1405 159.506C16.2629 159.299 16.5279 159.228 16.735 159.348L31.84 168.094C32.0493 168.214 32.1183 168.479 32.0003 168.688C31.9202 168.826 31.7732 168.904 31.624 168.904Z" fill="#373B42"></path><path d="M31.9561 387.071C31.8804 387.071 31.8069 387.053 31.7379 387.013L16.6329 378.242C16.4258 378.122 16.3568 377.855 16.477 377.648C16.595 377.438 16.8622 377.369 17.0715 377.49L32.1766 386.26C32.3836 386.38 32.4527 386.648 32.3324 386.855C32.25 386.993 32.1053 387.071 31.9561 387.071Z" fill="#373B42"></path><path d="M220.755 17.2392C220.68 17.2392 220.606 17.2214 220.537 17.1813L205.454 8.43533C205.245 8.31509 205.176 8.05013 205.296 7.84083C205.414 7.63153 205.684 7.56251 205.889 7.68274L220.971 16.4287C221.181 16.5489 221.25 16.8139 221.129 17.0232C221.049 17.1635 220.905 17.2392 220.755 17.2392Z" fill="#373B42"></path><path d="M244.324 18.773C244.3 10.2029 238.212 6.75396 230.753 11.0602L45.0327 118.287C37.5559 122.605 31.5264 133.05 31.5509 141.62L31.6266 168.43L244.4 45.5854L244.324 18.773Z" fill="#1FB6FF"></path><path d="M31.6264 168.864C31.5507 168.864 31.4773 168.844 31.4082 168.806C31.2746 168.728 31.19 168.585 31.19 168.43L31.1143 141.62C31.0898 132.92 37.2352 122.284 44.8144 117.911L230.537 10.6838C234.298 8.51066 237.863 8.16999 240.574 9.72859C243.26 11.2738 244.747 14.4845 244.758 18.7707L244.834 45.5808C244.834 45.7367 244.752 45.8792 244.616 45.9571L31.8424 168.801C31.7756 168.844 31.6999 168.864 31.6264 168.864ZM236.82 9.63507C235.035 9.63507 233.044 10.2407 230.971 11.4364L45.2486 118.664C37.9098 122.898 31.9604 133.196 31.9849 141.62L32.0606 167.679L243.968 45.3337L243.892 18.7751C243.881 14.8119 242.547 11.8661 240.145 10.4834C239.158 9.91785 238.036 9.63507 236.82 9.63507Z" fill="#373B42"></path><path d="M31.6268 168.43L31.9875 397.845C32.012 406.435 38.0817 409.895 45.5585 405.578L231.279 298.353C238.738 294.046 244.785 283.59 244.761 275L244.4 45.5856L31.6268 168.43Z" fill="white"></path><path d="M39.4821 407.875C38.1172 407.875 36.8547 407.557 35.737 406.913C33.0517 405.366 31.5621 402.146 31.551 397.845L31.1903 168.428C31.1903 168.272 31.2727 168.129 31.4085 168.051L244.182 45.207C244.318 45.1291 244.48 45.1291 244.616 45.207C244.75 45.2849 244.834 45.4274 244.834 45.5833L245.195 274.998C245.219 283.706 239.074 294.351 231.495 298.727L45.7743 405.952C43.5634 407.23 41.4192 407.875 39.4821 407.875ZM32.0609 168.679L32.4216 397.845C32.4327 401.823 33.7664 404.778 36.1711 406.161C38.5981 407.557 41.8534 407.214 45.3424 405.201L231.063 297.976C238.402 293.737 244.353 283.432 244.327 275.002L243.968 46.3359L32.0609 168.679Z" fill="#373B42"></path><path d="M52.8318 130.707C55.33 129.265 57.3384 130.409 57.3473 133.279C57.3562 136.125 55.359 139.607 52.8608 141.048C50.3626 142.49 48.3542 141.319 48.3453 138.474C48.3386 135.608 50.3359 132.15 52.8318 130.707Z" fill="white"></path><path d="M71.6221 119.86C74.098 118.43 76.1287 119.561 76.1376 122.431C76.1465 125.277 74.1292 128.77 71.651 130.2C69.1528 131.643 67.1445 130.471 67.1355 127.626C67.1289 124.758 69.1261 121.302 71.6221 119.86Z" fill="white"></path><path d="M90.4145 108.998C92.8971 107.564 94.91 108.713 94.9189 111.59C94.9278 114.442 92.9261 117.934 90.4434 119.365C87.9386 120.81 85.9257 119.639 85.9168 116.787C85.9101 113.91 87.9096 110.443 90.4145 108.998Z" fill="white"></path><path d="M267.805 322.626L89.1026 426.478C85.8072 428.389 81.2428 428.117 76.2107 425.231C66.2246 419.458 58.131 405.435 58.171 393.968L58.7767 181.976L237.459 78.1445L236.856 290.116C236.836 301.603 244.929 315.606 254.915 321.38C259.945 324.285 264.51 324.557 267.805 322.626Z" fill="white"></path><path d="M84.338 428.142C81.7708 428.142 78.9319 427.291 75.9973 425.608C65.8909 419.765 57.6993 405.571 57.7394 393.966L58.3428 181.974C58.3428 181.821 58.4252 181.678 58.5588 181.6L237.241 77.7684C237.377 77.6905 237.542 77.6905 237.677 77.7684C237.811 77.8463 237.896 77.9888 237.896 78.1447L237.29 290.116C237.272 301.447 245.277 315.303 255.132 321.001C259.845 323.722 264.247 324.176 267.534 322.279L267.585 322.25C267.587 322.25 267.585 322.25 267.587 322.25C267.794 322.13 268.061 322.199 268.181 322.406C268.302 322.613 268.233 322.878 268.026 323.001C268.006 323.012 267.986 323.025 267.966 323.036L89.3233 426.855C87.8382 427.714 86.1571 428.142 84.338 428.142ZM59.2112 182.226L58.6078 393.968C58.5677 405.295 66.5633 419.151 76.4292 424.855C81.1629 427.572 85.5849 428.017 88.8869 426.102L264.151 324.248C261.297 324.546 258.064 323.7 254.697 321.754C244.6 315.916 236.402 301.724 236.422 290.114L237.025 78.8973L59.2112 182.226Z" fill="#373B42"></path><path d="M94.3975 414.88L273.084 311.037L281.378 315.824L102.689 419.667L94.3975 414.88Z" fill="#DBDEE4"></path><path d="M102.689 420.101C102.614 420.101 102.54 420.081 102.471 420.043L94.1772 415.256C94.0436 415.178 93.959 415.036 93.959 414.882C93.959 414.726 94.0414 414.584 94.175 414.506L272.864 310.663C273 310.585 273.165 310.585 273.3 310.663L281.592 315.45C281.726 315.528 281.81 315.67 281.81 315.824C281.81 315.98 281.728 316.122 281.594 316.2L102.905 420.043C102.841 420.081 102.765 420.101 102.689 420.101ZM95.2638 414.878L102.689 419.164L280.51 315.824L273.084 311.538L95.2638 414.878Z" fill="#373B42"></path><path d="M273.666 332.748L94.9766 436.591C99.7214 433.835 102.667 427.977 102.689 419.667L281.378 315.824C281.354 324.136 278.41 329.992 273.666 332.748Z" fill="white"></path><path d="M94.9769 437.026C94.8278 437.026 94.6808 436.948 94.6029 436.81C94.4826 436.603 94.5517 436.335 94.7587 436.215L94.7765 436.204C99.577 433.403 102.233 427.529 102.256 419.665C102.256 419.511 102.338 419.369 102.472 419.291L281.161 315.448C281.296 315.37 281.461 315.37 281.597 315.448C281.731 315.526 281.815 315.669 281.815 315.824C281.793 324.02 278.976 330.166 273.886 333.125L95.2107 436.959C95.2063 436.963 95.1996 436.965 95.1951 436.968C95.1261 437.008 95.0504 437.026 94.9769 437.026ZM103.122 419.919C103.064 425.748 101.583 430.524 98.8668 433.828L273.445 332.372C278.103 329.667 280.746 324.076 280.933 316.584L103.122 419.919Z" fill="#373B42"></path><path d="M50.4708 177.185L229.16 73.342L237.465 78.1381L58.7781 181.981L50.4708 177.185Z" fill="white"></path><path d="M58.7777 182.415C58.7019 182.415 58.6285 182.395 58.5594 182.357L50.2543 177.561C50.1207 177.483 50.0361 177.341 50.0361 177.187C50.0361 177.031 50.1185 176.889 50.2521 176.811L228.941 72.9681C229.077 72.8902 229.242 72.8902 229.378 72.9681L237.683 77.7619C237.816 77.8399 237.901 77.9824 237.901 78.136C237.901 78.2919 237.818 78.4344 237.685 78.5123L58.9959 182.355C58.9268 182.395 58.8511 182.415 58.7777 182.415ZM51.3387 177.185L58.7777 181.48L236.598 78.1404L229.159 73.8476L51.3387 177.185Z" fill="#373B42"></path><path d="M58.777 181.981L58.1758 393.968C58.1424 405.444 66.236 419.458 76.2221 425.225C86.2083 430.99 94.3665 426.356 94.3976 414.88L102.689 419.667C102.643 436.393 90.7616 443.178 76.1932 434.766C61.6381 426.363 49.8217 405.896 49.8685 389.17L50.4696 177.183L58.777 181.981Z" fill="#373B42"></path><path d="M88.0211 438.825C84.3138 438.825 80.2147 437.589 75.9776 435.142C61.2955 426.665 49.3878 406.043 49.4368 389.17L50.038 177.183C50.038 177.027 50.1204 176.884 50.2562 176.806C50.392 176.731 50.5546 176.728 50.6904 176.806L58.9955 181.602C59.1291 181.68 59.2137 181.823 59.2137 181.979L58.6125 393.966C58.5813 405.299 66.5792 419.151 76.4407 424.846C81.1499 427.565 85.5607 428.017 88.8627 426.118C92.138 424.234 93.9482 420.242 93.9638 414.878C93.9638 414.722 94.0462 414.58 94.182 414.502C94.3178 414.426 94.4803 414.424 94.6162 414.502L102.91 419.289C103.044 419.367 103.128 419.509 103.128 419.665C103.104 427.892 100.272 434.044 95.1505 436.992C93.0219 438.217 90.6172 438.825 88.0211 438.825ZM50.9041 177.935L50.3052 389.172C50.2584 405.767 61.9702 426.053 76.4117 434.389C83.3386 438.388 89.8402 439.047 94.7141 436.242C99.5035 433.485 102.175 427.694 102.253 419.917L94.8166 415.624C94.6384 420.939 92.6924 424.915 89.2947 426.87C85.7121 428.932 80.994 428.478 76.002 425.597C65.8979 419.763 57.7063 405.573 57.7397 393.964L58.3409 182.228L50.9041 177.935Z" fill="#373B42"></path><path d="M222.548 100.711C224.331 99.6826 225.787 100.511 225.794 102.568L225.988 176.582C225.994 178.637 224.547 181.144 222.764 182.173L140.058 229.924C138.267 230.957 136.811 230.126 136.807 228.071L136.613 154.058C136.606 152.003 138.054 149.495 139.844 148.462L222.548 100.711Z" fill="white"></path><path d="M138.601 230.801C138.218 230.801 137.86 230.71 137.541 230.527C136.789 230.095 136.375 229.222 136.37 228.071L136.177 154.055C136.172 151.827 137.684 149.204 139.623 148.084L222.329 100.335C223.331 99.7539 224.304 99.6715 225.057 100.108C225.809 100.54 226.221 101.413 226.226 102.566L226.419 176.579C226.426 178.77 224.883 181.449 222.979 182.547L140.273 230.295C139.692 230.634 139.125 230.801 138.601 230.801ZM222.763 101.085L140.057 148.836C138.392 149.798 137.038 152.138 137.045 154.055L137.239 228.069C137.243 228.897 137.501 229.503 137.973 229.774C138.443 230.048 139.111 229.966 139.837 229.547L222.543 181.799C224.208 180.837 225.556 178.499 225.549 176.584L225.355 102.57C225.353 101.74 225.092 101.134 224.623 100.863C224.148 100.587 223.487 100.669 222.763 101.085Z" fill="#373B42"></path><path d="M87.7509 237.737C89.1514 237.752 90.6343 237.561 92.1862 237.142L91.0863 248.598C88.7707 249.344 86.553 249.753 84.4578 249.829L87.7509 237.737Z" fill="#0CA6E2"></path><path d="M126.465 176.898C128.431 180.505 129.546 185.161 129.564 190.747C129.582 197.371 128.057 204.465 125.385 211.361L117.447 210.094C119.186 205.427 120.17 200.646 120.157 196.18C120.146 192.564 119.478 189.5 118.291 187.06L126.465 176.898Z" fill="#BEC4CD"></path><path d="M115.498 214.631L123.454 215.901C117.709 228.24 108.436 239.444 97.9551 245.494C96.824 246.146 95.704 246.719 94.5974 247.224L95.6929 235.846C96.4276 235.503 97.1735 235.118 97.9261 234.684C105.08 230.554 111.428 223.006 115.498 214.631Z" fill="#373B42"></path><path d="M227.813 203.474L228.013 283.283L68.1787 375.563L67.9783 295.752L227.813 203.474Z" fill="#1FB6FF"></path><path d="M66.9834 218.419L76.0144 216.35C75.7049 218.241 75.5401 220.113 75.5446 221.934C75.5579 226.321 76.531 229.892 78.232 232.526L69.8468 242.252C67.5 238.522 66.1551 233.508 66.1373 227.367C66.1306 224.457 66.4312 221.454 66.9834 218.419Z" fill="#DBDEE4"></path><path d="M97.7483 172.622C109.131 166.05 119.123 167.185 124.748 174.301L116.61 184.414C112.626 179.589 105.677 178.872 97.7795 183.432C88.2899 188.91 80.2141 200.39 77.019 211.848L67.9813 213.925C72.3476 197.335 84.0104 180.553 97.7483 172.622Z" fill="#1FB6FF"></path><path d="M208.727 227.243C209.459 226.82 210.183 226.568 210.887 226.51L211.666 276.699L77.8334 353.966L77.6953 305.415C78.0115 305.97 84.0188 316.513 90.3489 314.315C90.4447 314.34 92.2526 314.785 95.9955 312.625C99.0014 310.888 103.194 307.455 108.542 300.717C108.609 300.635 109.869 299.083 112.249 297.707C115.738 295.692 121.494 294.236 128.67 299.299C128.964 299.424 134.526 301.797 142.546 297.166C145.423 295.505 148.576 292.929 151.84 288.99C152.185 288.571 152.537 288.133 152.887 287.685C164.808 272.313 174.925 252.136 182.4 247.819C182.948 247.502 183.48 247.271 183.998 247.133C184.332 247.082 190.683 246.095 195.755 243.167C197.349 242.248 198.783 241.141 199.803 239.821C200.199 239.304 200.537 238.748 200.794 238.164C203.14 232.791 205.995 228.821 208.727 227.243Z" fill="#F0F2F5"></path><path d="M215.452 143.59L215.568 175.555L202.11 183.323L201.994 151.361L215.452 143.59Z" fill="#1FB6FF"></path><path d="M197.163 170.285L197.232 186.14L183.774 193.911L183.705 178.053L197.163 170.285Z" fill="#BEC4CD"></path><path d="M183.775 194.345C183.699 194.345 183.626 194.325 183.557 194.287C183.423 194.209 183.339 194.067 183.339 193.911L183.272 169.826C183.272 169.67 183.354 169.528 183.49 169.45L196.947 161.679C197.083 161.601 197.246 161.601 197.381 161.679C197.515 161.757 197.6 161.899 197.6 162.055L197.669 186.14C197.669 186.296 197.586 186.438 197.451 186.516L183.993 194.287C183.924 194.325 183.848 194.345 183.775 194.345ZM184.14 170.075L184.207 193.16L196.798 185.891L196.731 162.806L184.14 170.075Z" fill="#373B42"></path><path d="M178.853 190.025L178.9 196.723L165.442 204.494L165.396 197.796L178.853 190.025Z" fill="#373B42"></path><path d="M165.443 204.928C165.368 204.928 165.294 204.908 165.225 204.87C165.092 204.792 165.007 204.649 165.007 204.494L164.96 188.251C164.96 188.095 165.043 187.952 165.178 187.874L178.636 180.104C178.772 180.026 178.934 180.026 179.07 180.104C179.204 180.182 179.288 180.324 179.288 180.48L179.335 196.723C179.335 196.879 179.253 197.021 179.117 197.099L165.659 204.87C165.593 204.908 165.519 204.928 165.443 204.928ZM165.831 188.502L165.875 203.743L178.467 196.473L178.422 181.233L165.831 188.502Z" fill="#373B42"></path><path d="M160.487 190.025L160.569 207.308L147.112 215.076L147.03 197.796L160.487 190.025Z" fill="#0CA6E2"></path><path d="M147.112 215.511C147.036 215.511 146.963 215.491 146.894 215.453C146.76 215.375 146.675 215.232 146.675 215.076L146.593 185.966C146.593 185.81 146.675 185.668 146.811 185.59L160.269 177.819C160.405 177.741 160.567 177.741 160.703 177.819C160.836 177.897 160.921 178.04 160.921 178.195L161.003 207.306C161.003 207.462 160.921 207.604 160.785 207.682L147.328 215.453C147.261 215.491 147.188 215.511 147.112 215.511ZM147.466 186.218L147.546 214.326L160.137 207.056L160.055 178.948L147.466 186.218Z" fill="#373B42"></path><path d="M150.503 175.439C151.271 173.179 152.102 171.204 152.943 169.492C156.481 162.284 165.183 159.247 172.464 162.636C172.493 162.65 172.524 162.663 172.553 162.679C174.294 163.487 176.527 163.155 178.758 161.866C180.406 160.915 182.053 159.443 183.503 157.524C187.092 152.764 188.989 147.206 189.089 146.914C194.683 131.409 200.636 125.615 204.379 123.455C206.71 122.11 208.111 122.168 208.184 122.171" fill="white"></path><path d="M150.502 175.873C150.456 175.873 150.409 175.866 150.364 175.851C150.137 175.773 150.015 175.526 150.093 175.299C150.816 173.17 151.642 171.15 152.553 169.3C156.169 161.935 165.184 158.769 172.646 162.242C174.318 163.019 176.377 162.734 178.539 161.487C180.189 160.536 181.786 159.074 183.155 157.259C186.595 152.699 188.472 147.366 188.675 146.774C194.235 131.366 200.164 125.383 204.161 123.077C206.543 121.701 208.05 121.723 208.202 121.734C208.44 121.745 208.627 121.948 208.616 122.188C208.605 122.426 208.418 122.647 208.162 122.602C208.099 122.602 206.804 122.556 204.595 123.829C200.725 126.065 194.963 131.907 189.496 147.061C189.289 147.665 187.368 153.117 183.848 157.784C182.407 159.693 180.722 161.231 178.974 162.242C176.56 163.636 174.218 163.932 172.367 163.072C165.238 159.757 156.739 162.738 153.332 169.685C152.44 171.502 151.625 173.486 150.912 175.581C150.852 175.759 150.685 175.873 150.502 175.873Z" fill="#373B42"></path><g opacity="0.7"><path d="M199.222 244.457C200.295 243.838 201.571 243.666 203.041 244.396C204.21 244.973 205.575 245.187 207.104 244.831C208.053 244.608 209.168 244.212 210.357 243.526C212.947 242.03 215.881 239.153 218.188 233.662L218.299 273.121L85.3531 349.878L85.2773 323.513C85.5579 324.034 90.866 333.942 98.1514 331.56C98.2004 331.56 99.1311 331.542 101.021 330.451C104.001 328.73 109.244 324.341 116.487 313.14C117.144 312.1 129.644 292.366 143.992 284.083C146.931 282.386 149.917 281.213 152.854 280.85C153.297 280.767 161.727 279.187 172.029 280.073C172.198 280.079 175.429 280.186 179.711 277.715C185.126 274.589 191.95 267.326 195.09 250.457C195.161 250.237 196.51 246.022 199.222 244.457Z" fill="#F0F2F5"></path></g><path d="M202.11 183.758C202.034 183.758 201.961 183.738 201.892 183.7C201.758 183.622 201.674 183.479 201.674 183.324L201.558 142.446C201.558 142.29 201.64 142.148 201.776 142.07L215.233 134.299C215.369 134.221 215.532 134.221 215.668 134.299C215.801 134.377 215.886 134.519 215.886 134.675L216.004 175.553C216.004 175.709 215.921 175.851 215.786 175.929L202.328 183.7C202.259 183.74 202.183 183.758 202.11 183.758ZM202.428 142.698L202.542 182.573L215.133 175.303L215.017 135.428L202.428 142.698Z" fill="#373B42"></path><path d="M183.772 244.342C184.983 243.643 185.965 244.202 185.969 245.607C185.974 246.999 184.996 248.702 183.785 249.401C182.563 250.107 181.581 249.535 181.576 248.143C181.572 246.738 182.549 245.046 183.772 244.342Z" fill="white"></path><path d="M144.68 293.287C145.891 292.588 146.873 293.147 146.877 294.552C146.882 295.944 145.904 297.647 144.693 298.346C143.471 299.052 142.489 298.48 142.484 297.088C142.48 295.683 143.457 293.993 144.68 293.287Z" fill="white"></path><path d="M143.535 282.132C144.746 281.433 145.728 281.992 145.733 283.397C145.737 284.788 144.76 286.492 143.549 287.191C142.326 287.897 141.344 287.324 141.34 285.933C141.338 284.528 142.315 282.838 143.535 282.132Z" fill="white"></path><path d="M100.491 327.549C101.703 326.85 102.685 327.409 102.689 328.814C102.694 330.206 101.716 331.909 100.505 332.608C99.2825 333.314 98.3005 332.742 98.2961 331.35C98.2939 329.947 99.2691 328.255 100.491 327.549Z" fill="white"></path><path d="M108.162 298.949C109.373 298.25 110.355 298.809 110.36 300.214C110.364 301.605 109.387 303.309 108.175 304.008C106.953 304.714 105.971 304.141 105.967 302.75C105.964 301.347 106.942 299.655 108.162 298.949Z" fill="white"></path><path d="M199.425 241.864C200.636 241.165 201.618 241.724 201.623 243.129C201.627 244.521 200.649 246.224 199.438 246.923C198.216 247.629 197.234 247.057 197.229 245.665C197.227 244.26 198.205 242.57 199.425 241.864Z" fill="white"></path><path d="M173.635 276.47C174.846 275.771 175.828 276.33 175.832 277.735C175.837 279.126 174.859 280.83 173.648 281.529C172.426 282.234 171.444 281.662 171.439 280.271C171.437 278.866 172.415 277.176 173.635 276.47Z" fill="white"></path><path d="M98.0885 191.508C106.382 186.719 113.129 190.564 113.156 200.096C113.182 209.622 106.48 221.231 98.1864 226.02C89.8925 230.81 83.1459 226.964 83.1192 217.439C83.0925 207.905 89.7945 196.296 98.0885 191.508Z" fill="#1FB6FF"></path><path d="M98.1025 196.015C100.505 194.628 102.455 195.745 102.464 198.5C102.473 201.261 100.534 204.618 98.1314 206.003C95.7334 207.388 93.7829 206.275 93.7762 203.516C93.7673 200.762 95.7067 197.4 98.1025 196.015Z" fill="white"></path><path d="M98.1375 208.279C102.684 205.654 106.692 206.048 109.003 208.804C106.714 214.21 102.722 219.225 98.1754 221.85C93.6287 224.475 89.6209 224.081 87.3141 221.327C89.5964 215.918 93.5864 210.906 98.1375 208.279Z" fill="white"></path><path d="M208.18 118.991C209.701 118.114 210.934 118.815 210.939 120.579C210.943 122.327 209.719 124.464 208.198 125.341C206.664 126.228 205.43 125.508 205.426 123.763C205.421 121.997 206.648 119.875 208.18 118.991Z" fill="#373B42"></path><path d="M190.465 140.415C191.986 139.538 193.219 140.239 193.224 142.003C193.228 143.751 192.004 145.888 190.483 146.765C188.949 147.652 187.715 146.932 187.711 145.184C187.706 143.423 188.933 141.299 190.465 140.415Z" fill="#373B42"></path><path d="M172.147 159.379C173.668 158.502 174.901 159.203 174.906 160.966C174.91 162.714 173.686 164.852 172.165 165.729C170.631 166.615 169.397 165.896 169.393 164.15C169.388 162.385 170.613 160.263 172.147 159.379Z" fill="#373B42"></path><path d="M152.353 170.661C153.874 169.784 155.107 170.485 155.112 172.248C155.116 173.996 153.891 176.134 152.371 177.011C150.837 177.897 149.603 177.178 149.599 175.432C149.594 173.669 150.821 171.547 152.353 170.661Z" fill="#373B42"></path><g opacity="0.1"><path d="M362.57 410.913C348.939 418.781 348.883 431.537 362.425 439.408C375.967 447.279 397.972 447.279 411.603 439.408C425.235 431.54 425.335 418.775 411.793 410.906C398.251 403.033 376.199 403.042 362.57 410.913Z" fill="black"></path></g><path d="M352.312 409.968L352.355 420.484C352.381 425.612 355.75 430.724 362.486 434.641C368.148 437.925 375.282 439.836 382.663 440.372C385.631 440.593 388.641 440.593 391.598 440.359C398.923 439.809 406.004 437.898 411.653 434.641C418.526 430.669 421.962 425.472 421.948 420.264L421.893 409.777C421.893 414.971 418.457 420.168 411.597 424.127C405.962 427.371 398.897 429.282 391.598 429.845C388.643 430.079 385.633 430.079 382.663 429.858C375.255 429.337 368.108 427.425 362.43 424.127C355.695 420.208 352.326 415.096 352.312 409.968Z" fill="#BEC4CD"></path><path d="M382.663 429.858V440.374C385.631 440.595 388.641 440.595 391.598 440.361V429.845C388.641 430.079 385.631 430.079 382.663 429.858Z" fill="#DBDEE4"></path><path d="M387.035 440.956C378.049 440.956 369.078 438.974 362.258 435.013C355.612 431.15 351.942 425.989 351.925 420.482L351.871 410.022C351.871 410.004 351.871 409.986 351.871 409.968C351.871 409.968 351.871 409.968 351.871 409.966C351.871 409.728 352.065 409.532 352.303 409.532H352.305C352.544 409.532 352.737 409.726 352.74 409.964V410.022C352.78 415.185 356.293 420.059 362.639 423.746C376.032 431.531 397.901 431.531 411.383 423.746C417.889 419.988 421.465 415.021 421.449 409.757C421.449 409.757 421.449 409.757 421.449 409.755C421.449 409.516 421.643 409.321 421.881 409.321H421.883C422.122 409.321 422.315 409.514 422.318 409.752C422.318 409.755 422.318 409.757 422.318 409.757L422.371 420.266C422.389 425.857 418.657 431.094 411.868 435.013C405.013 438.974 396.017 440.956 387.035 440.956ZM352.764 414.58L352.793 420.48C352.809 425.666 356.327 430.562 362.695 434.263C376.087 442.047 397.955 442.047 411.436 434.263C417.945 430.506 421.521 425.537 421.505 420.271L421.474 414.324C420.018 418.16 416.713 421.671 411.817 424.497C398.095 432.421 375.838 432.419 362.2 424.497C357.455 421.738 354.227 418.316 352.764 414.58Z" fill="#373B42"></path><path d="M362.57 395.627C348.939 403.496 348.883 416.252 362.425 424.123C375.967 431.994 397.973 431.994 411.604 424.123C425.235 416.254 425.335 403.49 411.793 395.621C398.251 387.75 376.199 387.757 362.57 395.627Z" fill="white"></path><path d="M386.98 430.44C377.994 430.44 369.023 428.458 362.203 424.497C355.532 420.621 351.863 415.442 351.869 409.913C351.878 404.353 355.601 399.147 362.35 395.251C376.09 387.318 398.364 387.315 412.009 395.242C418.664 399.112 422.327 404.282 422.318 409.804C422.311 415.372 418.582 420.592 411.817 424.497C404.96 428.458 395.964 430.44 386.98 430.44ZM387.229 390.154C378.39 390.154 369.539 392.105 362.786 396.001C356.316 399.738 352.749 404.678 352.74 409.915C352.733 415.119 356.249 420.03 362.641 423.744C376.034 431.528 397.904 431.528 411.385 423.744C417.869 419.999 421.445 415.047 421.452 409.802C421.461 404.605 417.952 399.7 411.575 395.992C404.877 392.103 396.058 390.154 387.229 390.154Z" fill="#373B42"></path><path d="M411.446 409.839C411.446 412.769 409.865 415.708 406.714 418.198C405.984 418.772 405.167 419.324 404.26 419.845C394.753 425.34 379.343 425.34 369.88 419.834C369.04 419.349 368.277 418.839 367.591 418.298C364.407 415.833 362.815 412.88 362.804 409.939C362.782 406.312 365.18 402.676 369.967 399.913C379.496 394.407 394.907 394.407 404.369 399.913C405.839 400.763 407.088 401.703 408.106 402.709C408.504 403.097 408.869 403.504 409.201 403.914C410.196 405.152 410.86 406.468 411.192 407.806C411.247 408.027 411.292 408.249 411.325 408.47C411.403 408.902 411.448 409.342 411.448 409.774C411.445 409.794 411.446 409.817 411.446 409.839Z" fill="white"></path><path d="M387.062 424.387C380.754 424.387 374.449 422.993 369.659 420.206C368.778 419.696 368.012 419.181 367.319 418.634C364.142 416.171 362.381 413.081 362.367 409.937C362.343 405.991 364.966 402.295 369.748 399.532C379.387 393.963 395.018 393.963 404.588 399.532C406.075 400.394 407.362 401.358 408.411 402.395C408.789 402.763 409.17 403.181 409.537 403.636C410.559 404.909 411.258 406.274 411.61 407.695C411.67 407.931 411.717 408.164 411.75 408.4C411.833 408.859 411.877 409.324 411.877 409.767V409.834C411.877 412.996 410.185 416.002 406.981 418.531C406.22 419.13 405.376 419.698 404.474 420.215C399.667 422.998 393.361 424.387 387.062 424.387ZM387.194 396.214C381.042 396.214 374.885 397.573 370.185 400.287C365.683 402.885 363.216 406.312 363.238 409.934C363.249 412.807 364.888 415.655 367.856 417.952C368.517 418.476 369.25 418.965 370.096 419.458C379.43 424.886 394.659 424.893 404.042 419.469C404.908 418.972 405.716 418.429 406.445 417.857C409.43 415.499 411.011 412.727 411.011 409.841V409.774C411.011 409.382 410.971 408.968 410.895 408.547C410.864 408.325 410.82 408.118 410.769 407.911C410.446 406.612 409.804 405.361 408.86 404.188C408.515 403.76 408.159 403.368 407.803 403.021C406.803 402.032 405.574 401.113 404.151 400.289C399.487 397.573 393.343 396.214 387.194 396.214Z" fill="#373B42"></path><path d="M362.804 409.937C362.815 412.879 364.407 415.829 367.591 418.296C368.321 417.721 369.127 417.18 370.022 416.659C379.552 411.153 394.962 411.153 404.425 416.659C405.265 417.145 406.028 417.666 406.714 418.196C409.865 415.709 411.446 412.767 411.446 409.837V409.77C411.446 409.338 411.401 408.897 411.323 408.466C411.29 408.245 411.245 408.022 411.189 407.802C410.858 406.464 410.194 405.148 409.199 403.91C408.867 403.5 408.502 403.093 408.103 402.705C407.086 401.699 405.837 400.759 404.367 399.909C394.904 394.402 379.494 394.402 369.964 399.909C365.18 402.674 362.782 406.312 362.804 409.937Z" fill="#373B42"></path><path d="M367.589 418.73C367.495 418.73 367.399 418.699 367.321 418.639C364.14 416.174 362.378 413.084 362.367 409.94C362.343 405.992 364.966 402.298 369.748 399.535C379.387 393.966 395.018 393.966 404.588 399.535C406.075 400.397 407.362 401.361 408.411 402.398C408.789 402.766 409.17 403.184 409.537 403.638C410.559 404.912 411.258 406.277 411.61 407.698C411.67 407.934 411.717 408.167 411.75 408.403C411.833 408.862 411.877 409.327 411.877 409.77C411.877 412.997 410.185 416.005 406.981 418.534C406.821 418.657 406.605 418.659 406.445 418.536C405.739 417.991 404.986 417.485 404.205 417.031C394.869 411.601 379.632 411.603 370.236 417.031C369.348 417.548 368.568 418.071 367.854 418.632C367.78 418.699 367.684 418.73 367.589 418.73ZM387.194 396.215C381.042 396.215 374.885 397.573 370.185 400.287C365.683 402.886 363.216 406.313 363.238 409.935C363.249 412.721 364.792 415.484 367.593 417.744C368.263 417.234 368.991 416.755 369.806 416.283C379.443 410.714 395.071 410.714 404.643 416.283C405.356 416.697 406.05 417.154 406.707 417.644C409.524 415.33 411.011 412.638 411.011 409.837C411.011 409.379 410.971 408.967 410.895 408.544C410.864 408.323 410.822 408.116 410.771 407.909C410.446 406.609 409.804 405.355 408.863 404.184C408.518 403.756 408.161 403.365 407.805 403.017C406.805 402.029 405.576 401.109 404.153 400.285C399.487 397.573 393.343 396.215 387.194 396.215Z" fill="#373B42"></path><path d="M347.499 364.241L363.299 410.436C363.292 413.827 365.652 417.069 369.943 419.558C374.476 422.197 380.539 423.642 387.018 423.642C393.502 423.642 399.59 422.19 404.152 419.558C408.489 417.051 410.889 413.803 410.914 410.403H410.925L426.743 364.137C428.112 359.058 425.309 353.859 418.48 349.61C410.869 344.875 399.65 342.143 387.252 342.143C374.852 342.143 363.599 344.863 355.924 349.61C348.993 353.888 346.13 359.127 347.499 364.241Z" fill="url(#paint0_linear_566_1051)"></path><path d="M330.639 350.49L330.677 363.513C330.677 364.428 331.759 365.205 333.297 365.421L345.724 367.114C346.474 368.819 347.53 370.471 348.93 372.061L343.894 369.135C343.246 368.754 342.901 368.258 342.901 367.748L342.938 380.785C342.938 381.295 343.281 381.789 343.931 382.172L350.253 385.848C350.584 386.039 350.965 386.18 351.384 386.28C352.377 386.52 353.521 386.482 354.488 386.126L365.362 382.234C368.809 383.416 372.485 384.307 376.261 384.855L379.136 392.053C379.338 392.55 379.862 392.968 380.547 393.236C381.095 393.465 381.756 393.579 382.456 393.579H391.449C392.288 393.592 393.076 393.427 393.675 393.109C393.751 393.084 393.829 393.044 393.891 393.006C394.337 392.752 394.655 392.434 394.795 392.064L397.759 384.853C401.548 384.294 405.224 383.428 408.685 382.232L419.521 386.137C419.675 386.189 419.826 386.24 419.991 386.278C420.22 386.329 420.45 386.353 420.69 386.38C421.772 386.494 422.928 386.315 423.743 385.846L430.115 382.156C430.79 381.775 431.146 381.252 431.146 380.731L431.108 367.708C431.108 368.229 430.752 368.739 430.077 369.133L425.486 371.778C426.784 370.277 427.775 368.712 428.488 367.109L440.952 365.417C441.589 365.328 442.148 365.15 442.593 364.896C443.203 364.54 443.586 364.043 443.586 363.509V363.471L443.611 358.27L443.573 345.246L443.548 350.448V350.472C443.548 351.006 443.167 351.503 442.555 351.859C442.11 352.113 441.551 352.291 440.914 352.38L428.45 354.072C427.47 356.272 425.969 358.396 423.91 360.394L423.948 372.667L423.707 372.807C423.046 373.188 422.155 373.392 421.265 373.392V373.368C420.96 373.368 420.655 373.355 420.35 373.317C420.058 373.266 419.751 373.203 419.486 373.101L408.649 369.209C405.189 370.391 401.513 371.257 397.723 371.816L394.76 379.028C394.619 379.397 394.301 379.714 393.856 379.97C393.791 380.008 393.742 380.034 393.677 380.059C393.067 380.377 392.266 380.555 391.413 380.542H382.433C381.747 380.542 381.097 380.428 380.552 380.21C379.839 379.956 379.318 379.524 379.116 379.028L376.228 371.829C372.449 371.27 368.775 370.38 365.329 369.209L354.468 373.087C353.882 373.303 353.234 373.406 352.586 373.392V373.368C352.154 373.368 351.722 373.317 351.326 373.228C350.918 373.139 350.538 372.998 350.219 372.807L350.206 372.793L350.168 360.394C348.146 358.396 346.657 356.272 345.69 354.072L333.264 352.38C331.917 352.202 330.924 351.579 330.694 350.815V350.802C330.652 350.708 330.639 350.606 330.639 350.49Z" fill="#373B42"></path><path d="M391.536 394.017C391.505 394.017 391.473 394.017 391.44 394.017H382.454C381.688 394.017 380.968 393.886 380.378 393.639C379.568 393.322 378.978 392.819 378.733 392.22L375.95 385.249C372.309 384.708 368.753 383.848 365.362 382.695L354.63 386.536C353.613 386.91 352.388 386.972 351.277 386.701C350.794 386.583 350.386 386.427 350.032 386.222L343.709 382.546C342.93 382.085 342.5 381.461 342.5 380.785L342.462 367.755C342.462 367.752 342.462 367.75 342.462 367.75V367.748C342.462 367.51 342.656 367.314 342.896 367.314C343.134 367.314 343.33 367.508 343.33 367.748C343.33 368.107 343.607 368.465 344.11 368.761L347.171 370.54C346.483 369.56 345.898 368.55 345.423 367.512L333.235 365.853C331.443 365.602 330.24 364.662 330.24 363.515L330.2 350.501C330.2 350.499 330.2 350.497 330.2 350.494C330.2 350.494 330.2 350.494 330.2 350.492C330.2 350.254 330.394 350.058 330.635 350.058C330.873 350.058 331.069 350.252 331.069 350.49V350.499C331.069 350.566 331.078 350.615 331.093 350.657C331.102 350.681 331.109 350.706 331.113 350.733C331.318 351.318 332.193 351.806 333.313 351.955L345.742 353.647C345.891 353.667 346.02 353.765 346.08 353.903C347.035 356.079 348.512 358.16 350.464 360.091C350.547 360.171 350.593 360.282 350.593 360.398L350.634 372.56C350.825 372.644 351.106 372.742 351.411 372.809C351.787 372.894 352.19 372.94 352.577 372.94C352.631 372.94 352.68 372.949 352.727 372.967C353.281 372.963 353.826 372.867 354.307 372.687L365.175 368.806C365.269 368.772 365.371 368.772 365.46 368.803C368.923 369.979 372.565 370.854 376.286 371.406C376.44 371.429 376.566 371.531 376.624 371.674L379.512 378.872C379.666 379.248 380.107 379.6 380.692 379.807C381.202 380.01 381.799 380.112 382.429 380.112H391.409C392.239 380.112 392.912 379.97 393.473 379.678C393.555 379.642 393.589 379.627 393.631 379.6C394.005 379.386 394.25 379.139 394.348 378.879L397.318 371.656C397.378 371.513 397.505 371.413 397.657 371.391C401.48 370.827 405.129 369.957 408.504 368.803C408.6 368.772 408.7 368.772 408.794 368.806L419.631 372.698C419.889 372.796 420.189 372.854 420.423 372.896C420.69 372.927 420.975 372.94 421.263 372.94C421.312 372.94 421.358 372.949 421.403 372.965C422.187 372.945 422.939 372.756 423.489 372.439L423.514 372.426L423.476 360.403C423.476 360.285 423.523 360.171 423.607 360.089C425.582 358.174 427.078 356.092 428.051 353.903C428.112 353.765 428.241 353.669 428.39 353.649L440.854 351.957C441.429 351.877 441.941 351.715 442.337 351.49C442.827 351.202 443.11 350.835 443.11 350.481L443.134 345.251C443.136 345.013 443.33 344.819 443.568 344.819C443.807 344.819 444.003 345.013 444.003 345.253L444.04 358.276L444.016 363.482C444.016 364.188 443.577 364.831 442.809 365.279C442.306 365.564 441.703 365.758 441.01 365.855L428.78 367.514C428.339 368.469 427.802 369.402 427.179 370.306L429.855 368.763C430.378 368.458 430.668 368.087 430.668 367.715C430.668 367.476 430.861 367.28 431.102 367.28C431.34 367.28 431.536 367.474 431.536 367.712L431.576 380.736C431.576 381.433 431.12 382.089 430.325 382.539L423.955 386.226C423.095 386.725 421.848 386.946 420.639 386.816C420.381 386.79 420.136 386.761 419.891 386.707C419.708 386.665 419.544 386.612 419.377 386.556L408.676 382.699C405.389 383.826 401.82 384.683 398.062 385.251L395.192 392.236C395.02 392.683 394.653 393.073 394.101 393.389C394.041 393.425 393.934 393.483 393.807 393.525C393.241 393.835 392.415 394.017 391.536 394.017ZM365.362 381.802C365.409 381.802 365.458 381.809 365.503 381.827C368.96 383.013 372.601 383.888 376.326 384.427C376.48 384.45 376.609 384.552 376.667 384.697L379.541 391.895C379.69 392.26 380.116 392.605 380.708 392.835C381.204 393.042 381.803 393.149 382.458 393.149H391.451C392.233 393.142 392.945 393.011 393.473 392.728C393.575 392.686 393.624 392.663 393.667 392.639C394.045 392.423 394.29 392.174 394.39 391.913L397.356 384.69C397.416 384.548 397.543 384.447 397.694 384.425C401.546 383.857 405.196 382.982 408.542 381.824C408.636 381.793 408.738 381.793 408.832 381.827L419.666 385.732C419.795 385.774 419.936 385.823 420.087 385.857C420.299 385.904 420.512 385.926 420.735 385.95C421.777 386.057 422.815 385.881 423.525 385.472L429.897 381.782C430.414 381.488 430.71 381.107 430.71 380.733L430.677 369.253C430.559 369.342 430.432 369.429 430.296 369.509L425.702 372.157C425.52 372.261 425.286 372.221 425.15 372.056C425.014 371.892 425.019 371.656 425.155 371.495C426.393 370.066 427.379 368.53 428.089 366.935C428.149 366.797 428.279 366.702 428.428 366.682L440.894 364.989C441.469 364.909 441.981 364.747 442.377 364.52C442.865 364.235 443.15 363.865 443.15 363.511L443.174 358.267L443.157 351.973C443.039 352.066 442.912 352.153 442.774 352.233C442.275 352.518 441.671 352.712 440.974 352.81L428.748 354.469C427.751 356.629 426.27 358.681 424.346 360.574L424.384 372.664C424.384 372.82 424.302 372.963 424.168 373.043L423.928 373.183C423.215 373.593 422.247 373.827 421.265 373.827C421.211 373.827 421.162 373.818 421.116 373.8C420.842 373.795 420.57 373.78 420.296 373.746C420.005 373.697 419.651 373.626 419.33 373.506L408.645 369.667C405.334 370.79 401.765 371.642 398.033 372.208L395.163 379.193C394.996 379.638 394.626 380.03 394.074 380.346C393.992 380.395 393.923 380.428 393.838 380.462C393.194 380.8 392.297 380.961 391.411 380.976H382.438C381.701 380.976 380.995 380.851 380.396 380.615C379.586 380.326 378.967 379.807 378.717 379.193L375.921 372.223C372.287 371.671 368.727 370.812 365.336 369.67L354.617 373.497C354 373.726 353.323 373.844 352.582 373.829C352.531 373.829 352.484 373.818 352.437 373.802C352.034 373.791 351.62 373.74 351.233 373.653C350.765 373.551 350.349 373.392 350.001 373.183C349.966 373.163 349.934 373.136 349.905 373.107C349.83 373.027 349.776 372.909 349.776 372.8L349.736 360.578C347.835 358.673 346.374 356.622 345.397 354.473L333.208 352.814C332.347 352.701 331.612 352.42 331.087 352.026L331.12 363.511C331.12 364.186 332.064 364.807 333.367 364.989L345.791 366.682C345.94 366.702 346.067 366.8 346.129 366.938C346.875 368.628 347.928 370.253 349.262 371.774C349.402 371.934 349.407 372.172 349.273 372.337C349.137 372.502 348.906 372.542 348.719 372.437L343.682 369.511C343.564 369.44 343.451 369.365 343.348 369.287L343.379 380.785C343.379 381.143 343.656 381.502 344.159 381.798L350.48 385.472C350.756 385.632 351.097 385.761 351.495 385.857C352.43 386.084 353.497 386.033 354.345 385.719L365.224 381.824C365.262 381.811 365.313 381.802 365.362 381.802Z" fill="#373B42"></path><path d="M343.103 327.979L343.14 341.016C343.14 341.372 343.305 341.729 343.65 342.058L350.341 348.328L350.303 335.292L343.612 329.022C343.27 328.703 343.103 328.336 343.103 327.979Z" fill="#373B42"></path><path d="M350.34 348.762C350.231 348.762 350.124 348.722 350.044 348.644L343.353 342.374C342.928 341.964 342.708 341.494 342.708 341.013L342.67 327.984C342.67 327.981 342.67 327.979 342.67 327.979C342.67 327.741 342.864 327.545 343.104 327.545C343.342 327.545 343.538 327.739 343.538 327.979V327.986C343.541 328.235 343.667 328.482 343.906 328.703L350.599 334.977C350.688 335.06 350.737 335.173 350.737 335.293L350.775 348.33C350.775 348.504 350.672 348.659 350.514 348.729C350.456 348.751 350.398 348.762 350.34 348.762ZM343.543 329.551L343.574 341.016C343.574 341.261 343.701 341.506 343.95 341.748L349.9 347.326L349.866 335.483L343.543 329.551Z" fill="#373B42"></path><path d="M424.044 335.305L424.082 348.341L430.835 342.058C431.191 341.726 431.356 341.359 431.356 340.989L431.318 327.964C431.318 328.32 431.153 328.69 430.797 329.019L424.044 335.305Z" fill="#373B42"></path><path d="M424.085 348.776C424.027 348.776 423.967 348.765 423.911 348.74C423.753 348.671 423.65 348.515 423.65 348.344L423.61 335.307C423.61 335.187 423.659 335.069 423.748 334.987L430.504 328.703C430.753 328.472 430.885 328.216 430.885 327.966C430.885 327.728 431.078 327.532 431.319 327.532C431.557 327.532 431.753 327.726 431.753 327.966L431.791 340.992C431.791 341.499 431.564 341.978 431.132 342.379L424.379 348.662C424.298 348.736 424.191 348.776 424.085 348.776ZM424.479 335.494L424.514 347.349L430.542 341.742C430.795 341.506 430.922 341.255 430.922 340.992L430.891 329.532L424.479 335.494Z" fill="#373B42"></path><path d="M368.184 347.896L368.227 360.922C368.218 358.1 370.079 355.277 373.8 353.129C381.217 348.847 393.2 348.847 400.568 353.129C404.228 355.255 406.061 358.04 406.07 360.828L406.027 347.805C406.018 345.017 404.186 342.234 400.525 340.105C393.156 335.824 381.174 335.824 373.758 340.105C370.037 342.252 368.176 345.075 368.184 347.896Z" fill="#373B42"></path><path d="M368.227 361.356C367.988 361.356 367.792 361.162 367.792 360.924L367.75 347.898C367.743 344.79 369.801 341.889 373.544 339.729C381.069 335.38 393.269 335.385 400.746 339.729C404.424 341.866 406.452 344.734 406.463 347.802L406.506 360.826C406.506 361.066 406.312 361.26 406.074 361.262H406.072C405.833 361.262 405.637 361.068 405.637 360.83C405.628 358.083 403.751 355.482 400.351 353.507C393.117 349.301 381.303 349.301 374.02 353.507C370.558 355.506 368.656 358.138 368.663 360.924C368.661 361.16 368.467 361.356 368.227 361.356ZM368.618 347.896L368.65 357.513C369.582 355.725 371.259 354.095 373.586 352.752C381.112 348.406 393.311 348.408 400.788 352.752C403.057 354.07 404.698 355.667 405.626 357.417L405.595 347.805C405.586 345.057 403.709 342.456 400.309 340.479C393.073 336.273 381.263 336.276 373.978 340.479C370.515 342.479 368.612 345.111 368.618 347.896Z" fill="#373B42"></path><path d="M350.165 360.401C348.141 358.397 346.656 356.284 345.681 354.077L333.263 352.385C331.709 352.174 330.625 351.374 330.643 350.457L330.672 345.253C330.658 344.71 331.032 344.207 331.66 343.846C332.103 343.59 332.669 343.405 333.315 343.325L345.739 341.624C346.741 339.435 348.264 337.296 350.31 335.292L343.615 329.019C342.775 328.229 343 327.209 344.122 326.561L350.495 322.881C351.617 322.233 353.376 322.106 354.741 322.594L365.549 326.492C369.015 325.314 372.698 324.446 376.494 323.865L379.471 316.675C379.612 316.304 379.934 315.974 380.375 315.72C381.003 315.357 381.872 315.143 382.809 315.152H391.793C393.379 315.143 394.755 315.776 395.1 316.684L397.996 323.874C401.788 324.455 405.444 325.314 408.898 326.492L419.779 322.611C421.133 322.115 422.876 322.233 424.007 322.89L430.324 326.561C431.455 327.218 431.653 328.229 430.805 329.019L424.054 335.301C426.078 337.305 427.576 339.442 428.538 341.624L440.943 343.325C442.512 343.528 443.597 344.327 443.577 345.244L443.548 350.448C443.561 350.993 443.182 351.499 442.55 351.864C442.111 352.118 441.553 352.303 440.918 352.385L428.451 354.077C427.465 356.275 425.971 358.397 423.909 360.392L430.605 366.682C431.444 367.472 431.204 368.483 430.081 369.131L423.709 372.812C422.587 373.46 420.841 373.595 419.478 373.106L408.642 369.207C405.19 370.394 401.508 371.262 397.725 371.816L394.761 379.033C394.616 379.398 394.296 379.723 393.857 379.975C393.227 380.34 392.354 380.558 391.41 380.547H382.426C380.841 380.556 379.465 379.923 379.106 379.024L376.225 371.825C372.449 371.269 368.777 370.385 365.324 369.207L354.458 373.097C353.089 373.584 351.345 373.466 350.214 372.809L343.897 369.138C342.766 368.481 342.568 367.47 343.432 366.689L350.165 360.401ZM400.439 355.609C407.856 351.327 407.896 344.387 400.526 340.103C393.156 335.822 381.175 335.822 373.758 340.103C366.357 344.376 366.319 351.316 373.687 355.598C381.057 359.882 393.04 359.882 400.439 355.609Z" fill="white"></path><path d="M391.473 380.983C391.448 380.983 391.426 380.983 391.404 380.983H382.424C382.413 380.983 382.402 380.983 382.391 380.983C380.638 380.983 379.122 380.246 378.701 379.186L375.914 372.219C372.255 371.667 368.695 370.808 365.326 369.668L354.603 373.506C353.125 374.034 351.228 373.903 349.994 373.186L343.677 369.514C342.965 369.1 342.535 368.53 342.468 367.911C342.41 367.361 342.649 366.813 343.136 366.368L349.542 360.387C347.732 358.533 346.334 356.544 345.383 354.473L333.201 352.812C331.416 352.57 330.182 351.597 330.204 350.446L330.236 345.249C330.218 344.574 330.659 343.92 331.44 343.468C331.948 343.176 332.576 342.975 333.259 342.891L345.441 341.223C346.425 339.146 347.848 337.155 349.68 335.298L343.312 329.333C342.838 328.886 342.615 328.338 342.68 327.79C342.753 327.167 343.188 326.595 343.902 326.183L350.275 322.504C351.515 321.787 353.41 321.658 354.884 322.186L365.551 326.033C368.842 324.925 372.416 324.063 376.185 323.473L379.069 316.508C379.236 316.065 379.614 315.655 380.158 315.341C380.874 314.927 381.803 314.727 382.814 314.716H391.791C391.802 314.716 391.814 314.716 391.825 314.716C393.59 314.716 395.1 315.459 395.503 316.528L398.302 323.482C402.069 324.072 405.629 324.929 408.889 326.031L419.628 322.202C421.086 321.663 422.979 321.792 424.221 322.513L430.538 326.185C431.248 326.597 431.678 327.165 431.747 327.784C431.81 328.336 431.58 328.886 431.097 329.338L424.673 335.314C426.488 337.173 427.884 339.159 428.83 341.225L440.996 342.893C442.789 343.125 444.029 344.095 444.007 345.251L443.978 350.448C443.996 351.125 443.552 351.782 442.762 352.238C442.263 352.527 441.644 352.726 440.97 352.812L428.741 354.471C427.768 356.566 426.352 358.553 424.531 360.381L430.897 366.361C431.366 366.804 431.589 367.345 431.527 367.889C431.453 368.514 431.017 369.086 430.295 369.503L423.923 373.181C422.678 373.9 420.79 374.034 419.327 373.508L408.633 369.661C405.333 370.785 401.766 371.64 398.028 372.204L395.158 379.191C394.98 379.636 394.603 380.037 394.069 380.344C393.366 380.76 392.444 380.983 391.473 380.983ZM391.408 380.115C392.243 380.115 393.058 379.937 393.637 379.6C394 379.391 394.249 379.139 394.354 378.872L397.318 371.654C397.378 371.511 397.505 371.411 397.656 371.389C401.486 370.825 405.131 369.955 408.495 368.797C408.591 368.766 408.691 368.766 408.785 368.799L419.621 372.698C420.841 373.137 422.469 373.025 423.489 372.435L429.861 368.757C430.338 368.481 430.623 368.14 430.663 367.795C430.703 367.457 430.489 367.176 430.302 367L423.609 360.71C423.522 360.628 423.473 360.516 423.471 360.396C423.469 360.276 423.518 360.162 423.602 360.08C425.566 358.178 427.065 356.099 428.049 353.899C428.111 353.763 428.238 353.667 428.387 353.647L440.854 351.955C441.415 351.882 441.925 351.719 442.326 351.488C442.831 351.196 443.114 350.822 443.107 350.459L443.136 345.242C443.149 344.561 442.179 343.924 440.878 343.755L428.47 342.054C428.32 342.034 428.194 341.936 428.131 341.8C427.174 339.633 425.698 337.552 423.738 335.61C423.654 335.528 423.607 335.412 423.609 335.294C423.611 335.176 423.662 335.062 423.747 334.982L430.498 328.701C430.692 328.518 430.917 328.229 430.877 327.882C430.839 327.543 430.56 327.207 430.095 326.937L423.776 323.266C422.761 322.674 421.14 322.573 419.915 323.021L409.032 326.902C408.936 326.933 408.836 326.935 408.744 326.904C405.425 325.771 401.782 324.896 397.919 324.303C397.767 324.281 397.638 324.179 397.583 324.036L394.686 316.847C394.412 316.123 393.181 315.586 391.814 315.586C391.802 315.586 391.796 315.586 391.785 315.586H382.8C381.968 315.593 381.159 315.762 380.585 316.096C380.218 316.308 379.97 316.562 379.87 316.829L376.887 324.034C376.827 324.174 376.7 324.274 376.55 324.297C372.69 324.889 369.031 325.766 365.678 326.906C365.589 326.937 365.484 326.937 365.391 326.904L354.583 323.005C353.354 322.562 351.72 322.671 350.702 323.259L344.33 326.937C343.858 327.209 343.577 327.55 343.535 327.895C343.495 328.24 343.711 328.525 343.902 328.703L350.595 334.973C350.682 335.056 350.731 335.167 350.733 335.285C350.736 335.403 350.687 335.516 350.602 335.601C348.625 337.536 347.12 339.624 346.122 341.804C346.06 341.94 345.933 342.034 345.786 342.054L333.364 343.755C332.789 343.826 332.275 343.986 331.868 344.222C331.369 344.51 331.088 344.881 331.097 345.242L331.066 350.459C331.053 351.14 332.019 351.779 333.31 351.955L345.73 353.647C345.879 353.667 346.006 353.763 346.069 353.901C347.028 356.074 348.509 358.156 350.464 360.091C350.549 360.173 350.595 360.287 350.593 360.407C350.591 360.525 350.542 360.637 350.455 360.717L343.717 367.007C343.515 367.189 343.288 367.477 343.323 367.82C343.359 368.156 343.637 368.492 344.105 368.764L350.422 372.435C351.45 373.034 353.049 373.137 354.3 372.689L365.166 368.799C365.26 368.766 365.36 368.766 365.453 368.797C368.891 369.973 372.534 370.848 376.277 371.398C376.43 371.42 376.559 371.522 376.617 371.667L379.498 378.866C379.781 379.583 381.021 380.117 382.384 380.117C382.395 380.117 382.402 380.117 382.413 380.117H391.408V380.115ZM387.062 359.236C382.135 359.236 377.212 358.15 373.469 355.974C369.777 353.828 367.747 350.949 367.751 347.867C367.756 344.77 369.811 341.88 373.542 339.727C381.068 335.378 393.268 335.383 400.744 339.727C404.436 341.873 406.467 344.75 406.462 347.829C406.458 350.929 404.396 353.826 400.655 355.983C396.904 358.152 391.981 359.236 387.062 359.236ZM387.162 337.327C382.393 337.327 377.619 338.378 373.977 340.482C370.525 342.474 368.624 345.097 368.619 347.872C368.615 350.63 370.492 353.24 373.905 355.224C381.137 359.43 392.945 359.432 400.221 355.235C403.681 353.238 405.589 350.608 405.594 347.832C405.598 345.075 403.721 342.466 400.308 340.482C396.69 338.378 391.927 337.327 387.162 337.327Z" fill="#373B42"></path><path d="M270.539 253.503C267.896 255.028 267.883 257.506 270.508 259.032L304.096 278.552C306.721 280.077 310.998 280.077 313.641 278.552L347.449 259.032C350.092 257.506 350.106 255.028 347.481 253.503L313.893 233.983C311.268 232.457 306.99 232.457 304.347 233.983L270.539 253.503Z" fill="white"></path><path d="M308.863 280.124C307.055 280.124 305.252 279.725 303.878 278.928L270.288 259.408C268.883 258.591 268.11 257.48 268.112 256.275C268.115 255.066 268.898 253.948 270.319 253.127L304.129 233.606C306.888 232.012 311.364 232.012 314.109 233.606L347.699 253.129C349.104 253.946 349.877 255.057 349.874 256.259C349.872 257.468 349.088 258.588 347.666 259.41L313.857 278.93C312.479 279.725 310.671 280.124 308.863 280.124ZM270.755 253.877C269.613 254.536 268.983 255.389 268.983 256.275C268.981 257.155 269.6 258.001 270.726 258.653L304.316 278.173C306.817 279.63 310.903 279.63 313.425 278.173L347.234 258.653C348.378 257.994 349.006 257.141 349.008 256.255C349.01 255.376 348.391 254.532 347.265 253.877L313.675 234.354C311.174 232.898 307.084 232.901 304.566 234.354L270.755 253.877Z" fill="#DBDEE4"></path><path d="M322.532 248.393C330.058 252.739 330.098 259.782 322.608 264.135C315.131 268.481 302.974 268.481 295.448 264.135C287.934 259.797 287.896 252.755 295.372 248.408C302.863 244.053 315.02 244.053 322.532 248.393Z" fill="white"></path><path d="M309.046 267.815C304.049 267.815 299.046 266.713 295.232 264.511C291.447 262.327 289.36 259.392 289.354 256.251C289.349 253.127 291.411 250.208 295.154 248.032C302.744 243.621 315.126 243.615 322.75 248.019C326.542 250.208 328.633 253.144 328.635 256.286C328.639 259.41 326.578 262.331 322.828 264.511C319.036 266.713 314.042 267.815 309.046 267.815ZM308.957 245.574C304.112 245.574 299.271 246.643 295.59 248.783C292.124 250.798 290.218 253.447 290.222 256.248C290.227 259.067 292.159 261.732 295.666 263.759C303.063 268.029 315.051 268.025 322.392 263.759C325.863 261.741 327.773 259.087 327.769 256.286C327.764 253.467 325.829 250.798 322.318 248.769C318.627 246.638 313.788 245.574 308.957 245.574Z" fill="#373B42"></path><path d="M296.553 216.533L296.7 254.968C296.704 256.791 297.904 258.613 300.302 260.007C305.119 262.805 312.949 262.805 317.797 260.007C320.23 258.602 321.446 256.756 321.442 254.91L321.295 216.475C321.299 218.318 320.083 220.164 317.65 221.571C312.802 224.37 304.972 224.37 300.156 221.571C297.758 220.178 296.557 218.356 296.553 216.533Z" fill="white"></path><path d="M300.156 221.571C302.547 222.961 305.684 223.658 308.83 223.667V262.095C305.735 262.066 302.658 261.376 300.302 260.007C297.904 258.613 296.707 256.791 296.7 254.968L296.553 216.531C296.557 218.356 297.758 220.178 300.156 221.571Z" fill="#DBDEE4"></path><path d="M309.035 262.532C305.789 262.532 302.545 261.817 300.082 260.385C297.626 258.956 296.27 257.034 296.264 254.973L296.117 216.544C296.117 216.544 296.117 216.544 296.117 216.542V216.537C296.117 216.299 296.31 216.103 296.548 216.103H296.551C296.789 216.103 296.983 216.297 296.985 216.535V216.544C296.994 218.283 298.196 219.935 300.372 221.2C305.058 223.925 312.709 223.923 317.429 221.2C319.642 219.92 320.863 218.245 320.856 216.482C320.856 216.244 321.05 216.048 321.288 216.048H321.29C321.528 216.048 321.722 216.241 321.724 216.48L321.871 254.915C321.876 257.003 320.506 258.947 318.01 260.388C315.532 261.815 312.281 262.532 309.035 262.532ZM296.998 219.316L297.134 254.968C297.139 256.709 298.343 258.366 300.521 259.633C305.208 262.358 312.858 262.356 317.578 259.633C319.792 258.352 321.012 256.678 321.005 254.912L320.869 219.256C320.217 220.26 319.204 221.178 317.866 221.948C312.907 224.814 304.863 224.811 299.937 221.948C298.637 221.191 297.644 220.296 296.998 219.316Z" fill="#373B42"></path><path d="M300.204 211.434C295.356 214.233 295.332 218.768 300.155 221.571C304.971 224.37 312.799 224.37 317.649 221.571C322.487 218.777 322.514 214.241 317.698 211.443C312.873 208.639 305.042 208.639 300.204 211.434Z" fill="white"></path><path d="M308.89 224.094C305.644 224.094 302.4 223.38 299.937 221.948C297.472 220.514 296.116 218.586 296.118 216.515C296.123 214.433 297.497 212.496 299.986 211.058C304.938 208.197 312.98 208.201 317.914 211.067C320.375 212.496 321.728 214.424 321.724 216.493C321.722 218.575 320.35 220.51 317.863 221.946C315.385 223.38 312.134 224.094 308.89 224.094ZM308.948 209.771C305.864 209.771 302.778 210.45 300.422 211.81C298.209 213.089 296.989 214.758 296.989 216.517C296.984 218.263 298.189 219.926 300.376 221.198C305.062 223.923 312.713 223.921 317.433 221.198C319.64 219.922 320.86 218.252 320.86 216.495C320.864 214.75 319.662 213.088 317.48 211.822C315.129 210.454 312.041 209.771 308.948 209.771Z" fill="#373B42"></path><path d="M300.72 189.937L300.818 215.395C300.823 216.609 301.62 217.82 303.214 218.746C306.416 220.608 311.624 220.608 314.848 218.746C316.467 217.811 317.275 216.584 317.273 215.358L317.175 189.899C317.179 191.126 316.369 192.353 314.75 193.288C311.526 195.149 306.32 195.149 303.116 193.288C301.522 192.359 300.723 191.148 300.72 189.937Z" fill="white"></path><path d="M303.116 193.285C304.692 194.203 306.756 194.661 308.827 194.677V220.129C306.787 220.1 304.763 219.646 303.212 218.744C301.617 217.818 300.82 216.606 300.816 215.393L300.718 189.934C300.722 191.148 301.522 192.359 303.116 193.285Z" fill="#DBDEE4"></path><path d="M309.021 220.565C306.837 220.565 304.652 220.084 302.993 219.12C301.315 218.143 300.386 216.818 300.382 215.395L300.286 189.939C300.286 189.7 300.48 189.505 300.718 189.505H300.72C300.958 189.505 301.152 189.698 301.154 189.936V189.943C301.159 191.045 301.934 192.101 303.334 192.913C306.413 194.704 311.437 194.701 314.532 192.913C315.957 192.09 316.74 191.021 316.738 189.903C316.738 189.665 316.932 189.469 317.17 189.469H317.172C317.41 189.469 317.604 189.663 317.606 189.901L317.704 215.359C317.709 216.802 316.769 218.14 315.064 219.127C313.394 220.084 311.207 220.565 309.021 220.565ZM301.161 192.232L301.25 215.393C301.254 216.497 302.027 217.553 303.43 218.37C306.505 220.158 311.53 220.158 314.627 218.37C316.055 217.546 316.838 216.477 316.834 215.357L316.745 192.194C316.306 192.737 315.709 193.234 314.966 193.664C311.63 195.592 306.215 195.592 302.895 193.664C302.174 193.243 301.593 192.76 301.161 192.232Z" fill="#373B42"></path><path d="M303.147 186.543C299.923 188.405 299.907 191.422 303.113 193.285C306.315 195.147 311.523 195.147 314.747 193.285C317.965 191.426 317.982 188.411 314.781 186.55C311.572 184.686 306.366 184.686 303.147 186.543Z" fill="#1FB6FF"></path><path d="M308.925 195.107C306.741 195.107 304.557 194.626 302.898 193.662C301.212 192.682 300.286 191.355 300.286 189.923C300.288 188.485 301.228 187.151 302.931 186.167C306.264 184.241 311.682 184.245 315.001 186.174C316.685 187.153 317.609 188.478 317.606 189.91C317.604 191.348 316.667 192.68 314.966 193.662C313.298 194.626 311.109 195.107 308.925 195.107ZM308.963 185.581C306.937 185.581 304.911 186.027 303.363 186.92C301.94 187.743 301.154 188.81 301.152 189.925C301.15 191.034 301.925 192.094 303.332 192.911C306.411 194.701 311.434 194.699 314.529 192.911C315.95 192.09 316.734 191.025 316.736 189.91C316.738 188.803 315.965 187.743 314.56 186.926C313.022 186.029 310.994 185.581 308.963 185.581Z" fill="#373B42"></path><path d="M316.689 170.285V189.845C316.648 190.963 315.889 192.061 314.433 192.92C311.378 194.677 306.469 194.677 303.434 192.92C301.978 192.063 301.238 190.963 301.198 189.845V170.285H316.689Z" fill="url(#paint1_linear_566_1051)"></path><path d="M382.118 263.432C378.976 261.617 378.958 258.676 382.08 256.863C385.202 255.049 390.28 255.051 393.422 256.863C396.564 258.678 396.579 261.617 393.458 263.432C390.336 265.244 385.26 265.244 382.118 263.432Z" fill="white"></path><path d="M387.793 265.218C385.662 265.218 383.529 264.748 381.901 263.808C380.236 262.846 379.319 261.544 379.316 260.137C379.314 258.738 380.218 257.443 381.859 256.487C385.099 254.608 390.382 254.606 393.638 256.487C395.301 257.447 396.218 258.752 396.221 260.157C396.223 261.555 395.319 262.851 393.676 263.806C392.057 264.746 389.926 265.218 387.793 265.218ZM382.336 263.056C385.348 264.795 390.238 264.797 393.239 263.056C394.604 262.263 395.354 261.234 395.352 260.159C395.35 259.077 394.588 258.039 393.204 257.24C390.187 255.499 385.29 255.499 382.298 257.24C380.933 258.033 380.185 259.061 380.185 260.135C380.187 261.219 380.951 262.256 382.336 263.056Z" fill="#DBDEE4"></path><path d="M387.751 258.075C388.976 258.075 390.16 258.353 391.002 258.841C391.679 259.231 392.066 259.711 392.066 260.157C392.066 260.598 391.686 261.072 391.022 261.457C390.187 261.943 389.007 262.221 387.785 262.221C386.562 262.221 385.378 261.943 384.536 261.457C383.859 261.067 383.472 260.587 383.47 260.141C383.47 259.7 383.848 259.228 384.512 258.841C385.349 258.353 386.529 258.075 387.751 258.075Z" fill="#1FB6FF"></path><path d="M368.084 247.585C369.4 247.585 370.671 247.883 371.575 248.407C372.301 248.825 372.717 249.342 372.72 249.818C372.72 250.29 372.312 250.8 371.6 251.214C370.702 251.735 369.435 252.034 368.122 252.034C366.808 252.034 365.537 251.735 364.633 251.212C363.907 250.793 363.488 250.277 363.488 249.798C363.488 249.326 363.896 248.816 364.608 248.402C365.503 247.883 366.77 247.585 368.084 247.585Z" fill="#373B42"></path><defs><linearGradient id="paint0_linear_566_1051" x1="387.124" y1="423.642" x2="387.124" y2="342.141" gradientUnits="userSpaceOnUse"><stop offset="0.033" stop-color="#1FB6FF" stop-opacity="0.9"></stop><stop offset="0.121" stop-color="#3ABFFF" stop-opacity="0.819"></stop><stop offset="0.361" stop-color="#7FD5FF" stop-opacity="0.595"></stop><stop offset="0.577" stop-color="#B6E7FF" stop-opacity="0.394"></stop><stop offset="0.763" stop-color="#DEF4FF" stop-opacity="0.221"></stop><stop offset="0.91" stop-color="#F6FCFF" stop-opacity="0.084"></stop><stop offset="1" stop-color="white" stop-opacity="0"></stop></linearGradient><linearGradient id="paint1_linear_566_1051" x1="308.943" y1="195.143" x2="308.943" y2="171.385" gradientUnits="userSpaceOnUse"><stop stop-color="#1FB6FF" stop-opacity="0.9"></stop><stop offset="1" stop-color="white" stop-opacity="0"></stop></linearGradient></defs></svg> 