<?xml version="1.0" encoding="UTF-8"?> <svg xmlns="http://www.w3.org/2000/svg" width="50" height="50" viewBox="0 0 50 50" fill="none"><rect x="1" y="1" width="48" height="48" rx="10" fill="#33D1FF"></rect><rect x="0.5" y="0.5" width="49" height="49" rx="10.5" stroke="white" stroke-opacity="0.15"></rect><path d="M29.4846 21.3884C30.2206 20.6524 30.9512 18.935 27.8846 21.0204C25.0198 22.9919 22.1357 24.9351 19.2326 26.8497C18.7905 27.0496 18.3126 27.1581 17.8275 27.1686C17.3424 27.1792 16.8603 27.0915 16.4099 26.911C14.5699 26.359 12.4219 25.623 12.4219 25.623C12.4219 25.623 10.9552 24.7017 13.4659 23.7204C13.4659 23.7204 24.0806 19.3644 27.7619 17.8297C29.1726 17.2164 33.9579 15.2537 33.9579 15.2537C33.9579 15.2537 36.1672 14.3937 35.9832 16.4804C35.9219 17.339 35.4312 20.347 34.9406 23.5977C34.2032 28.199 33.4059 33.231 33.4059 33.231C33.4059 33.231 33.2832 34.6417 32.2406 34.887C31.1244 34.8681 30.046 34.4799 29.1739 33.783C28.9286 33.599 24.5726 30.8377 22.9766 29.4884C22.8142 29.3784 22.6823 29.2291 22.5932 29.0545C22.504 28.8798 22.4604 28.6855 22.4666 28.4895C22.4727 28.2935 22.5283 28.1022 22.6282 27.9335C22.7281 27.7647 22.869 27.624 23.0379 27.5244C25.2269 25.5216 27.3762 23.4759 29.4846 21.3884Z" fill="#0B0520"></path></svg> 