<?xml version="1.0" encoding="UTF-8"?> <svg xmlns="http://www.w3.org/2000/svg" width="50" height="50" viewBox="0 0 50 50" fill="none"><rect x="1" y="1" width="48" height="48" rx="10" fill="#120B29"></rect><rect x="0.5" y="0.5" width="49" height="49" rx="10.5" stroke="white" stroke-opacity="0.15"></rect><path d="M29.4565 22.0655C30.0545 21.4675 30.6481 20.0722 28.1565 21.7665C25.8289 23.3685 23.4855 24.9473 21.1267 26.5029C20.7675 26.6653 20.3792 26.7534 19.9851 26.762C19.591 26.7706 19.1992 26.6994 18.8333 26.5527C17.3383 26.1042 15.593 25.5062 15.593 25.5062C15.593 25.5062 14.4014 24.7576 16.4413 23.9603C16.4413 23.9603 25.0657 20.421 28.0568 19.1741C29.203 18.6758 33.091 17.0811 33.091 17.0811C33.091 17.0811 34.8861 16.3824 34.7366 18.0778C34.6868 18.7755 34.2881 21.2195 33.8895 23.8606C33.2904 27.5992 32.6425 31.6877 32.6425 31.6877C32.6425 31.6877 32.5429 32.8339 31.6957 33.0332C30.7888 33.0179 29.9126 32.7024 29.204 32.1362C29.0047 31.9867 25.4655 29.7431 24.1687 28.6468C24.0368 28.5574 23.9296 28.4362 23.8572 28.2943C23.7847 28.1524 23.7493 27.9945 23.7543 27.8352C23.7593 27.676 23.8045 27.5206 23.8856 27.3835C23.9668 27.2463 24.0813 27.132 24.2185 27.051C25.9971 25.4238 27.7434 23.7616 29.4565 22.0655Z" fill="white"></path></svg> 